<ttFont>
    <TTGlyph name="A" xMin="35" yMin="0" xMax="652" yMax="727">
      <contour>
        <pt x="479" y="727" on="1"/>
        <pt x="652" y="0" on="1"/>
        <pt x="550" y="0" on="1"/>
        <pt x="418" y="586" on="1"/>
        <pt x="415" y="615" on="1"/>
        <pt x="404" y="586" on="1"/>
        <pt x="253" y="265" on="1"/>
        <pt x="239" y="244" on="1"/>
        <pt x="252" y="246" on="1"/>
        <pt x="387" y="246" on="1"/>
        <pt x="423" y="246" on="0"/>
        <pt x="456" y="203" on="0"/>
        <pt x="463" y="174" on="1"/>
        <pt x="211" y="174" on="1"/>
        <pt x="130" y="0" on="1"/>
        <pt x="35" y="0" on="1"/>
        <pt x="386" y="727" on="1"/>
      </contour>
    </TTGlyph>
    <TTGlyph name="AE" xMin="21" yMin="0" xMax="933" yMax="727">
      <contour>
        <pt x="512" y="605" on="1"/>
        <pt x="515" y="645" on="1"/>
        <pt x="495" y="605" on="1"/>
        <pt x="283" y="265" on="1"/>
        <pt x="266" y="244" on="1"/>
        <pt x="285" y="246" on="1"/>
        <pt x="413" y="246" on="1"/>
        <pt x="449" y="246" on="0"/>
        <pt x="482" y="203" on="0"/>
        <pt x="489" y="174" on="1"/>
        <pt x="228" y="174" on="1"/>
        <pt x="120" y="0" on="1"/>
        <pt x="21" y="0" on="1"/>
        <pt x="479" y="727" on="1"/>
        <pt x="933" y="727" on="1"/>
        <pt x="924" y="655" on="1"/>
        <pt x="600" y="655" on="1"/>
        <pt x="618" y="72" on="1"/>
        <pt x="922" y="72" on="1"/>
        <pt x="914" y="0" on="1"/>
        <pt x="533" y="0" on="1"/>
      </contour>
      <contour>
        <pt x="905" y="416" on="1"/>
        <pt x="896" y="346" on="1"/>
        <pt x="644" y="346" on="1"/>
        <pt x="657" y="375" on="0"/>
        <pt x="699" y="416" on="0"/>
        <pt x="735" y="416" on="1"/>
      </contour>
    </TTGlyph>
    <TTGlyph name="Aacute" xMin="35" yMin="0" xMax="652" yMax="890">
      <contour>
        <pt x="479" y="727" on="1"/>
        <pt x="652" y="0" on="1"/>
        <pt x="550" y="0" on="1"/>
        <pt x="414" y="605" on="1"/>
        <pt x="253" y="265" on="1"/>
        <pt x="239" y="244" on="1"/>
        <pt x="252" y="246" on="1"/>
        <pt x="387" y="246" on="1"/>
        <pt x="423" y="246" on="0"/>
        <pt x="456" y="203" on="0"/>
        <pt x="463" y="174" on="1"/>
        <pt x="211" y="174" on="1"/>
        <pt x="130" y="0" on="1"/>
        <pt x="35" y="0" on="1"/>
        <pt x="386" y="727" on="1"/>
      </contour>
      <contour>
        <pt x="489" y="792" on="1"/>
        <pt x="466" y="770" on="0"/>
        <pt x="413" y="760" on="0"/>
        <pt x="388" y="766" on="1"/>
        <pt x="492" y="890" on="1"/>
        <pt x="589" y="890" on="1"/>
      </contour>
    </TTGlyph>
    <TTGlyph name="Acircumflex" xMin="35" yMin="0" xMax="652" yMax="890">
      <contour>
        <pt x="479" y="727" on="1"/>
        <pt x="652" y="0" on="1"/>
        <pt x="550" y="0" on="1"/>
        <pt x="414" y="605" on="1"/>
        <pt x="253" y="265" on="1"/>
        <pt x="239" y="244" on="1"/>
        <pt x="252" y="246" on="1"/>
        <pt x="387" y="246" on="1"/>
        <pt x="423" y="246" on="0"/>
        <pt x="456" y="203" on="0"/>
        <pt x="463" y="174" on="1"/>
        <pt x="211" y="174" on="1"/>
        <pt x="130" y="0" on="1"/>
        <pt x="35" y="0" on="1"/>
        <pt x="386" y="727" on="1"/>
      </contour>
      <contour>
        <pt x="478" y="890" on="1"/>
        <pt x="574" y="770" on="1"/>
        <pt x="521" y="762" on="1"/>
        <pt x="440" y="821" on="1"/>
        <pt x="345" y="761" on="1"/>
        <pt x="297" y="770" on="1"/>
        <pt x="421" y="890" on="1"/>
      </contour>
    </TTGlyph>
    <TTGlyph name="Adieresis" xMin="35" yMin="0" xMax="652" yMax="892">
      <contour>
        <pt x="479" y="727" on="1"/>
        <pt x="652" y="0" on="1"/>
        <pt x="550" y="0" on="1"/>
        <pt x="414" y="605" on="1"/>
        <pt x="253" y="265" on="1"/>
        <pt x="239" y="244" on="1"/>
        <pt x="252" y="246" on="1"/>
        <pt x="387" y="246" on="1"/>
        <pt x="423" y="246" on="0"/>
        <pt x="456" y="203" on="0"/>
        <pt x="463" y="174" on="1"/>
        <pt x="211" y="174" on="1"/>
        <pt x="130" y="0" on="1"/>
        <pt x="35" y="0" on="1"/>
        <pt x="386" y="727" on="1"/>
      </contour>
      <contour>
        <pt x="297" y="840" on="1"/>
        <pt x="299" y="862" on="0"/>
        <pt x="334" y="892" on="0"/>
        <pt x="355" y="892" on="1"/>
        <pt x="377" y="892" on="0"/>
        <pt x="404" y="862" on="0"/>
        <pt x="402" y="840" on="1"/>
        <pt x="399" y="818" on="0"/>
        <pt x="364" y="788" on="0"/>
        <pt x="342" y="788" on="1"/>
        <pt x="321" y="788" on="0"/>
        <pt x="294" y="818" on="0"/>
      </contour>
      <contour>
        <pt x="491" y="840" on="1"/>
        <pt x="493" y="862" on="0"/>
        <pt x="528" y="892" on="0"/>
        <pt x="550" y="892" on="1"/>
        <pt x="571" y="892" on="0"/>
        <pt x="598" y="862" on="0"/>
        <pt x="596" y="840" on="1"/>
        <pt x="593" y="818" on="0"/>
        <pt x="558" y="788" on="0"/>
        <pt x="537" y="788" on="1"/>
        <pt x="515" y="788" on="0"/>
        <pt x="488" y="818" on="0"/>
      </contour>
    </TTGlyph>
    <TTGlyph name="Agrave" xMin="35" yMin="0" xMax="652" yMax="890">
      <contour>
        <pt x="479" y="727" on="1"/>
        <pt x="652" y="0" on="1"/>
        <pt x="550" y="0" on="1"/>
        <pt x="414" y="605" on="1"/>
        <pt x="253" y="265" on="1"/>
        <pt x="239" y="244" on="1"/>
        <pt x="252" y="246" on="1"/>
        <pt x="387" y="246" on="1"/>
        <pt x="423" y="246" on="0"/>
        <pt x="456" y="203" on="0"/>
        <pt x="463" y="174" on="1"/>
        <pt x="211" y="174" on="1"/>
        <pt x="130" y="0" on="1"/>
        <pt x="35" y="0" on="1"/>
        <pt x="386" y="727" on="1"/>
      </contour>
      <contour>
        <pt x="338" y="890" on="1"/>
        <pt x="432" y="890" on="1"/>
        <pt x="491" y="766" on="1"/>
        <pt x="465" y="760" on="0"/>
        <pt x="413" y="770" on="0"/>
        <pt x="399" y="792" on="1"/>
      </contour>
    </TTGlyph>
    <TTGlyph name="Aring" xMin="35" yMin="0" xMax="652" yMax="891">
      <contour>
        <pt x="35" y="0" on="1"/>
        <pt x="383" y="723" on="1"/>
        <pt x="360" y="734" on="0"/>
        <pt x="337" y="775" on="0"/>
        <pt x="340" y="801" on="1"/>
        <pt x="345" y="840" on="0"/>
        <pt x="406" y="891" on="0"/>
        <pt x="450" y="891" on="1"/>
        <pt x="495" y="891" on="0"/>
        <pt x="541" y="841" on="0"/>
        <pt x="536" y="802" on="1"/>
        <pt x="533" y="776" on="0"/>
        <pt x="502" y="737" on="0"/>
        <pt x="479" y="726" on="1"/>
        <pt x="652" y="0" on="1"/>
        <pt x="550" y="0" on="1"/>
        <pt x="414" y="605" on="1"/>
        <pt x="253" y="265" on="1"/>
        <pt x="239" y="244" on="1"/>
        <pt x="252" y="246" on="1"/>
        <pt x="387" y="246" on="1"/>
        <pt x="423" y="246" on="0"/>
        <pt x="456" y="203" on="0"/>
        <pt x="463" y="174" on="1"/>
        <pt x="211" y="174" on="1"/>
        <pt x="130" y="0" on="1"/>
      </contour>
      <contour>
        <pt x="432" y="752" on="1"/>
        <pt x="455" y="752" on="0"/>
        <pt x="486" y="781" on="0"/>
        <pt x="488" y="803" on="1"/>
        <pt x="491" y="825" on="0"/>
        <pt x="467" y="854" on="0"/>
        <pt x="444" y="854" on="1"/>
        <pt x="423" y="854" on="0"/>
        <pt x="393" y="824" on="0"/>
        <pt x="390" y="801" on="1"/>
        <pt x="388" y="782" on="0"/>
        <pt x="410" y="752" on="0"/>
      </contour>
    </TTGlyph>
    <TTGlyph name="Atilde" xMin="35" yMin="0" xMax="652" yMax="893">
      <contour>
        <pt x="479" y="727" on="1"/>
        <pt x="652" y="0" on="1"/>
        <pt x="550" y="0" on="1"/>
        <pt x="414" y="605" on="1"/>
        <pt x="253" y="265" on="1"/>
        <pt x="239" y="244" on="1"/>
        <pt x="252" y="246" on="1"/>
        <pt x="387" y="246" on="1"/>
        <pt x="423" y="246" on="0"/>
        <pt x="456" y="203" on="0"/>
        <pt x="463" y="174" on="1"/>
        <pt x="211" y="174" on="1"/>
        <pt x="130" y="0" on="1"/>
        <pt x="35" y="0" on="1"/>
        <pt x="386" y="727" on="1"/>
      </contour>
      <contour>
        <pt x="298" y="783" on="1"/>
        <pt x="306" y="840" on="0"/>
        <pt x="364" y="890" on="0"/>
        <pt x="400" y="891" on="1"/>
        <pt x="437" y="891" on="0"/>
        <pt x="461" y="867" on="1"/>
        <pt x="473" y="855" on="0"/>
        <pt x="491" y="835" on="0"/>
        <pt x="511" y="835" on="1"/>
        <pt x="538" y="835" on="0"/>
        <pt x="549" y="893" on="1"/>
        <pt x="601" y="887" on="1"/>
        <pt x="596" y="855" on="0"/>
        <pt x="575" y="814" on="0"/>
        <pt x="548" y="789" on="0"/>
        <pt x="518" y="779" on="0"/>
        <pt x="504" y="779" on="1"/>
        <pt x="464" y="779" on="0"/>
        <pt x="442" y="802" on="1"/>
        <pt x="429" y="814" on="0"/>
        <pt x="411" y="835" on="0"/>
        <pt x="394" y="835" on="1"/>
        <pt x="381" y="835" on="0"/>
        <pt x="358" y="809" on="0"/>
        <pt x="352" y="777" on="1"/>
      </contour>
    </TTGlyph>
    <TTGlyph name="B" xMin="87" yMin="-12" xMax="625" yMax="740">
      <contour>
        <pt x="347" y="415" on="1"/>
        <pt x="384" y="415" on="0"/>
        <pt x="445" y="435" on="0"/>
        <pt x="488" y="471" on="0"/>
        <pt x="515" y="519" on="0"/>
        <pt x="518" y="547" on="1"/>
        <pt x="524" y="598" on="0"/>
        <pt x="454" y="666" on="0"/>
        <pt x="378" y="666" on="1"/>
        <pt x="351" y="666" on="0"/>
        <pt x="290" y="663" on="0"/>
        <pt x="263" y="660" on="1"/>
        <pt x="232" y="415" on="1"/>
      </contour>
      <contour>
        <pt x="324" y="64" on="1"/>
        <pt x="336" y="62" on="0"/>
        <pt x="355" y="61" on="0"/>
        <pt x="369" y="61" on="1"/>
        <pt x="395" y="61" on="0"/>
        <pt x="445" y="83" on="0"/>
        <pt x="486" y="121" on="0"/>
        <pt x="513" y="172" on="0"/>
        <pt x="516" y="201" on="1"/>
        <pt x="520" y="238" on="0"/>
        <pt x="497" y="293" on="0"/>
        <pt x="448" y="329" on="0"/>
        <pt x="379" y="346" on="0"/>
        <pt x="339" y="346" on="1"/>
        <pt x="224" y="346" on="1"/>
        <pt x="182" y="0" on="1"/>
        <pt x="87" y="0" on="1"/>
        <pt x="175" y="718" on="1"/>
        <pt x="233" y="729" on="0"/>
        <pt x="333" y="740" on="0"/>
        <pt x="387" y="740" on="1"/>
        <pt x="451" y="740" on="0"/>
        <pt x="542" y="710" on="0"/>
        <pt x="599" y="658" on="0"/>
        <pt x="622" y="587" on="0"/>
        <pt x="617" y="547" on="1"/>
        <pt x="615" y="529" on="0"/>
        <pt x="600" y="488" on="0"/>
        <pt x="576" y="448" on="0"/>
        <pt x="544" y="414" on="0"/>
        <pt x="524" y="402" on="1"/>
        <pt x="493" y="388" on="1"/>
        <pt x="520" y="381" on="1"/>
        <pt x="574" y="354" on="0"/>
        <pt x="625" y="265" on="0"/>
        <pt x="618" y="205" on="1"/>
        <pt x="613" y="166" on="0"/>
        <pt x="572" y="89" on="0"/>
        <pt x="505" y="27" on="0"/>
        <pt x="414" y="-12" on="0"/>
        <pt x="360" y="-12" on="1"/>
        <pt x="331" y="-12" on="0"/>
        <pt x="266" y="-5" on="0"/>
        <pt x="222" y="6" on="1"/>
        <pt x="241" y="32" on="0"/>
        <pt x="291" y="70" on="0"/>
      </contour>
    </TTGlyph>
    <TTGlyph name="C" xMin="105" yMin="-12" xMax="697" yMax="740">
      <contour>
        <pt x="432" y="-12" on="1"/>
        <pt x="355" y="-12" on="0"/>
        <pt x="229" y="40" on="0"/>
        <pt x="144" y="137" on="0"/>
        <pt x="105" y="275" on="0"/>
        <pt x="116" y="362" on="1"/>
        <pt x="126" y="446" on="0"/>
        <pt x="198" y="585" on="0"/>
        <pt x="308" y="685" on="0"/>
        <pt x="447" y="740" on="0"/>
        <pt x="524" y="740" on="1"/>
        <pt x="566" y="740" on="0"/>
        <pt x="653" y="723" on="0"/>
        <pt x="697" y="706" on="1"/>
        <pt x="663" y="641" on="1"/>
        <pt x="621" y="655" on="0"/>
        <pt x="550" y="667" on="0"/>
        <pt x="515" y="667" on="1"/>
        <pt x="463" y="667" on="0"/>
        <pt x="365" y="629" on="0"/>
        <pt x="284" y="553" on="0"/>
        <pt x="227" y="438" on="0"/>
        <pt x="218" y="362" on="1"/>
        <pt x="210" y="294" on="0"/>
        <pt x="239" y="183" on="0"/>
        <pt x="300" y="103" on="0"/>
        <pt x="389" y="60" on="0"/>
        <pt x="441" y="60" on="1"/>
        <pt x="476" y="60" on="0"/>
        <pt x="552" y="78" on="0"/>
        <pt x="597" y="99" on="1"/>
        <pt x="615" y="34" on="1"/>
        <pt x="565" y="9" on="0"/>
        <pt x="474" y="-12" on="0"/>
      </contour>
    </TTGlyph>
    <TTGlyph name="Ccedilla" xMin="107" yMin="-206" xMax="697" yMax="740">
      <contour>
        <pt x="432" y="-12" on="1"/>
        <pt x="422" y="-12" on="0"/>
        <pt x="403" y="-11" on="0"/>
        <pt x="394" y="-10" on="1"/>
        <pt x="379" y="-50" on="1"/>
        <pt x="393" y="-52" on="0"/>
        <pt x="420" y="-63" on="0"/>
        <pt x="441" y="-82" on="0"/>
        <pt x="452" y="-108" on="0"/>
        <pt x="450" y="-123" on="1"/>
        <pt x="447" y="-146" on="0"/>
        <pt x="423" y="-177" on="0"/>
        <pt x="388" y="-197" on="0"/>
        <pt x="346" y="-206" on="0"/>
        <pt x="326" y="-206" on="1"/>
        <pt x="309" y="-206" on="0"/>
        <pt x="273" y="-198" on="0"/>
        <pt x="250" y="-187" on="1"/>
        <pt x="269" y="-144" on="1"/>
        <pt x="287" y="-152" on="0"/>
        <pt x="317" y="-157" on="0"/>
        <pt x="332" y="-157" on="1"/>
        <pt x="349" y="-157" on="0"/>
        <pt x="387" y="-144" on="0"/>
        <pt x="389" y="-126" on="1"/>
        <pt x="391" y="-107" on="0"/>
        <pt x="354" y="-88" on="0"/>
        <pt x="319" y="-84" on="1"/>
        <pt x="350" y="-4" on="1"/>
        <pt x="290" y="8" on="0"/>
        <pt x="196" y="70" on="0"/>
        <pt x="133" y="165" on="0"/>
        <pt x="107" y="288" on="0"/>
        <pt x="116" y="362" on="1"/>
        <pt x="126" y="446" on="0"/>
        <pt x="198" y="585" on="0"/>
        <pt x="308" y="685" on="0"/>
        <pt x="447" y="740" on="0"/>
        <pt x="524" y="740" on="1"/>
        <pt x="566" y="740" on="0"/>
        <pt x="653" y="723" on="0"/>
        <pt x="697" y="706" on="1"/>
        <pt x="663" y="641" on="1"/>
        <pt x="621" y="655" on="0"/>
        <pt x="550" y="667" on="0"/>
        <pt x="515" y="667" on="1"/>
        <pt x="463" y="667" on="0"/>
        <pt x="365" y="629" on="0"/>
        <pt x="284" y="553" on="0"/>
        <pt x="227" y="438" on="0"/>
        <pt x="218" y="362" on="1"/>
        <pt x="209" y="288" on="0"/>
        <pt x="238" y="176" on="0"/>
        <pt x="300" y="99" on="0"/>
        <pt x="389" y="60" on="0"/>
        <pt x="441" y="60" on="1"/>
        <pt x="476" y="60" on="0"/>
        <pt x="552" y="78" on="0"/>
        <pt x="597" y="99" on="1"/>
        <pt x="615" y="34" on="1"/>
        <pt x="565" y="9" on="0"/>
        <pt x="474" y="-12" on="0"/>
      </contour>
    </TTGlyph>
    <TTGlyph name="D" xMin="89" yMin="-12" xMax="748" yMax="740">
      <contour>
        <pt x="362" y="-12" on="1"/>
        <pt x="328" y="-12" on="0"/>
        <pt x="266" y="-6" on="0"/>
        <pt x="224" y="5" on="1"/>
        <pt x="241" y="31" on="0"/>
        <pt x="292" y="65" on="0"/>
        <pt x="325" y="62" on="1"/>
        <pt x="341" y="60" on="0"/>
        <pt x="358" y="60" on="0"/>
        <pt x="370" y="60" on="1"/>
        <pt x="418" y="60" on="0"/>
        <pt x="507" y="108" on="0"/>
        <pt x="579" y="191" on="0"/>
        <pt x="627" y="302" on="0"/>
        <pt x="635" y="365" on="1"/>
        <pt x="653" y="510" on="0"/>
        <pt x="525" y="667" on="0"/>
        <pt x="377" y="667" on="1"/>
        <pt x="347" y="667" on="0"/>
        <pt x="289" y="663" on="0"/>
        <pt x="265" y="660" on="1"/>
        <pt x="184" y="0" on="1"/>
        <pt x="89" y="0" on="1"/>
        <pt x="176" y="716" on="1"/>
        <pt x="200" y="722" on="0"/>
        <pt x="256" y="731" on="0"/>
        <pt x="311" y="737" on="0"/>
        <pt x="364" y="740" on="0"/>
        <pt x="386" y="740" on="1"/>
        <pt x="481" y="740" on="0"/>
        <pt x="623" y="689" on="0"/>
        <pt x="712" y="592" on="0"/>
        <pt x="748" y="453" on="0"/>
        <pt x="737" y="365" on="1"/>
        <pt x="727" y="283" on="0"/>
        <pt x="658" y="145" on="0"/>
        <pt x="555" y="44" on="0"/>
        <pt x="429" y="-12" on="0"/>
      </contour>
    </TTGlyph>
    <TTGlyph name="E" xMin="89" yMin="0" xMax="592" yMax="727">
      <contour>
        <pt x="178" y="727" on="1"/>
        <pt x="592" y="727" on="1"/>
        <pt x="583" y="655" on="1"/>
        <pt x="264" y="655" on="1"/>
        <pt x="192" y="72" on="1"/>
        <pt x="526" y="72" on="1"/>
        <pt x="518" y="0" on="1"/>
        <pt x="89" y="0" on="1"/>
      </contour>
      <contour>
        <pt x="520" y="416" on="1"/>
        <pt x="511" y="346" on="1"/>
        <pt x="264" y="346" on="1"/>
        <pt x="278" y="375" on="0"/>
        <pt x="323" y="416" on="0"/>
        <pt x="359" y="416" on="1"/>
      </contour>
    </TTGlyph>
    <TTGlyph name="Eacute" xMin="89" yMin="0" xMax="592" yMax="890">
      <contour>
        <pt x="178" y="727" on="1"/>
        <pt x="592" y="727" on="1"/>
        <pt x="583" y="655" on="1"/>
        <pt x="264" y="655" on="1"/>
        <pt x="192" y="72" on="1"/>
        <pt x="526" y="72" on="1"/>
        <pt x="518" y="0" on="1"/>
        <pt x="89" y="0" on="1"/>
      </contour>
      <contour>
        <pt x="520" y="416" on="1"/>
        <pt x="511" y="346" on="1"/>
        <pt x="264" y="346" on="1"/>
        <pt x="278" y="375" on="0"/>
        <pt x="323" y="416" on="0"/>
        <pt x="359" y="416" on="1"/>
      </contour>
      <contour>
        <pt x="444" y="792" on="1"/>
        <pt x="421" y="770" on="0"/>
        <pt x="368" y="760" on="0"/>
        <pt x="343" y="766" on="1"/>
        <pt x="447" y="890" on="1"/>
        <pt x="544" y="890" on="1"/>
      </contour>
    </TTGlyph>
    <TTGlyph name="Ecircumflex" xMin="89" yMin="0" xMax="592" yMax="890">
      <contour>
        <pt x="178" y="727" on="1"/>
        <pt x="592" y="727" on="1"/>
        <pt x="583" y="655" on="1"/>
        <pt x="264" y="655" on="1"/>
        <pt x="192" y="72" on="1"/>
        <pt x="526" y="72" on="1"/>
        <pt x="518" y="0" on="1"/>
        <pt x="89" y="0" on="1"/>
      </contour>
      <contour>
        <pt x="520" y="416" on="1"/>
        <pt x="511" y="346" on="1"/>
        <pt x="264" y="346" on="1"/>
        <pt x="278" y="375" on="0"/>
        <pt x="323" y="416" on="0"/>
        <pt x="359" y="416" on="1"/>
      </contour>
      <contour>
        <pt x="440" y="890" on="1"/>
        <pt x="536" y="770" on="1"/>
        <pt x="483" y="762" on="1"/>
        <pt x="402" y="821" on="1"/>
        <pt x="307" y="761" on="1"/>
        <pt x="259" y="770" on="1"/>
        <pt x="383" y="890" on="1"/>
      </contour>
    </TTGlyph>
    <TTGlyph name="Edieresis" xMin="89" yMin="0" xMax="592" yMax="892">
      <contour>
        <pt x="178" y="727" on="1"/>
        <pt x="592" y="727" on="1"/>
        <pt x="583" y="655" on="1"/>
        <pt x="264" y="655" on="1"/>
        <pt x="192" y="72" on="1"/>
        <pt x="526" y="72" on="1"/>
        <pt x="518" y="0" on="1"/>
        <pt x="89" y="0" on="1"/>
      </contour>
      <contour>
        <pt x="520" y="416" on="1"/>
        <pt x="511" y="346" on="1"/>
        <pt x="264" y="346" on="1"/>
        <pt x="278" y="375" on="0"/>
        <pt x="323" y="416" on="0"/>
        <pt x="359" y="416" on="1"/>
      </contour>
      <contour>
        <pt x="254" y="840" on="1"/>
        <pt x="256" y="862" on="0"/>
        <pt x="291" y="892" on="0"/>
        <pt x="312" y="892" on="1"/>
        <pt x="334" y="892" on="0"/>
        <pt x="361" y="862" on="0"/>
        <pt x="359" y="840" on="1"/>
        <pt x="356" y="818" on="0"/>
        <pt x="321" y="788" on="0"/>
        <pt x="299" y="788" on="1"/>
        <pt x="278" y="788" on="0"/>
        <pt x="251" y="818" on="0"/>
      </contour>
      <contour>
        <pt x="448" y="840" on="1"/>
        <pt x="450" y="862" on="0"/>
        <pt x="485" y="892" on="0"/>
        <pt x="507" y="892" on="1"/>
        <pt x="528" y="892" on="0"/>
        <pt x="555" y="862" on="0"/>
        <pt x="553" y="840" on="1"/>
        <pt x="550" y="818" on="0"/>
        <pt x="515" y="788" on="0"/>
        <pt x="494" y="788" on="1"/>
        <pt x="472" y="788" on="0"/>
        <pt x="445" y="818" on="0"/>
      </contour>
    </TTGlyph>
    <TTGlyph name="Egrave" xMin="89" yMin="0" xMax="592" yMax="890">
      <contour>
        <pt x="178" y="727" on="1"/>
        <pt x="592" y="727" on="1"/>
        <pt x="583" y="655" on="1"/>
        <pt x="264" y="655" on="1"/>
        <pt x="192" y="72" on="1"/>
        <pt x="526" y="72" on="1"/>
        <pt x="518" y="0" on="1"/>
        <pt x="89" y="0" on="1"/>
      </contour>
      <contour>
        <pt x="520" y="416" on="1"/>
        <pt x="511" y="346" on="1"/>
        <pt x="264" y="346" on="1"/>
        <pt x="278" y="375" on="0"/>
        <pt x="323" y="416" on="0"/>
        <pt x="359" y="416" on="1"/>
      </contour>
      <contour>
        <pt x="297" y="890" on="1"/>
        <pt x="391" y="890" on="1"/>
        <pt x="450" y="766" on="1"/>
        <pt x="424" y="760" on="0"/>
        <pt x="372" y="770" on="0"/>
        <pt x="358" y="792" on="1"/>
      </contour>
    </TTGlyph>
    <TTGlyph name="Eth" xMin="46" yMin="-12" xMax="747" yMax="740">
      <contour>
        <pt x="54" y="388" on="1"/>
        <pt x="136" y="388" on="1"/>
        <pt x="176" y="716" on="1"/>
        <pt x="200" y="722" on="0"/>
        <pt x="256" y="731" on="0"/>
        <pt x="311" y="737" on="0"/>
        <pt x="364" y="740" on="0"/>
        <pt x="386" y="740" on="1"/>
        <pt x="481" y="740" on="0"/>
        <pt x="623" y="686" on="0"/>
        <pt x="712" y="587" on="0"/>
        <pt x="747" y="449" on="0"/>
        <pt x="737" y="365" on="1"/>
        <pt x="727" y="283" on="0"/>
        <pt x="658" y="145" on="0"/>
        <pt x="555" y="44" on="0"/>
        <pt x="429" y="-12" on="0"/>
        <pt x="362" y="-12" on="1"/>
        <pt x="328" y="-12" on="0"/>
        <pt x="266" y="-6" on="0"/>
        <pt x="224" y="5" on="1"/>
        <pt x="241" y="31" on="0"/>
        <pt x="292" y="65" on="0"/>
        <pt x="325" y="62" on="1"/>
        <pt x="341" y="60" on="0"/>
        <pt x="358" y="60" on="0"/>
        <pt x="370" y="60" on="1"/>
        <pt x="418" y="60" on="0"/>
        <pt x="507" y="108" on="0"/>
        <pt x="579" y="191" on="0"/>
        <pt x="627" y="302" on="0"/>
        <pt x="635" y="365" on="1"/>
        <pt x="653" y="510" on="0"/>
        <pt x="525" y="667" on="0"/>
        <pt x="377" y="667" on="1"/>
        <pt x="347" y="667" on="0"/>
        <pt x="289" y="663" on="0"/>
        <pt x="265" y="660" on="1"/>
        <pt x="231" y="388" on="1"/>
        <pt x="458" y="388" on="1"/>
        <pt x="450" y="323" on="1"/>
        <pt x="223" y="323" on="1"/>
        <pt x="184" y="0" on="1"/>
        <pt x="89" y="0" on="1"/>
        <pt x="128" y="323" on="1"/>
        <pt x="46" y="323" on="1"/>
      </contour>
    </TTGlyph>
    <TTGlyph name="Euro" xMin="22" yMin="-10" xMax="598" yMax="714">
      <contour>
        <pt x="30" y="314" on="1"/>
        <pt x="101" y="314" on="1"/>
        <pt x="101" y="322" on="0"/>
        <pt x="103" y="341" on="0"/>
        <pt x="104" y="350" on="1"/>
        <pt x="106" y="364" on="0"/>
        <pt x="110" y="388" on="0"/>
        <pt x="113" y="401" on="1"/>
        <pt x="41" y="401" on="1"/>
        <pt x="49" y="466" on="1"/>
        <pt x="131" y="466" on="1"/>
        <pt x="151" y="523" on="0"/>
        <pt x="214" y="615" on="0"/>
        <pt x="293" y="679" on="0"/>
        <pt x="388" y="714" on="0"/>
        <pt x="441" y="714" on="1"/>
        <pt x="483" y="714" on="0"/>
        <pt x="552" y="701" on="0"/>
        <pt x="598" y="683" on="1"/>
        <pt x="564" y="617" on="1"/>
        <pt x="524" y="633" on="0"/>
        <pt x="462" y="642" on="0"/>
        <pt x="432" y="642" on="1"/>
        <pt x="390" y="642" on="0"/>
        <pt x="311" y="601" on="0"/>
        <pt x="247" y="525" on="0"/>
        <pt x="202" y="417" on="0"/>
        <pt x="194" y="350" on="1"/>
        <pt x="193" y="341" on="0"/>
        <pt x="191" y="322" on="0"/>
        <pt x="191" y="314" on="1"/>
        <pt x="470" y="314" on="1"/>
        <pt x="462" y="249" on="1"/>
        <pt x="193" y="249" on="1"/>
        <pt x="203" y="160" on="0"/>
        <pt x="294" y="62" on="0"/>
        <pt x="361" y="62" on="1"/>
        <pt x="396" y="62" on="0"/>
        <pt x="457" y="73" on="0"/>
        <pt x="499" y="88" on="1"/>
        <pt x="517" y="21" on="1"/>
        <pt x="471" y="4" on="0"/>
        <pt x="394" y="-10" on="0"/>
        <pt x="352" y="-10" on="1"/>
        <pt x="298" y="-10" on="0"/>
        <pt x="210" y="26" on="0"/>
        <pt x="146" y="94" on="0"/>
        <pt x="107" y="189" on="0"/>
        <pt x="102" y="249" on="1"/>
        <pt x="22" y="249" on="1"/>
      </contour>
      <contour>
        <pt x="489" y="466" on="1"/>
        <pt x="481" y="401" on="1"/>
        <pt x="241" y="401" on="1"/>
        <pt x="254" y="430" on="0"/>
        <pt x="298" y="466" on="0"/>
        <pt x="333" y="466" on="1"/>
      </contour>
    </TTGlyph>
    <TTGlyph name="F" xMin="89" yMin="0" xMax="592" yMax="727">
      <contour>
        <pt x="178" y="727" on="1"/>
        <pt x="592" y="727" on="1"/>
        <pt x="583" y="655" on="1"/>
        <pt x="264" y="655" on="1"/>
        <pt x="184" y="0" on="1"/>
        <pt x="89" y="0" on="1"/>
      </contour>
      <contour>
        <pt x="520" y="416" on="1"/>
        <pt x="511" y="346" on="1"/>
        <pt x="264" y="346" on="1"/>
        <pt x="278" y="375" on="0"/>
        <pt x="323" y="416" on="0"/>
        <pt x="359" y="416" on="1"/>
      </contour>
    </TTGlyph>
    <TTGlyph name="G" xMin="68" yMin="-12" xMax="693" yMax="740">
      <contour>
        <pt x="491" y="667" on="1"/>
        <pt x="439" y="667" on="0"/>
        <pt x="336" y="630" on="0"/>
        <pt x="251" y="554" on="0"/>
        <pt x="190" y="440" on="0"/>
        <pt x="181" y="363" on="1"/>
        <pt x="172" y="286" on="0"/>
        <pt x="204" y="173" on="0"/>
        <pt x="272" y="97" on="0"/>
        <pt x="365" y="60" on="0"/>
        <pt x="417" y="60" on="1"/>
        <pt x="439" y="60" on="0"/>
        <pt x="496" y="66" on="0"/>
        <pt x="531" y="77" on="1"/>
        <pt x="563" y="337" on="1"/>
        <pt x="655" y="337" on="1"/>
        <pt x="618" y="37" on="1"/>
        <pt x="560" y="8" on="0"/>
        <pt x="451" y="-12" on="0"/>
        <pt x="408" y="-12" on="1"/>
        <pt x="331" y="-12" on="0"/>
        <pt x="201" y="39" on="0"/>
        <pt x="111" y="136" on="0"/>
        <pt x="68" y="275" on="0"/>
        <pt x="79" y="363" on="1"/>
        <pt x="89" y="447" on="0"/>
        <pt x="166" y="586" on="0"/>
        <pt x="280" y="685" on="0"/>
        <pt x="423" y="740" on="0"/>
        <pt x="500" y="740" on="1"/>
        <pt x="543" y="740" on="0"/>
        <pt x="643" y="721" on="0"/>
        <pt x="693" y="696" on="1"/>
        <pt x="659" y="631" on="1"/>
        <pt x="608" y="654" on="0"/>
        <pt x="526" y="667" on="0"/>
      </contour>
    </TTGlyph>
    <TTGlyph name="H" xMin="89" yMin="0" xMax="732" yMax="727">
      <contour>
        <pt x="599" y="416" on="1"/>
        <pt x="637" y="727" on="1"/>
        <pt x="732" y="727" on="1"/>
        <pt x="643" y="0" on="1"/>
        <pt x="548" y="0" on="1"/>
        <pt x="590" y="346" on="1"/>
        <pt x="264" y="346" on="1"/>
        <pt x="278" y="375" on="0"/>
        <pt x="323" y="416" on="0"/>
        <pt x="358" y="416" on="1"/>
      </contour>
      <contour>
        <pt x="178" y="727" on="1"/>
        <pt x="273" y="727" on="1"/>
        <pt x="184" y="0" on="1"/>
        <pt x="89" y="0" on="1"/>
      </contour>
    </TTGlyph>
    <TTGlyph name="I" xMin="89" yMin="0" xMax="270" yMax="727">
      <contour>
        <pt x="181" y="0" on="1"/>
        <pt x="89" y="0" on="1"/>
        <pt x="178" y="727" on="1"/>
        <pt x="270" y="727" on="1"/>
      </contour>
    </TTGlyph>
    <TTGlyph name="Iacute" xMin="89" yMin="0" xMax="379" yMax="890">
      <contour>
        <pt x="181" y="0" on="1"/>
        <pt x="89" y="0" on="1"/>
        <pt x="178" y="727" on="1"/>
        <pt x="270" y="727" on="1"/>
      </contour>
      <contour>
        <pt x="279" y="792" on="1"/>
        <pt x="256" y="770" on="0"/>
        <pt x="203" y="760" on="0"/>
        <pt x="178" y="766" on="1"/>
        <pt x="282" y="890" on="1"/>
        <pt x="379" y="890" on="1"/>
      </contour>
    </TTGlyph>
    <TTGlyph name="Icircumflex" xMin="113" yMin="0" xMax="393" yMax="890">
      <contour>
        <pt x="205" y="0" on="1"/>
        <pt x="113" y="0" on="1"/>
        <pt x="202" y="727" on="1"/>
        <pt x="294" y="727" on="1"/>
      </contour>
      <contour>
        <pt x="297" y="890" on="1"/>
        <pt x="393" y="770" on="1"/>
        <pt x="340" y="762" on="1"/>
        <pt x="259" y="821" on="1"/>
        <pt x="164" y="761" on="1"/>
        <pt x="116" y="770" on="1"/>
        <pt x="240" y="890" on="1"/>
      </contour>
    </TTGlyph>
    <TTGlyph name="Idieresis" xMin="123" yMin="0" xMax="427" yMax="892">
      <contour>
        <pt x="218" y="0" on="1"/>
        <pt x="126" y="0" on="1"/>
        <pt x="215" y="727" on="1"/>
        <pt x="307" y="727" on="1"/>
      </contour>
      <contour>
        <pt x="126" y="840" on="1"/>
        <pt x="128" y="862" on="0"/>
        <pt x="163" y="892" on="0"/>
        <pt x="184" y="892" on="1"/>
        <pt x="206" y="892" on="0"/>
        <pt x="233" y="862" on="0"/>
        <pt x="231" y="840" on="1"/>
        <pt x="228" y="818" on="0"/>
        <pt x="193" y="788" on="0"/>
        <pt x="171" y="788" on="1"/>
        <pt x="150" y="788" on="0"/>
        <pt x="123" y="818" on="0"/>
      </contour>
      <contour>
        <pt x="320" y="840" on="1"/>
        <pt x="322" y="862" on="0"/>
        <pt x="357" y="892" on="0"/>
        <pt x="379" y="892" on="1"/>
        <pt x="400" y="892" on="0"/>
        <pt x="427" y="862" on="0"/>
        <pt x="425" y="840" on="1"/>
        <pt x="422" y="818" on="0"/>
        <pt x="387" y="788" on="0"/>
        <pt x="366" y="788" on="1"/>
        <pt x="344" y="788" on="0"/>
        <pt x="317" y="818" on="0"/>
      </contour>
    </TTGlyph>
    <TTGlyph name="Igrave" xMin="98" yMin="0" xMax="289" yMax="890">
      <contour>
        <pt x="190" y="0" on="1"/>
        <pt x="98" y="0" on="1"/>
        <pt x="187" y="727" on="1"/>
        <pt x="279" y="727" on="1"/>
      </contour>
      <contour>
        <pt x="136" y="890" on="1"/>
        <pt x="230" y="890" on="1"/>
        <pt x="289" y="766" on="1"/>
        <pt x="263" y="760" on="0"/>
        <pt x="211" y="770" on="0"/>
        <pt x="197" y="792" on="1"/>
      </contour>
    </TTGlyph>
    <TTGlyph name="J" xMin="-24" yMin="-208" xMax="350" yMax="727">
      <contour>
        <pt x="276" y="128" on="1"/>
        <pt x="268" y="62" on="0"/>
        <pt x="225" y="-33" on="0"/>
        <pt x="157" y="-108" on="0"/>
        <pt x="66" y="-173" on="0"/>
        <pt x="9" y="-208" on="1"/>
        <pt x="-24" y="-157" on="1"/>
        <pt x="17" y="-126" on="0"/>
        <pt x="85" y="-73" on="0"/>
        <pt x="138" y="-11" on="0"/>
        <pt x="173" y="69" on="0"/>
        <pt x="180" y="128" on="1"/>
        <pt x="254" y="727" on="1"/>
        <pt x="350" y="727" on="1"/>
      </contour>
    </TTGlyph>
    <TTGlyph name="K" xMin="89" yMin="0" xMax="697" yMax="727">
      <contour>
        <pt x="435" y="433" on="1"/>
        <pt x="641" y="0" on="1"/>
        <pt x="526" y="0" on="1"/>
        <pt x="374" y="347" on="1"/>
        <pt x="369" y="365" on="1"/>
        <pt x="358" y="347" on="1"/>
        <pt x="266" y="243" on="1"/>
        <pt x="261" y="258" on="0"/>
        <pt x="263" y="299" on="0"/>
        <pt x="275" y="345" on="0"/>
        <pt x="299" y="391" on="0"/>
        <pt x="317" y="412" on="1"/>
        <pt x="589" y="727" on="1"/>
        <pt x="697" y="727" on="1"/>
      </contour>
      <contour>
        <pt x="89" y="0" on="1"/>
        <pt x="178" y="727" on="1"/>
        <pt x="273" y="727" on="1"/>
        <pt x="184" y="0" on="1"/>
      </contour>
    </TTGlyph>
    <TTGlyph name="L" xMin="89" yMin="0" xMax="497" yMax="727">
      <contour>
        <pt x="178" y="727" on="1"/>
        <pt x="274" y="727" on="1"/>
        <pt x="193" y="73" on="1"/>
        <pt x="497" y="73" on="1"/>
        <pt x="488" y="0" on="1"/>
        <pt x="89" y="0" on="1"/>
      </contour>
    </TTGlyph>
    <TTGlyph name="M" xMin="69" yMin="0" xMax="889" yMax="727">
      <contour>
        <pt x="239" y="727" on="1"/>
        <pt x="362" y="727" on="1"/>
        <pt x="485" y="143" on="1"/>
        <pt x="488" y="112" on="1"/>
        <pt x="499" y="143" on="1"/>
        <pt x="766" y="727" on="1"/>
        <pt x="889" y="727" on="1"/>
        <pt x="880" y="0" on="1"/>
        <pt x="789" y="0" on="1"/>
        <pt x="803" y="582" on="1"/>
        <pt x="805" y="625" on="1"/>
        <pt x="788" y="582" on="1"/>
        <pt x="520" y="10" on="1"/>
        <pt x="431" y="10" on="1"/>
        <pt x="302" y="583" on="1"/>
        <pt x="294" y="625" on="1"/>
        <pt x="286" y="583" on="1"/>
        <pt x="159" y="0" on="1"/>
        <pt x="69" y="0" on="1"/>
      </contour>
    </TTGlyph>
    <TTGlyph name="N" xMin="104" yMin="0" xMax="735" yMax="727">
      <contour>
        <pt x="268" y="581" on="1"/>
        <pt x="258" y="615" on="1"/>
        <pt x="256" y="581" on="1"/>
        <pt x="185" y="0" on="1"/>
        <pt x="104" y="0" on="1"/>
        <pt x="193" y="727" on="1"/>
        <pt x="288" y="727" on="1"/>
        <pt x="572" y="163" on="1"/>
        <pt x="579" y="130" on="1"/>
        <pt x="582" y="165" on="1"/>
        <pt x="651" y="727" on="1"/>
        <pt x="735" y="727" on="1"/>
        <pt x="646" y="0" on="1"/>
        <pt x="561" y="0" on="1"/>
      </contour>
    </TTGlyph>
    <TTGlyph name="Ntilde" xMin="104" yMin="0" xMax="735" yMax="893">
      <contour>
        <pt x="268" y="581" on="1"/>
        <pt x="258" y="615" on="1"/>
        <pt x="256" y="581" on="1"/>
        <pt x="185" y="0" on="1"/>
        <pt x="104" y="0" on="1"/>
        <pt x="193" y="727" on="1"/>
        <pt x="288" y="727" on="1"/>
        <pt x="572" y="163" on="1"/>
        <pt x="579" y="130" on="1"/>
        <pt x="582" y="165" on="1"/>
        <pt x="651" y="727" on="1"/>
        <pt x="735" y="727" on="1"/>
        <pt x="646" y="0" on="1"/>
        <pt x="561" y="0" on="1"/>
      </contour>
      <contour>
        <pt x="329" y="783" on="1"/>
        <pt x="337" y="840" on="0"/>
        <pt x="395" y="890" on="0"/>
        <pt x="431" y="891" on="1"/>
        <pt x="468" y="891" on="0"/>
        <pt x="492" y="867" on="1"/>
        <pt x="504" y="855" on="0"/>
        <pt x="522" y="835" on="0"/>
        <pt x="542" y="835" on="1"/>
        <pt x="569" y="835" on="0"/>
        <pt x="580" y="893" on="1"/>
        <pt x="632" y="887" on="1"/>
        <pt x="627" y="855" on="0"/>
        <pt x="606" y="814" on="0"/>
        <pt x="579" y="789" on="0"/>
        <pt x="549" y="779" on="0"/>
        <pt x="535" y="779" on="1"/>
        <pt x="495" y="779" on="0"/>
        <pt x="473" y="802" on="1"/>
        <pt x="460" y="814" on="0"/>
        <pt x="442" y="835" on="0"/>
        <pt x="425" y="835" on="1"/>
        <pt x="412" y="835" on="0"/>
        <pt x="389" y="809" on="0"/>
        <pt x="383" y="777" on="1"/>
      </contour>
    </TTGlyph>
    <TTGlyph name="O" xMin="78" yMin="-14" xMax="772" yMax="742">
      <contour>
        <pt x="89" y="364" on="1"/>
        <pt x="101" y="460" on="0"/>
        <pt x="180" y="602" on="0"/>
        <pt x="289" y="696" on="0"/>
        <pt x="414" y="742" on="0"/>
        <pt x="473" y="742" on="1"/>
        <pt x="554" y="742" on="0"/>
        <pt x="672" y="682" on="0"/>
        <pt x="745" y="579" on="0"/>
        <pt x="772" y="441" on="0"/>
        <pt x="763" y="364" on="1"/>
        <pt x="752" y="277" on="0"/>
        <pt x="681" y="138" on="0"/>
        <pt x="577" y="39" on="0"/>
        <pt x="448" y="-14" on="0"/>
        <pt x="380" y="-14" on="1"/>
        <pt x="310" y="-14" on="0"/>
        <pt x="193" y="38" on="0"/>
        <pt x="114" y="135" on="0"/>
        <pt x="78" y="275" on="0"/>
      </contour>
      <contour>
        <pt x="191" y="364" on="1"/>
        <pt x="183" y="296" on="0"/>
        <pt x="205" y="184" on="0"/>
        <pt x="258" y="103" on="0"/>
        <pt x="338" y="58" on="0"/>
        <pt x="389" y="58" on="1"/>
        <pt x="442" y="58" on="0"/>
        <pt x="534" y="106" on="0"/>
        <pt x="606" y="188" on="0"/>
        <pt x="653" y="300" on="0"/>
        <pt x="661" y="364" on="1"/>
        <pt x="670" y="434" on="0"/>
        <pt x="646" y="547" on="0"/>
        <pt x="592" y="627" on="0"/>
        <pt x="512" y="669" on="0"/>
        <pt x="464" y="669" on="1"/>
        <pt x="416" y="669" on="0"/>
        <pt x="325" y="627" on="0"/>
        <pt x="251" y="547" on="0"/>
        <pt x="200" y="434" on="0"/>
      </contour>
    </TTGlyph>
    <TTGlyph name="OE" xMin="78" yMin="-14" xMax="1003" yMax="742">
      <contour>
        <pt x="380" y="-14" on="1"/>
        <pt x="310" y="-14" on="0"/>
        <pt x="193" y="38" on="0"/>
        <pt x="114" y="135" on="0"/>
        <pt x="78" y="275" on="0"/>
        <pt x="89" y="364" on="1"/>
        <pt x="100" y="451" on="0"/>
        <pt x="172" y="590" on="0"/>
        <pt x="277" y="689" on="0"/>
        <pt x="405" y="742" on="0"/>
        <pt x="473" y="742" on="1"/>
        <pt x="502" y="742" on="0"/>
        <pt x="581" y="727" on="0"/>
        <pt x="619" y="727" on="1"/>
        <pt x="1003" y="727" on="1"/>
        <pt x="994" y="655" on="1"/>
        <pt x="675" y="655" on="1"/>
        <pt x="603" y="72" on="1"/>
        <pt x="937" y="72" on="1"/>
        <pt x="929" y="0" on="1"/>
        <pt x="530" y="0" on="1"/>
        <pt x="510" y="0" on="0"/>
        <pt x="467" y="-4" on="0"/>
        <pt x="427" y="-10" on="0"/>
        <pt x="392" y="-14" on="0"/>
      </contour>
      <contour>
        <pt x="464" y="669" on="1"/>
        <pt x="416" y="669" on="0"/>
        <pt x="325" y="627" on="0"/>
        <pt x="251" y="547" on="0"/>
        <pt x="200" y="434" on="0"/>
        <pt x="191" y="364" on="1"/>
        <pt x="182" y="293" on="0"/>
        <pt x="206" y="179" on="0"/>
        <pt x="261" y="100" on="0"/>
        <pt x="341" y="58" on="0"/>
        <pt x="389" y="58" on="1"/>
        <pt x="415" y="58" on="0"/>
        <pt x="476" y="66" on="0"/>
        <pt x="509" y="77" on="1"/>
        <pt x="579" y="650" on="1"/>
        <pt x="553" y="659" on="0"/>
        <pt x="490" y="669" on="0"/>
      </contour>
      <contour>
        <pt x="931" y="416" on="1"/>
        <pt x="922" y="346" on="1"/>
        <pt x="675" y="346" on="1"/>
        <pt x="689" y="375" on="0"/>
        <pt x="734" y="416" on="0"/>
        <pt x="770" y="416" on="1"/>
      </contour>
    </TTGlyph>
    <TTGlyph name="Oacute" xMin="78" yMin="-14" xMax="774" yMax="890">
      <contour>
        <pt x="763" y="364" on="1"/>
        <pt x="752" y="277" on="0"/>
        <pt x="681" y="138" on="0"/>
        <pt x="577" y="39" on="0"/>
        <pt x="448" y="-14" on="0"/>
        <pt x="380" y="-14" on="1"/>
        <pt x="310" y="-14" on="0"/>
        <pt x="193" y="38" on="0"/>
        <pt x="114" y="135" on="0"/>
        <pt x="78" y="275" on="0"/>
        <pt x="89" y="364" on="1"/>
        <pt x="100" y="451" on="0"/>
        <pt x="172" y="590" on="0"/>
        <pt x="277" y="689" on="0"/>
        <pt x="405" y="742" on="0"/>
        <pt x="473" y="742" on="1"/>
        <pt x="544" y="742" on="0"/>
        <pt x="660" y="690" on="0"/>
        <pt x="739" y="592" on="0"/>
        <pt x="774" y="452" on="0"/>
      </contour>
      <contour>
        <pt x="661" y="364" on="1"/>
        <pt x="670" y="434" on="0"/>
        <pt x="646" y="547" on="0"/>
        <pt x="592" y="627" on="0"/>
        <pt x="512" y="669" on="0"/>
        <pt x="464" y="669" on="1"/>
        <pt x="416" y="669" on="0"/>
        <pt x="325" y="627" on="0"/>
        <pt x="251" y="547" on="0"/>
        <pt x="200" y="434" on="0"/>
        <pt x="191" y="364" on="1"/>
        <pt x="182" y="293" on="0"/>
        <pt x="206" y="179" on="0"/>
        <pt x="261" y="100" on="0"/>
        <pt x="341" y="58" on="0"/>
        <pt x="389" y="58" on="1"/>
        <pt x="437" y="58" on="0"/>
        <pt x="528" y="100" on="0"/>
        <pt x="601" y="179" on="0"/>
        <pt x="652" y="293" on="0"/>
      </contour>
      <contour>
        <pt x="540" y="792" on="1"/>
        <pt x="517" y="770" on="0"/>
        <pt x="464" y="760" on="0"/>
        <pt x="439" y="766" on="1"/>
        <pt x="543" y="890" on="1"/>
        <pt x="640" y="890" on="1"/>
      </contour>
    </TTGlyph>
    <TTGlyph name="Ocircumflex" xMin="78" yMin="-14" xMax="774" yMax="890">
      <contour>
        <pt x="763" y="364" on="1"/>
        <pt x="752" y="277" on="0"/>
        <pt x="681" y="138" on="0"/>
        <pt x="577" y="39" on="0"/>
        <pt x="448" y="-14" on="0"/>
        <pt x="380" y="-14" on="1"/>
        <pt x="310" y="-14" on="0"/>
        <pt x="193" y="38" on="0"/>
        <pt x="114" y="135" on="0"/>
        <pt x="78" y="275" on="0"/>
        <pt x="89" y="364" on="1"/>
        <pt x="100" y="451" on="0"/>
        <pt x="172" y="590" on="0"/>
        <pt x="277" y="689" on="0"/>
        <pt x="405" y="742" on="0"/>
        <pt x="473" y="742" on="1"/>
        <pt x="544" y="742" on="0"/>
        <pt x="660" y="690" on="0"/>
        <pt x="739" y="592" on="0"/>
        <pt x="774" y="452" on="0"/>
      </contour>
      <contour>
        <pt x="661" y="364" on="1"/>
        <pt x="670" y="434" on="0"/>
        <pt x="646" y="547" on="0"/>
        <pt x="592" y="627" on="0"/>
        <pt x="512" y="669" on="0"/>
        <pt x="464" y="669" on="1"/>
        <pt x="416" y="669" on="0"/>
        <pt x="325" y="627" on="0"/>
        <pt x="251" y="547" on="0"/>
        <pt x="200" y="434" on="0"/>
        <pt x="191" y="364" on="1"/>
        <pt x="182" y="293" on="0"/>
        <pt x="206" y="179" on="0"/>
        <pt x="261" y="100" on="0"/>
        <pt x="341" y="58" on="0"/>
        <pt x="389" y="58" on="1"/>
        <pt x="437" y="58" on="0"/>
        <pt x="528" y="100" on="0"/>
        <pt x="601" y="179" on="0"/>
        <pt x="652" y="293" on="0"/>
      </contour>
      <contour>
        <pt x="521" y="890" on="1"/>
        <pt x="617" y="770" on="1"/>
        <pt x="564" y="762" on="1"/>
        <pt x="483" y="821" on="1"/>
        <pt x="388" y="761" on="1"/>
        <pt x="340" y="770" on="1"/>
        <pt x="464" y="890" on="1"/>
      </contour>
    </TTGlyph>
    <TTGlyph name="Odieresis" xMin="78" yMin="-14" xMax="774" yMax="892">
      <contour>
        <pt x="763" y="364" on="1"/>
        <pt x="752" y="277" on="0"/>
        <pt x="681" y="138" on="0"/>
        <pt x="577" y="39" on="0"/>
        <pt x="448" y="-14" on="0"/>
        <pt x="380" y="-14" on="1"/>
        <pt x="310" y="-14" on="0"/>
        <pt x="193" y="38" on="0"/>
        <pt x="114" y="135" on="0"/>
        <pt x="78" y="275" on="0"/>
        <pt x="89" y="364" on="1"/>
        <pt x="100" y="451" on="0"/>
        <pt x="172" y="590" on="0"/>
        <pt x="277" y="689" on="0"/>
        <pt x="405" y="742" on="0"/>
        <pt x="473" y="742" on="1"/>
        <pt x="544" y="742" on="0"/>
        <pt x="660" y="690" on="0"/>
        <pt x="739" y="592" on="0"/>
        <pt x="774" y="452" on="0"/>
      </contour>
      <contour>
        <pt x="661" y="364" on="1"/>
        <pt x="670" y="434" on="0"/>
        <pt x="646" y="547" on="0"/>
        <pt x="592" y="627" on="0"/>
        <pt x="512" y="669" on="0"/>
        <pt x="464" y="669" on="1"/>
        <pt x="416" y="669" on="0"/>
        <pt x="325" y="627" on="0"/>
        <pt x="251" y="547" on="0"/>
        <pt x="200" y="434" on="0"/>
        <pt x="191" y="364" on="1"/>
        <pt x="182" y="293" on="0"/>
        <pt x="206" y="179" on="0"/>
        <pt x="261" y="100" on="0"/>
        <pt x="341" y="58" on="0"/>
        <pt x="389" y="58" on="1"/>
        <pt x="437" y="58" on="0"/>
        <pt x="528" y="100" on="0"/>
        <pt x="601" y="179" on="0"/>
        <pt x="652" y="293" on="0"/>
      </contour>
      <contour>
        <pt x="337" y="840" on="1"/>
        <pt x="339" y="862" on="0"/>
        <pt x="374" y="892" on="0"/>
        <pt x="395" y="892" on="1"/>
        <pt x="417" y="892" on="0"/>
        <pt x="444" y="862" on="0"/>
        <pt x="442" y="840" on="1"/>
        <pt x="439" y="818" on="0"/>
        <pt x="404" y="788" on="0"/>
        <pt x="382" y="788" on="1"/>
        <pt x="361" y="788" on="0"/>
        <pt x="334" y="818" on="0"/>
      </contour>
      <contour>
        <pt x="531" y="840" on="1"/>
        <pt x="533" y="862" on="0"/>
        <pt x="568" y="892" on="0"/>
        <pt x="590" y="892" on="1"/>
        <pt x="611" y="892" on="0"/>
        <pt x="638" y="862" on="0"/>
        <pt x="636" y="840" on="1"/>
        <pt x="633" y="818" on="0"/>
        <pt x="598" y="788" on="0"/>
        <pt x="577" y="788" on="1"/>
        <pt x="555" y="788" on="0"/>
        <pt x="528" y="818" on="0"/>
      </contour>
    </TTGlyph>
    <TTGlyph name="Ograve" xMin="78" yMin="-14" xMax="774" yMax="890">
      <contour>
        <pt x="763" y="364" on="1"/>
        <pt x="752" y="277" on="0"/>
        <pt x="681" y="138" on="0"/>
        <pt x="577" y="39" on="0"/>
        <pt x="448" y="-14" on="0"/>
        <pt x="380" y="-14" on="1"/>
        <pt x="310" y="-14" on="0"/>
        <pt x="193" y="38" on="0"/>
        <pt x="114" y="135" on="0"/>
        <pt x="78" y="275" on="0"/>
        <pt x="89" y="364" on="1"/>
        <pt x="100" y="451" on="0"/>
        <pt x="172" y="590" on="0"/>
        <pt x="277" y="689" on="0"/>
        <pt x="405" y="742" on="0"/>
        <pt x="473" y="742" on="1"/>
        <pt x="544" y="742" on="0"/>
        <pt x="660" y="690" on="0"/>
        <pt x="739" y="592" on="0"/>
        <pt x="774" y="452" on="0"/>
      </contour>
      <contour>
        <pt x="661" y="364" on="1"/>
        <pt x="670" y="434" on="0"/>
        <pt x="646" y="547" on="0"/>
        <pt x="592" y="627" on="0"/>
        <pt x="512" y="669" on="0"/>
        <pt x="464" y="669" on="1"/>
        <pt x="416" y="669" on="0"/>
        <pt x="325" y="627" on="0"/>
        <pt x="251" y="547" on="0"/>
        <pt x="200" y="434" on="0"/>
        <pt x="191" y="364" on="1"/>
        <pt x="182" y="293" on="0"/>
        <pt x="206" y="179" on="0"/>
        <pt x="261" y="100" on="0"/>
        <pt x="341" y="58" on="0"/>
        <pt x="389" y="58" on="1"/>
        <pt x="437" y="58" on="0"/>
        <pt x="528" y="100" on="0"/>
        <pt x="601" y="179" on="0"/>
        <pt x="652" y="293" on="0"/>
      </contour>
      <contour>
        <pt x="346" y="890" on="1"/>
        <pt x="440" y="890" on="1"/>
        <pt x="499" y="766" on="1"/>
        <pt x="473" y="760" on="0"/>
        <pt x="421" y="770" on="0"/>
        <pt x="407" y="792" on="1"/>
      </contour>
    </TTGlyph>
    <TTGlyph name="Oslash" xMin="77" yMin="-60" xMax="776" yMax="789">
      <contour>
        <pt x="677" y="665" on="1"/>
        <pt x="728" y="616" on="0"/>
        <pt x="776" y="464" on="0"/>
        <pt x="763" y="364" on="1"/>
        <pt x="752" y="277" on="0"/>
        <pt x="681" y="138" on="0"/>
        <pt x="577" y="39" on="0"/>
        <pt x="448" y="-14" on="0"/>
        <pt x="380" y="-14" on="1"/>
        <pt x="294" y="-14" on="0"/>
        <pt x="227" y="24" on="1"/>
        <pt x="168" y="-60" on="1"/>
        <pt x="89" y="-60" on="1"/>
        <pt x="176" y="62" on="1"/>
        <pt x="125" y="110" on="0"/>
        <pt x="77" y="263" on="0"/>
        <pt x="89" y="364" on="1"/>
        <pt x="100" y="451" on="0"/>
        <pt x="172" y="590" on="0"/>
        <pt x="277" y="689" on="0"/>
        <pt x="405" y="742" on="0"/>
        <pt x="473" y="742" on="1"/>
        <pt x="558" y="742" on="0"/>
        <pt x="625" y="704" on="1"/>
        <pt x="686" y="789" on="1"/>
        <pt x="765" y="789" on="1"/>
      </contour>
      <contour>
        <pt x="664" y="364" on="1"/>
        <pt x="673" y="434" on="0"/>
        <pt x="647" y="546" on="0"/>
        <pt x="620" y="586" on="1"/>
        <pt x="297" y="133" on="1"/>
        <pt x="282" y="153" on="0"/>
        <pt x="272" y="211" on="0"/>
        <pt x="292" y="240" on="1"/>
        <pt x="576" y="635" on="1"/>
        <pt x="553" y="652" on="0"/>
        <pt x="496" y="671" on="0"/>
        <pt x="464" y="671" on="1"/>
        <pt x="416" y="671" on="0"/>
        <pt x="324" y="628" on="0"/>
        <pt x="249" y="548" on="0"/>
        <pt x="197" y="434" on="0"/>
        <pt x="188" y="364" on="1"/>
        <pt x="179" y="293" on="0"/>
        <pt x="204" y="179" on="0"/>
        <pt x="259" y="99" on="0"/>
        <pt x="340" y="56" on="0"/>
        <pt x="388" y="56" on="1"/>
        <pt x="436" y="56" on="0"/>
        <pt x="528" y="99" on="0"/>
        <pt x="603" y="179" on="0"/>
        <pt x="655" y="293" on="0"/>
      </contour>
    </TTGlyph>
    <TTGlyph name="Otilde" xMin="78" yMin="-14" xMax="774" yMax="893">
      <contour>
        <pt x="763" y="364" on="1"/>
        <pt x="752" y="277" on="0"/>
        <pt x="681" y="138" on="0"/>
        <pt x="577" y="39" on="0"/>
        <pt x="448" y="-14" on="0"/>
        <pt x="380" y="-14" on="1"/>
        <pt x="310" y="-14" on="0"/>
        <pt x="193" y="38" on="0"/>
        <pt x="114" y="135" on="0"/>
        <pt x="78" y="275" on="0"/>
        <pt x="89" y="364" on="1"/>
        <pt x="100" y="451" on="0"/>
        <pt x="172" y="590" on="0"/>
        <pt x="277" y="689" on="0"/>
        <pt x="405" y="742" on="0"/>
        <pt x="473" y="742" on="1"/>
        <pt x="544" y="742" on="0"/>
        <pt x="660" y="690" on="0"/>
        <pt x="739" y="592" on="0"/>
        <pt x="774" y="452" on="0"/>
      </contour>
      <contour>
        <pt x="661" y="364" on="1"/>
        <pt x="670" y="434" on="0"/>
        <pt x="646" y="547" on="0"/>
        <pt x="592" y="627" on="0"/>
        <pt x="512" y="669" on="0"/>
        <pt x="464" y="669" on="1"/>
        <pt x="416" y="669" on="0"/>
        <pt x="325" y="627" on="0"/>
        <pt x="251" y="547" on="0"/>
        <pt x="200" y="434" on="0"/>
        <pt x="191" y="364" on="1"/>
        <pt x="182" y="293" on="0"/>
        <pt x="206" y="179" on="0"/>
        <pt x="261" y="100" on="0"/>
        <pt x="341" y="58" on="0"/>
        <pt x="389" y="58" on="1"/>
        <pt x="437" y="58" on="0"/>
        <pt x="528" y="100" on="0"/>
        <pt x="601" y="179" on="0"/>
        <pt x="652" y="293" on="0"/>
      </contour>
      <contour>
        <pt x="338" y="783" on="1"/>
        <pt x="346" y="840" on="0"/>
        <pt x="404" y="890" on="0"/>
        <pt x="440" y="891" on="1"/>
        <pt x="477" y="891" on="0"/>
        <pt x="501" y="867" on="1"/>
        <pt x="513" y="855" on="0"/>
        <pt x="531" y="835" on="0"/>
        <pt x="551" y="835" on="1"/>
        <pt x="578" y="835" on="0"/>
        <pt x="589" y="893" on="1"/>
        <pt x="641" y="887" on="1"/>
        <pt x="636" y="855" on="0"/>
        <pt x="615" y="814" on="0"/>
        <pt x="588" y="789" on="0"/>
        <pt x="558" y="779" on="0"/>
        <pt x="544" y="779" on="1"/>
        <pt x="504" y="779" on="0"/>
        <pt x="482" y="802" on="1"/>
        <pt x="469" y="814" on="0"/>
        <pt x="451" y="835" on="0"/>
        <pt x="434" y="835" on="1"/>
        <pt x="421" y="835" on="0"/>
        <pt x="398" y="809" on="0"/>
        <pt x="392" y="777" on="1"/>
      </contour>
    </TTGlyph>
    <TTGlyph name="P" xMin="89" yMin="0" xMax="627" yMax="740">
      <contour>
        <pt x="621" y="520" on="1"/>
        <pt x="615" y="472" on="0"/>
        <pt x="567" y="396" on="0"/>
        <pt x="495" y="341" on="0"/>
        <pt x="406" y="309" on="0"/>
        <pt x="361" y="305" on="1"/>
        <pt x="339" y="303" on="0"/>
        <pt x="289" y="305" on="0"/>
        <pt x="262" y="313" on="1"/>
        <pt x="276" y="339" on="0"/>
        <pt x="325" y="374" on="0"/>
        <pt x="357" y="374" on="1"/>
        <pt x="383" y="374" on="0"/>
        <pt x="437" y="396" on="0"/>
        <pt x="484" y="435" on="0"/>
        <pt x="516" y="488" on="0"/>
        <pt x="520" y="520" on="1"/>
        <pt x="524" y="551" on="0"/>
        <pt x="505" y="605" on="0"/>
        <pt x="466" y="645" on="0"/>
        <pt x="409" y="667" on="0"/>
        <pt x="375" y="667" on="1"/>
        <pt x="319" y="667" on="0"/>
        <pt x="265" y="661" on="1"/>
        <pt x="184" y="0" on="1"/>
        <pt x="89" y="2" on="1"/>
        <pt x="177" y="720" on="1"/>
        <pt x="235" y="731" on="0"/>
        <pt x="329" y="740" on="0"/>
        <pt x="384" y="740" on="1"/>
        <pt x="444" y="740" on="0"/>
        <pt x="538" y="705" on="0"/>
        <pt x="599" y="645" on="0"/>
        <pt x="627" y="565" on="0"/>
      </contour>
    </TTGlyph>
    <TTGlyph name="Q" xMin="86" yMin="-14" xMax="781" yMax="742">
      <contour>
        <pt x="717" y="39" on="1"/>
        <pt x="657" y="-13" on="1"/>
        <pt x="441" y="238" on="1"/>
        <pt x="501" y="291" on="1"/>
        <pt x="588" y="187" on="1"/>
        <pt x="599" y="168" on="1"/>
        <pt x="609" y="192" on="1"/>
        <pt x="636" y="233" on="0"/>
        <pt x="663" y="320" on="0"/>
        <pt x="668" y="364" on="1"/>
        <pt x="677" y="434" on="0"/>
        <pt x="654" y="547" on="0"/>
        <pt x="600" y="627" on="0"/>
        <pt x="520" y="669" on="0"/>
        <pt x="472" y="669" on="1"/>
        <pt x="424" y="669" on="0"/>
        <pt x="333" y="627" on="0"/>
        <pt x="258" y="547" on="0"/>
        <pt x="207" y="434" on="0"/>
        <pt x="198" y="364" on="1"/>
        <pt x="189" y="294" on="0"/>
        <pt x="212" y="181" on="0"/>
        <pt x="265" y="102" on="0"/>
        <pt x="345" y="59" on="0"/>
        <pt x="394" y="59" on="1"/>
        <pt x="412" y="59" on="0"/>
        <pt x="438" y="63" on="0"/>
        <pt x="454" y="67" on="1"/>
        <pt x="481" y="74" on="0"/>
        <pt x="539" y="61" on="0"/>
        <pt x="553" y="43" on="1"/>
        <pt x="508" y="13" on="0"/>
        <pt x="426" y="-14" on="0"/>
        <pt x="385" y="-14" on="1"/>
        <pt x="314" y="-14" on="0"/>
        <pt x="198" y="39" on="0"/>
        <pt x="120" y="138" on="0"/>
        <pt x="86" y="278" on="0"/>
        <pt x="97" y="364" on="1"/>
        <pt x="108" y="451" on="0"/>
        <pt x="180" y="590" on="0"/>
        <pt x="285" y="689" on="0"/>
        <pt x="413" y="742" on="0"/>
        <pt x="481" y="742" on="1"/>
        <pt x="552" y="742" on="0"/>
        <pt x="668" y="690" on="0"/>
        <pt x="746" y="592" on="0"/>
        <pt x="781" y="452" on="0"/>
        <pt x="770" y="364" on="1"/>
        <pt x="766" y="330" on="0"/>
        <pt x="748" y="269" on="0"/>
        <pt x="719" y="209" on="0"/>
        <pt x="678" y="149" on="0"/>
        <pt x="651" y="116" on="1"/>
      </contour>
    </TTGlyph>
    <TTGlyph name="R" xMin="89" yMin="0" xMax="627" yMax="741">
      <contour>
        <pt x="622" y="525" on="1"/>
        <pt x="614" y="465" on="0"/>
        <pt x="537" y="374" on="0"/>
        <pt x="481" y="348" on="1"/>
        <pt x="456" y="340" on="1"/>
        <pt x="475" y="332" on="1"/>
        <pt x="509" y="307" on="0"/>
        <pt x="539" y="235" on="0"/>
        <pt x="556" y="148" on="0"/>
        <pt x="569" y="51" on="0"/>
        <pt x="586" y="0" on="1"/>
        <pt x="486" y="0" on="1"/>
        <pt x="471" y="43" on="0"/>
        <pt x="460" y="141" on="0"/>
        <pt x="443" y="231" on="0"/>
        <pt x="408" y="301" on="0"/>
        <pt x="371" y="316" on="1"/>
        <pt x="368" y="315" on="0"/>
        <pt x="362" y="315" on="1"/>
        <pt x="340" y="313" on="0"/>
        <pt x="290" y="316" on="0"/>
        <pt x="263" y="323" on="1"/>
        <pt x="277" y="349" on="0"/>
        <pt x="327" y="383" on="0"/>
        <pt x="359" y="384" on="1"/>
        <pt x="385" y="385" on="0"/>
        <pt x="439" y="407" on="0"/>
        <pt x="485" y="444" on="0"/>
        <pt x="517" y="496" on="0"/>
        <pt x="521" y="527" on="1"/>
        <pt x="525" y="557" on="0"/>
        <pt x="506" y="608" on="0"/>
        <pt x="466" y="646" on="0"/>
        <pt x="410" y="668" on="0"/>
        <pt x="376" y="668" on="1"/>
        <pt x="362" y="668" on="0"/>
        <pt x="338" y="668" on="0"/>
        <pt x="312" y="666" on="0"/>
        <pt x="283" y="662" on="0"/>
        <pt x="264" y="659" on="1"/>
        <pt x="184" y="0" on="1"/>
        <pt x="89" y="0" on="1"/>
        <pt x="177" y="718" on="1"/>
        <pt x="235" y="729" on="0"/>
        <pt x="329" y="741" on="0"/>
        <pt x="384" y="741" on="1"/>
        <pt x="444" y="741" on="0"/>
        <pt x="538" y="707" on="0"/>
        <pt x="599" y="648" on="0"/>
        <pt x="627" y="570" on="0"/>
        <pt x="622" y="527" on="1"/>
      </contour>
    </TTGlyph>
    <TTGlyph name="S" xMin="63" yMin="-12" xMax="539" yMax="740">
      <contour>
        <pt x="362" y="667" on="1"/>
        <pt x="334" y="667" on="0"/>
        <pt x="288" y="650" on="0"/>
        <pt x="255" y="620" on="0"/>
        <pt x="236" y="581" on="0"/>
        <pt x="233" y="559" on="1"/>
        <pt x="228" y="520" on="0"/>
        <pt x="272" y="465" on="0"/>
        <pt x="342" y="419" on="0"/>
        <pt x="424" y="374" on="0"/>
        <pt x="492" y="316" on="0"/>
        <pt x="533" y="238" on="0"/>
        <pt x="526" y="181" on="1"/>
        <pt x="521" y="144" on="0"/>
        <pt x="482" y="74" on="0"/>
        <pt x="414" y="20" on="0"/>
        <pt x="322" y="-12" on="0"/>
        <pt x="265" y="-12" on="1"/>
        <pt x="244" y="-12" on="0"/>
        <pt x="193" y="-7" on="0"/>
        <pt x="140" y="3" on="0"/>
        <pt x="87" y="21" on="0"/>
        <pt x="63" y="33" on="1"/>
        <pt x="97" y="98" on="1"/>
        <pt x="139" y="78" on="0"/>
        <pt x="228" y="60" on="0"/>
        <pt x="263" y="60" on="1"/>
        <pt x="334" y="60" on="0"/>
        <pt x="420" y="131" on="0"/>
        <pt x="427" y="183" on="1"/>
        <pt x="431" y="215" on="0"/>
        <pt x="408" y="263" on="0"/>
        <pt x="365" y="301" on="0"/>
        <pt x="309" y="334" on="0"/>
        <pt x="250" y="367" on="0"/>
        <pt x="194" y="405" on="0"/>
        <pt x="153" y="453" on="0"/>
        <pt x="132" y="517" on="0"/>
        <pt x="137" y="559" on="1"/>
        <pt x="141" y="596" on="0"/>
        <pt x="179" y="662" on="0"/>
        <pt x="238" y="712" on="0"/>
        <pt x="316" y="740" on="0"/>
        <pt x="361" y="740" on="1"/>
        <pt x="404" y="740" on="0"/>
        <pt x="489" y="726" on="0"/>
        <pt x="539" y="710" on="1"/>
        <pt x="504" y="645" on="1"/>
        <pt x="462" y="658" on="0"/>
        <pt x="390" y="667" on="0"/>
      </contour>
    </TTGlyph>
    <TTGlyph name="Scaron" xMin="63" yMin="-12" xMax="539" yMax="890">
      <contour>
        <pt x="362" y="667" on="1"/>
        <pt x="334" y="667" on="0"/>
        <pt x="288" y="650" on="0"/>
        <pt x="255" y="620" on="0"/>
        <pt x="236" y="581" on="0"/>
        <pt x="233" y="559" on="1"/>
        <pt x="228" y="520" on="0"/>
        <pt x="272" y="465" on="0"/>
        <pt x="342" y="419" on="0"/>
        <pt x="424" y="374" on="0"/>
        <pt x="492" y="316" on="0"/>
        <pt x="533" y="238" on="0"/>
        <pt x="526" y="181" on="1"/>
        <pt x="521" y="144" on="0"/>
        <pt x="482" y="74" on="0"/>
        <pt x="414" y="20" on="0"/>
        <pt x="322" y="-12" on="0"/>
        <pt x="265" y="-12" on="1"/>
        <pt x="244" y="-12" on="0"/>
        <pt x="193" y="-7" on="0"/>
        <pt x="140" y="3" on="0"/>
        <pt x="87" y="21" on="0"/>
        <pt x="63" y="33" on="1"/>
        <pt x="97" y="98" on="1"/>
        <pt x="139" y="78" on="0"/>
        <pt x="228" y="60" on="0"/>
        <pt x="263" y="60" on="1"/>
        <pt x="334" y="60" on="0"/>
        <pt x="420" y="131" on="0"/>
        <pt x="427" y="183" on="1"/>
        <pt x="431" y="215" on="0"/>
        <pt x="408" y="263" on="0"/>
        <pt x="365" y="301" on="0"/>
        <pt x="309" y="334" on="0"/>
        <pt x="250" y="367" on="0"/>
        <pt x="194" y="405" on="0"/>
        <pt x="153" y="453" on="0"/>
        <pt x="132" y="517" on="0"/>
        <pt x="137" y="559" on="1"/>
        <pt x="141" y="596" on="0"/>
        <pt x="179" y="662" on="0"/>
        <pt x="238" y="712" on="0"/>
        <pt x="316" y="740" on="0"/>
        <pt x="361" y="740" on="1"/>
        <pt x="404" y="740" on="0"/>
        <pt x="489" y="726" on="0"/>
        <pt x="539" y="710" on="1"/>
        <pt x="504" y="645" on="1"/>
        <pt x="462" y="658" on="0"/>
        <pt x="390" y="667" on="0"/>
      </contour>
      <contour>
        <pt x="345" y="761" on="1"/>
        <pt x="251" y="881" on="1"/>
        <pt x="301" y="890" on="1"/>
        <pt x="381" y="830" on="1"/>
        <pt x="477" y="889" on="1"/>
        <pt x="528" y="881" on="1"/>
        <pt x="402" y="761" on="1"/>
      </contour>
    </TTGlyph>
    <TTGlyph name="T" xMin="90" yMin="0" xMax="620" yMax="727">
      <contour>
        <pt x="90" y="655" on="1"/>
        <pt x="99" y="727" on="1"/>
        <pt x="620" y="727" on="1"/>
        <pt x="611" y="655" on="1"/>
        <pt x="398" y="655" on="1"/>
        <pt x="318" y="0" on="1"/>
        <pt x="222" y="0" on="1"/>
        <pt x="302" y="655" on="1"/>
      </contour>
    </TTGlyph>
    <TTGlyph name="Thorn" xMin="92" yMin="0" xMax="608" yMax="727">
      <contour>
        <pt x="602" y="363" on="1"/>
        <pt x="596" y="315" on="0"/>
        <pt x="547" y="239" on="0"/>
        <pt x="475" y="184" on="0"/>
        <pt x="387" y="152" on="0"/>
        <pt x="342" y="148" on="1"/>
        <pt x="319" y="146" on="0"/>
        <pt x="269" y="148" on="0"/>
        <pt x="243" y="156" on="1"/>
        <pt x="257" y="182" on="0"/>
        <pt x="306" y="217" on="0"/>
        <pt x="338" y="217" on="1"/>
        <pt x="364" y="217" on="0"/>
        <pt x="418" y="239" on="0"/>
        <pt x="465" y="278" on="0"/>
        <pt x="497" y="331" on="0"/>
        <pt x="501" y="363" on="1"/>
        <pt x="505" y="394" on="0"/>
        <pt x="486" y="448" on="0"/>
        <pt x="446" y="488" on="0"/>
        <pt x="390" y="510" on="0"/>
        <pt x="356" y="510" on="1"/>
        <pt x="300" y="510" on="0"/>
        <pt x="245" y="504" on="1"/>
        <pt x="184" y="0" on="1"/>
        <pt x="92" y="0" on="1"/>
        <pt x="181" y="727" on="1"/>
        <pt x="273" y="727" on="1"/>
        <pt x="254" y="577" on="1"/>
        <pt x="281" y="580" on="0"/>
        <pt x="335" y="583" on="0"/>
        <pt x="365" y="583" on="1"/>
        <pt x="425" y="583" on="0"/>
        <pt x="519" y="548" on="0"/>
        <pt x="580" y="488" on="0"/>
        <pt x="608" y="408" on="0"/>
      </contour>
    </TTGlyph>
    <TTGlyph name="U" xMin="102" yMin="-14" xMax="705" yMax="727">
      <contour>
        <pt x="345" y="-14" on="1"/>
        <pt x="281" y="-14" on="0"/>
        <pt x="186" y="27" on="0"/>
        <pt x="126" y="101" on="0"/>
        <pt x="102" y="205" on="0"/>
        <pt x="110" y="268" on="1"/>
        <pt x="167" y="727" on="1"/>
        <pt x="261" y="727" on="1"/>
        <pt x="202" y="252" on="1"/>
        <pt x="197" y="208" on="0"/>
        <pt x="213" y="136" on="0"/>
        <pt x="253" y="85" on="0"/>
        <pt x="314" y="58" on="0"/>
        <pt x="354" y="58" on="1"/>
        <pt x="394" y="58" on="0"/>
        <pt x="462" y="85" on="0"/>
        <pt x="513" y="136" on="0"/>
        <pt x="547" y="208" on="0"/>
        <pt x="552" y="252" on="1"/>
        <pt x="611" y="727" on="1"/>
        <pt x="705" y="727" on="1"/>
        <pt x="648" y="268" on="1"/>
        <pt x="640" y="205" on="0"/>
        <pt x="589" y="101" on="0"/>
        <pt x="509" y="27" on="0"/>
        <pt x="405" y="-14" on="0"/>
      </contour>
    </TTGlyph>
    <TTGlyph name="Uacute" xMin="102" yMin="-14" xMax="705" yMax="890">
      <contour>
        <pt x="345" y="-14" on="1"/>
        <pt x="281" y="-14" on="0"/>
        <pt x="186" y="27" on="0"/>
        <pt x="126" y="101" on="0"/>
        <pt x="102" y="205" on="0"/>
        <pt x="110" y="268" on="1"/>
        <pt x="167" y="727" on="1"/>
        <pt x="261" y="727" on="1"/>
        <pt x="202" y="252" on="1"/>
        <pt x="197" y="208" on="0"/>
        <pt x="213" y="136" on="0"/>
        <pt x="253" y="85" on="0"/>
        <pt x="314" y="58" on="0"/>
        <pt x="354" y="58" on="1"/>
        <pt x="394" y="58" on="0"/>
        <pt x="462" y="85" on="0"/>
        <pt x="513" y="136" on="0"/>
        <pt x="547" y="208" on="0"/>
        <pt x="552" y="252" on="1"/>
        <pt x="611" y="727" on="1"/>
        <pt x="705" y="727" on="1"/>
        <pt x="648" y="268" on="1"/>
        <pt x="640" y="205" on="0"/>
        <pt x="589" y="101" on="0"/>
        <pt x="509" y="27" on="0"/>
        <pt x="405" y="-14" on="0"/>
      </contour>
      <contour>
        <pt x="500" y="792" on="1"/>
        <pt x="477" y="770" on="0"/>
        <pt x="424" y="760" on="0"/>
        <pt x="399" y="766" on="1"/>
        <pt x="503" y="890" on="1"/>
        <pt x="600" y="890" on="1"/>
      </contour>
    </TTGlyph>
    <TTGlyph name="Ucircumflex" xMin="102" yMin="-14" xMax="705" yMax="890">
      <contour>
        <pt x="345" y="-14" on="1"/>
        <pt x="281" y="-14" on="0"/>
        <pt x="186" y="27" on="0"/>
        <pt x="126" y="101" on="0"/>
        <pt x="102" y="205" on="0"/>
        <pt x="110" y="268" on="1"/>
        <pt x="167" y="727" on="1"/>
        <pt x="261" y="727" on="1"/>
        <pt x="202" y="252" on="1"/>
        <pt x="197" y="208" on="0"/>
        <pt x="213" y="136" on="0"/>
        <pt x="253" y="85" on="0"/>
        <pt x="314" y="58" on="0"/>
        <pt x="354" y="58" on="1"/>
        <pt x="394" y="58" on="0"/>
        <pt x="462" y="85" on="0"/>
        <pt x="513" y="136" on="0"/>
        <pt x="547" y="208" on="0"/>
        <pt x="552" y="252" on="1"/>
        <pt x="611" y="727" on="1"/>
        <pt x="705" y="727" on="1"/>
        <pt x="648" y="268" on="1"/>
        <pt x="640" y="205" on="0"/>
        <pt x="589" y="101" on="0"/>
        <pt x="509" y="27" on="0"/>
        <pt x="405" y="-14" on="0"/>
      </contour>
      <contour>
        <pt x="484" y="890" on="1"/>
        <pt x="580" y="770" on="1"/>
        <pt x="527" y="762" on="1"/>
        <pt x="446" y="821" on="1"/>
        <pt x="351" y="761" on="1"/>
        <pt x="303" y="770" on="1"/>
        <pt x="427" y="890" on="1"/>
      </contour>
    </TTGlyph>
    <TTGlyph name="Udieresis" xMin="102" yMin="-14" xMax="705" yMax="892">
      <contour>
        <pt x="345" y="-14" on="1"/>
        <pt x="281" y="-14" on="0"/>
        <pt x="186" y="27" on="0"/>
        <pt x="126" y="101" on="0"/>
        <pt x="102" y="205" on="0"/>
        <pt x="110" y="268" on="1"/>
        <pt x="167" y="727" on="1"/>
        <pt x="261" y="727" on="1"/>
        <pt x="202" y="252" on="1"/>
        <pt x="197" y="208" on="0"/>
        <pt x="213" y="136" on="0"/>
        <pt x="253" y="85" on="0"/>
        <pt x="314" y="58" on="0"/>
        <pt x="354" y="58" on="1"/>
        <pt x="394" y="58" on="0"/>
        <pt x="462" y="85" on="0"/>
        <pt x="513" y="136" on="0"/>
        <pt x="547" y="208" on="0"/>
        <pt x="552" y="252" on="1"/>
        <pt x="611" y="727" on="1"/>
        <pt x="705" y="727" on="1"/>
        <pt x="648" y="268" on="1"/>
        <pt x="640" y="205" on="0"/>
        <pt x="589" y="101" on="0"/>
        <pt x="509" y="27" on="0"/>
        <pt x="405" y="-14" on="0"/>
      </contour>
      <contour>
        <pt x="301" y="840" on="1"/>
        <pt x="303" y="862" on="0"/>
        <pt x="338" y="892" on="0"/>
        <pt x="359" y="892" on="1"/>
        <pt x="381" y="892" on="0"/>
        <pt x="408" y="862" on="0"/>
        <pt x="406" y="840" on="1"/>
        <pt x="403" y="818" on="0"/>
        <pt x="368" y="788" on="0"/>
        <pt x="346" y="788" on="1"/>
        <pt x="325" y="788" on="0"/>
        <pt x="298" y="818" on="0"/>
      </contour>
      <contour>
        <pt x="495" y="840" on="1"/>
        <pt x="497" y="862" on="0"/>
        <pt x="532" y="892" on="0"/>
        <pt x="554" y="892" on="1"/>
        <pt x="575" y="892" on="0"/>
        <pt x="602" y="862" on="0"/>
        <pt x="600" y="840" on="1"/>
        <pt x="597" y="818" on="0"/>
        <pt x="562" y="788" on="0"/>
        <pt x="541" y="788" on="1"/>
        <pt x="519" y="788" on="0"/>
        <pt x="492" y="818" on="0"/>
      </contour>
    </TTGlyph>
    <TTGlyph name="Ugrave" xMin="102" yMin="-14" xMax="705" yMax="890">
      <contour>
        <pt x="345" y="-14" on="1"/>
        <pt x="281" y="-14" on="0"/>
        <pt x="186" y="27" on="0"/>
        <pt x="126" y="101" on="0"/>
        <pt x="102" y="205" on="0"/>
        <pt x="110" y="268" on="1"/>
        <pt x="167" y="727" on="1"/>
        <pt x="261" y="727" on="1"/>
        <pt x="202" y="252" on="1"/>
        <pt x="197" y="208" on="0"/>
        <pt x="213" y="136" on="0"/>
        <pt x="253" y="85" on="0"/>
        <pt x="314" y="58" on="0"/>
        <pt x="354" y="58" on="1"/>
        <pt x="394" y="58" on="0"/>
        <pt x="462" y="85" on="0"/>
        <pt x="513" y="136" on="0"/>
        <pt x="547" y="208" on="0"/>
        <pt x="552" y="252" on="1"/>
        <pt x="611" y="727" on="1"/>
        <pt x="705" y="727" on="1"/>
        <pt x="648" y="268" on="1"/>
        <pt x="640" y="205" on="0"/>
        <pt x="589" y="101" on="0"/>
        <pt x="509" y="27" on="0"/>
        <pt x="405" y="-14" on="0"/>
      </contour>
      <contour>
        <pt x="331" y="890" on="1"/>
        <pt x="425" y="890" on="1"/>
        <pt x="484" y="766" on="1"/>
        <pt x="458" y="760" on="0"/>
        <pt x="406" y="770" on="0"/>
        <pt x="392" y="792" on="1"/>
      </contour>
    </TTGlyph>
    <TTGlyph name="V" xMin="102" yMin="0" xMax="710" yMax="727">
      <contour>
        <pt x="268" y="0" on="1"/>
        <pt x="102" y="727" on="1"/>
        <pt x="205" y="727" on="1"/>
        <pt x="327" y="130" on="1"/>
        <pt x="330" y="97" on="1"/>
        <pt x="342" y="129" on="1"/>
        <pt x="611" y="727" on="1"/>
        <pt x="710" y="727" on="1"/>
        <pt x="368" y="0" on="1"/>
      </contour>
    </TTGlyph>
    <TTGlyph name="W" xMin="110" yMin="0" xMax="1041" yMax="727">
      <contour>
        <pt x="629" y="717" on="1"/>
        <pt x="708" y="136" on="1"/>
        <pt x="712" y="87" on="1"/>
        <pt x="727" y="134" on="1"/>
        <pt x="947" y="727" on="1"/>
        <pt x="1041" y="727" on="1"/>
        <pt x="757" y="0" on="1"/>
        <pt x="645" y="0" on="1"/>
        <pt x="565" y="566" on="1"/>
        <pt x="562" y="608" on="1"/>
        <pt x="549" y="568" on="1"/>
        <pt x="332" y="0" on="1"/>
        <pt x="216" y="0" on="1"/>
        <pt x="110" y="727" on="1"/>
        <pt x="206" y="727" on="1"/>
        <pt x="281" y="137" on="1"/>
        <pt x="283" y="88" on="1"/>
        <pt x="300" y="137" on="1"/>
        <pt x="527" y="717" on="1"/>
      </contour>
    </TTGlyph>
    <TTGlyph name="X" xMin="34" yMin="0" xMax="666" yMax="727">
      <contour>
        <pt x="136" y="727" on="1"/>
        <pt x="247" y="727" on="1"/>
        <pt x="361" y="462" on="1"/>
        <pt x="367" y="437" on="1"/>
        <pt x="378" y="462" on="1"/>
        <pt x="560" y="727" on="1"/>
        <pt x="666" y="727" on="1"/>
        <pt x="411" y="377" on="1"/>
        <pt x="590" y="0" on="1"/>
        <pt x="482" y="0" on="1"/>
      </contour>
      <contour>
        <pt x="137" y="0" on="1"/>
        <pt x="34" y="0" on="1"/>
        <pt x="274" y="330" on="1"/>
        <pt x="281" y="318" on="0"/>
        <pt x="292" y="289" on="0"/>
        <pt x="296" y="258" on="0"/>
        <pt x="289" y="225" on="0"/>
        <pt x="278" y="210" on="1"/>
      </contour>
    </TTGlyph>
    <TTGlyph name="Y" xMin="117" yMin="0" xMax="701" yMax="727">
      <contour>
        <pt x="411" y="337" on="1"/>
        <pt x="370" y="0" on="1"/>
        <pt x="277" y="0" on="1"/>
        <pt x="314" y="309" on="1"/>
        <pt x="117" y="727" on="1"/>
        <pt x="225" y="727" on="1"/>
      </contour>
      <contour>
        <pt x="596" y="727" on="1"/>
        <pt x="701" y="727" on="1"/>
        <pt x="444" y="376" on="1"/>
        <pt x="436" y="388" on="0"/>
        <pt x="424" y="417" on="0"/>
        <pt x="421" y="449" on="0"/>
        <pt x="430" y="484" on="0"/>
        <pt x="442" y="502" on="1"/>
      </contour>
    </TTGlyph>
    <TTGlyph name="Yacute" xMin="117" yMin="0" xMax="701" yMax="890">
      <contour>
        <pt x="411" y="337" on="1"/>
        <pt x="370" y="0" on="1"/>
        <pt x="277" y="0" on="1"/>
        <pt x="314" y="309" on="1"/>
        <pt x="117" y="727" on="1"/>
        <pt x="225" y="727" on="1"/>
      </contour>
      <contour>
        <pt x="596" y="727" on="1"/>
        <pt x="701" y="727" on="1"/>
        <pt x="444" y="376" on="1"/>
        <pt x="436" y="388" on="0"/>
        <pt x="424" y="417" on="0"/>
        <pt x="421" y="449" on="0"/>
        <pt x="430" y="484" on="0"/>
        <pt x="442" y="502" on="1"/>
      </contour>
      <contour>
        <pt x="496" y="792" on="1"/>
        <pt x="473" y="770" on="0"/>
        <pt x="420" y="760" on="0"/>
        <pt x="395" y="766" on="1"/>
        <pt x="499" y="890" on="1"/>
        <pt x="596" y="890" on="1"/>
      </contour>
    </TTGlyph>
    <TTGlyph name="Ydieresis" xMin="117" yMin="0" xMax="701" yMax="892">
      <contour>
        <pt x="411" y="337" on="1"/>
        <pt x="370" y="0" on="1"/>
        <pt x="277" y="0" on="1"/>
        <pt x="314" y="309" on="1"/>
        <pt x="117" y="727" on="1"/>
        <pt x="225" y="727" on="1"/>
      </contour>
      <contour>
        <pt x="596" y="727" on="1"/>
        <pt x="701" y="727" on="1"/>
        <pt x="444" y="376" on="1"/>
        <pt x="436" y="388" on="0"/>
        <pt x="424" y="417" on="0"/>
        <pt x="421" y="449" on="0"/>
        <pt x="430" y="484" on="0"/>
        <pt x="442" y="502" on="1"/>
      </contour>
      <contour>
        <pt x="278" y="840" on="1"/>
        <pt x="280" y="862" on="0"/>
        <pt x="315" y="892" on="0"/>
        <pt x="336" y="892" on="1"/>
        <pt x="358" y="892" on="0"/>
        <pt x="385" y="862" on="0"/>
        <pt x="383" y="840" on="1"/>
        <pt x="380" y="818" on="0"/>
        <pt x="345" y="788" on="0"/>
        <pt x="323" y="788" on="1"/>
        <pt x="302" y="788" on="0"/>
        <pt x="275" y="818" on="0"/>
      </contour>
      <contour>
        <pt x="472" y="840" on="1"/>
        <pt x="474" y="862" on="0"/>
        <pt x="509" y="892" on="0"/>
        <pt x="531" y="892" on="1"/>
        <pt x="552" y="892" on="0"/>
        <pt x="579" y="862" on="0"/>
        <pt x="577" y="840" on="1"/>
        <pt x="574" y="818" on="0"/>
        <pt x="539" y="788" on="0"/>
        <pt x="518" y="788" on="1"/>
        <pt x="496" y="788" on="0"/>
        <pt x="469" y="818" on="0"/>
      </contour>
    </TTGlyph>
    <TTGlyph name="Z" xMin="85" yMin="0" xMax="687" yMax="727">
      <contour>
        <pt x="218" y="727" on="1"/>
        <pt x="687" y="727" on="1"/>
        <pt x="682" y="689" on="1"/>
        <pt x="221" y="84" on="1"/>
        <pt x="204" y="69" on="1"/>
        <pt x="226" y="72" on="1"/>
        <pt x="616" y="72" on="1"/>
        <pt x="608" y="0" on="1"/>
        <pt x="85" y="0" on="1"/>
        <pt x="89" y="38" on="1"/>
        <pt x="549" y="641" on="1"/>
        <pt x="567" y="658" on="1"/>
        <pt x="543" y="655" on="1"/>
        <pt x="209" y="655" on="1"/>
      </contour>
    </TTGlyph>
    <TTGlyph name="Zcaron" xMin="85" yMin="0" xMax="687" yMax="890">
      <contour>
        <pt x="218" y="727" on="1"/>
        <pt x="687" y="727" on="1"/>
        <pt x="682" y="689" on="1"/>
        <pt x="221" y="84" on="1"/>
        <pt x="204" y="69" on="1"/>
        <pt x="226" y="72" on="1"/>
        <pt x="616" y="72" on="1"/>
        <pt x="608" y="0" on="1"/>
        <pt x="85" y="0" on="1"/>
        <pt x="89" y="38" on="1"/>
        <pt x="549" y="641" on="1"/>
        <pt x="567" y="658" on="1"/>
        <pt x="543" y="655" on="1"/>
        <pt x="209" y="655" on="1"/>
      </contour>
      <contour>
        <pt x="428" y="761" on="1"/>
        <pt x="334" y="881" on="1"/>
        <pt x="384" y="890" on="1"/>
        <pt x="464" y="830" on="1"/>
        <pt x="560" y="889" on="1"/>
        <pt x="611" y="881" on="1"/>
        <pt x="485" y="761" on="1"/>
      </contour>
    </TTGlyph>
    <TTGlyph name="a" xMin="72" yMin="-11" xMax="551" yMax="527">
      <contour>
        <pt x="512" y="176" on="1"/>
        <pt x="504" y="116" on="0"/>
        <pt x="504" y="31" on="0"/>
        <pt x="507" y="5" on="1"/>
        <pt x="439" y="0" on="1"/>
        <pt x="425" y="9" on="0"/>
        <pt x="406" y="58" on="0"/>
        <pt x="411" y="97" on="1"/>
        <pt x="454" y="444" on="1"/>
        <pt x="431" y="450" on="0"/>
        <pt x="392" y="455" on="0"/>
        <pt x="369" y="455" on="1"/>
        <pt x="294" y="455" on="0"/>
        <pt x="190" y="353" on="0"/>
        <pt x="178" y="256" on="1"/>
        <pt x="173" y="214" on="0"/>
        <pt x="181" y="141" on="0"/>
        <pt x="208" y="90" on="0"/>
        <pt x="255" y="65" on="0"/>
        <pt x="290" y="71" on="1"/>
        <pt x="312" y="74" on="0"/>
        <pt x="351" y="60" on="0"/>
        <pt x="368" y="38" on="1"/>
        <pt x="342" y="20" on="0"/>
        <pt x="289" y="-1" on="0"/>
        <pt x="266" y="-5" on="1"/>
        <pt x="221" y="-11" on="0"/>
        <pt x="146" y="23" on="0"/>
        <pt x="95" y="94" on="0"/>
        <pt x="72" y="195" on="0"/>
        <pt x="80" y="256" on="1"/>
        <pt x="87" y="317" on="0"/>
        <pt x="139" y="417" on="0"/>
        <pt x="218" y="488" on="0"/>
        <pt x="320" y="527" on="0"/>
        <pt x="378" y="527" on="1"/>
        <pt x="420" y="527" on="0"/>
        <pt x="501" y="512" on="0"/>
        <pt x="551" y="495" on="1"/>
      </contour>
    </TTGlyph>
    <TTGlyph name="aacute" xMin="72" yMin="-11" xMax="551" yMax="740">
      <contour>
        <pt x="512" y="176" on="1"/>
        <pt x="504" y="116" on="0"/>
        <pt x="504" y="31" on="0"/>
        <pt x="507" y="5" on="1"/>
        <pt x="439" y="0" on="1"/>
        <pt x="425" y="9" on="0"/>
        <pt x="404" y="53" on="0"/>
        <pt x="409" y="82" on="1"/>
        <pt x="454" y="444" on="1"/>
        <pt x="431" y="450" on="0"/>
        <pt x="392" y="455" on="0"/>
        <pt x="369" y="455" on="1"/>
        <pt x="294" y="455" on="0"/>
        <pt x="190" y="353" on="0"/>
        <pt x="178" y="256" on="1"/>
        <pt x="173" y="214" on="0"/>
        <pt x="181" y="141" on="0"/>
        <pt x="208" y="90" on="0"/>
        <pt x="255" y="65" on="0"/>
        <pt x="290" y="71" on="1"/>
        <pt x="312" y="74" on="0"/>
        <pt x="351" y="60" on="0"/>
        <pt x="368" y="38" on="1"/>
        <pt x="342" y="20" on="0"/>
        <pt x="289" y="-1" on="0"/>
        <pt x="266" y="-5" on="1"/>
        <pt x="221" y="-11" on="0"/>
        <pt x="146" y="23" on="0"/>
        <pt x="95" y="94" on="0"/>
        <pt x="72" y="195" on="0"/>
        <pt x="80" y="256" on="1"/>
        <pt x="87" y="317" on="0"/>
        <pt x="139" y="417" on="0"/>
        <pt x="218" y="488" on="0"/>
        <pt x="320" y="527" on="0"/>
        <pt x="378" y="527" on="1"/>
        <pt x="420" y="527" on="0"/>
        <pt x="501" y="512" on="0"/>
        <pt x="551" y="495" on="1"/>
      </contour>
      <contour>
        <pt x="428" y="631" on="1"/>
        <pt x="405" y="607" on="0"/>
        <pt x="351" y="595" on="0"/>
        <pt x="326" y="602" on="1"/>
        <pt x="432" y="740" on="1"/>
        <pt x="529" y="740" on="1"/>
      </contour>
    </TTGlyph>
    <TTGlyph name="acircumflex" xMin="72" yMin="-11" xMax="551" yMax="743">
      <contour>
        <pt x="512" y="176" on="1"/>
        <pt x="504" y="116" on="0"/>
        <pt x="504" y="31" on="0"/>
        <pt x="507" y="5" on="1"/>
        <pt x="439" y="0" on="1"/>
        <pt x="425" y="9" on="0"/>
        <pt x="404" y="53" on="0"/>
        <pt x="409" y="82" on="1"/>
        <pt x="454" y="444" on="1"/>
        <pt x="431" y="450" on="0"/>
        <pt x="392" y="455" on="0"/>
        <pt x="369" y="455" on="1"/>
        <pt x="294" y="455" on="0"/>
        <pt x="190" y="353" on="0"/>
        <pt x="178" y="256" on="1"/>
        <pt x="173" y="214" on="0"/>
        <pt x="181" y="141" on="0"/>
        <pt x="208" y="90" on="0"/>
        <pt x="255" y="65" on="0"/>
        <pt x="290" y="71" on="1"/>
        <pt x="312" y="74" on="0"/>
        <pt x="351" y="60" on="0"/>
        <pt x="368" y="38" on="1"/>
        <pt x="342" y="20" on="0"/>
        <pt x="289" y="-1" on="0"/>
        <pt x="266" y="-5" on="1"/>
        <pt x="221" y="-11" on="0"/>
        <pt x="146" y="23" on="0"/>
        <pt x="95" y="94" on="0"/>
        <pt x="72" y="195" on="0"/>
        <pt x="80" y="256" on="1"/>
        <pt x="87" y="317" on="0"/>
        <pt x="139" y="417" on="0"/>
        <pt x="218" y="488" on="0"/>
        <pt x="320" y="527" on="0"/>
        <pt x="378" y="527" on="1"/>
        <pt x="420" y="527" on="0"/>
        <pt x="501" y="512" on="0"/>
        <pt x="551" y="495" on="1"/>
      </contour>
      <contour>
        <pt x="432" y="743" on="1"/>
        <pt x="525" y="598" on="1"/>
        <pt x="472" y="590" on="1"/>
        <pt x="394" y="674" on="1"/>
        <pt x="296" y="589" on="1"/>
        <pt x="248" y="598" on="1"/>
        <pt x="375" y="743" on="1"/>
      </contour>
    </TTGlyph>
    <TTGlyph name="acute" xMin="143" yMin="595" xMax="346" yMax="740">
      <contour>
        <pt x="245" y="631" on="1"/>
        <pt x="222" y="607" on="0"/>
        <pt x="168" y="595" on="0"/>
        <pt x="143" y="602" on="1"/>
        <pt x="249" y="740" on="1"/>
        <pt x="346" y="740" on="1"/>
      </contour>
    </TTGlyph>
    <TTGlyph name="adieresis" xMin="72" yMin="-11" xMax="551" yMax="722">
      <contour>
        <pt x="512" y="176" on="1"/>
        <pt x="504" y="116" on="0"/>
        <pt x="504" y="31" on="0"/>
        <pt x="507" y="5" on="1"/>
        <pt x="439" y="0" on="1"/>
        <pt x="425" y="9" on="0"/>
        <pt x="404" y="53" on="0"/>
        <pt x="409" y="82" on="1"/>
        <pt x="454" y="444" on="1"/>
        <pt x="431" y="450" on="0"/>
        <pt x="392" y="455" on="0"/>
        <pt x="369" y="455" on="1"/>
        <pt x="294" y="455" on="0"/>
        <pt x="190" y="353" on="0"/>
        <pt x="178" y="256" on="1"/>
        <pt x="173" y="214" on="0"/>
        <pt x="181" y="141" on="0"/>
        <pt x="208" y="90" on="0"/>
        <pt x="255" y="65" on="0"/>
        <pt x="290" y="71" on="1"/>
        <pt x="312" y="74" on="0"/>
        <pt x="351" y="60" on="0"/>
        <pt x="368" y="38" on="1"/>
        <pt x="342" y="20" on="0"/>
        <pt x="289" y="-1" on="0"/>
        <pt x="266" y="-5" on="1"/>
        <pt x="221" y="-11" on="0"/>
        <pt x="146" y="23" on="0"/>
        <pt x="95" y="94" on="0"/>
        <pt x="72" y="195" on="0"/>
        <pt x="80" y="256" on="1"/>
        <pt x="87" y="317" on="0"/>
        <pt x="139" y="417" on="0"/>
        <pt x="218" y="488" on="0"/>
        <pt x="320" y="527" on="0"/>
        <pt x="378" y="527" on="1"/>
        <pt x="420" y="527" on="0"/>
        <pt x="501" y="512" on="0"/>
        <pt x="551" y="495" on="1"/>
      </contour>
      <contour>
        <pt x="232" y="670" on="1"/>
        <pt x="234" y="692" on="0"/>
        <pt x="269" y="722" on="0"/>
        <pt x="290" y="722" on="1"/>
        <pt x="312" y="722" on="0"/>
        <pt x="339" y="692" on="0"/>
        <pt x="337" y="670" on="1"/>
        <pt x="334" y="648" on="0"/>
        <pt x="299" y="618" on="0"/>
        <pt x="277" y="618" on="1"/>
        <pt x="256" y="618" on="0"/>
        <pt x="229" y="648" on="0"/>
      </contour>
      <contour>
        <pt x="426" y="670" on="1"/>
        <pt x="428" y="692" on="0"/>
        <pt x="463" y="722" on="0"/>
        <pt x="485" y="722" on="1"/>
        <pt x="506" y="722" on="0"/>
        <pt x="533" y="692" on="0"/>
        <pt x="531" y="670" on="1"/>
        <pt x="528" y="648" on="0"/>
        <pt x="493" y="618" on="0"/>
        <pt x="472" y="618" on="1"/>
        <pt x="450" y="618" on="0"/>
        <pt x="423" y="648" on="0"/>
      </contour>
    </TTGlyph>
    <TTGlyph name="ae" xMin="58" yMin="-10" xMax="832" yMax="527">
      <contour>
        <pt x="738" y="317" on="1"/>
        <pt x="745" y="346" on="0"/>
        <pt x="737" y="396" on="0"/>
        <pt x="713" y="434" on="0"/>
        <pt x="673" y="455" on="0"/>
        <pt x="649" y="455" on="1"/>
        <pt x="586" y="455" on="0"/>
        <pt x="495" y="355" on="0"/>
        <pt x="484" y="262" on="1"/>
        <pt x="478" y="217" on="0"/>
        <pt x="493" y="144" on="0"/>
        <pt x="529" y="91" on="0"/>
        <pt x="584" y="62" on="0"/>
        <pt x="618" y="62" on="1"/>
        <pt x="653" y="62" on="0"/>
        <pt x="716" y="76" on="0"/>
        <pt x="762" y="98" on="1"/>
        <pt x="778" y="32" on="1"/>
        <pt x="727" y="7" on="0"/>
        <pt x="635" y="-10" on="0"/>
        <pt x="599" y="-10" on="1"/>
        <pt x="568" y="-10" on="0"/>
        <pt x="510" y="12" on="0"/>
        <pt x="464" y="50" on="0"/>
        <pt x="431" y="101" on="0"/>
        <pt x="425" y="131" on="1"/>
        <pt x="396" y="66" on="0"/>
        <pt x="282" y="-10" on="0"/>
        <pt x="212" y="-10" on="1"/>
        <pt x="173" y="-10" on="0"/>
        <pt x="114" y="12" on="0"/>
        <pt x="75" y="50" on="0"/>
        <pt x="58" y="102" on="0"/>
        <pt x="62" y="132" on="1"/>
        <pt x="66" y="170" on="0"/>
        <pt x="102" y="226" on="0"/>
        <pt x="173" y="266" on="0"/>
        <pt x="282" y="293" on="0"/>
        <pt x="360" y="302" on="1"/>
        <pt x="357" y="293" on="0"/>
        <pt x="346" y="269" on="0"/>
        <pt x="327" y="246" on="0"/>
        <pt x="298" y="228" on="0"/>
        <pt x="278" y="225" on="1"/>
        <pt x="244" y="220" on="0"/>
        <pt x="201" y="202" on="0"/>
        <pt x="175" y="179" on="0"/>
        <pt x="163" y="152" on="0"/>
        <pt x="161" y="138" on="1"/>
        <pt x="157" y="107" on="0"/>
        <pt x="196" y="62" on="0"/>
        <pt x="234" y="62" on="1"/>
        <pt x="297" y="62" on="0"/>
        <pt x="379" y="165" on="0"/>
        <pt x="391" y="262" on="1"/>
        <pt x="398" y="321" on="1"/>
        <pt x="402" y="351" on="0"/>
        <pt x="394" y="400" on="0"/>
        <pt x="368" y="435" on="0"/>
        <pt x="322" y="455" on="0"/>
        <pt x="288" y="455" on="1"/>
        <pt x="261" y="455" on="0"/>
        <pt x="207" y="444" on="0"/>
        <pt x="169" y="431" on="1"/>
        <pt x="154" y="493" on="1"/>
        <pt x="205" y="514" on="0"/>
        <pt x="282" y="527" on="0"/>
        <pt x="315" y="527" on="1"/>
        <pt x="373" y="527" on="0"/>
        <pt x="453" y="467" on="0"/>
        <pt x="467" y="419" on="1"/>
        <pt x="482" y="442" on="0"/>
        <pt x="527" y="482" on="0"/>
        <pt x="579" y="511" on="0"/>
        <pt x="638" y="527" on="0"/>
        <pt x="668" y="527" on="1"/>
        <pt x="719" y="527" on="0"/>
        <pt x="793" y="481" on="0"/>
        <pt x="832" y="404" on="0"/>
        <pt x="831" y="304" on="0"/>
        <pt x="808" y="250" on="1"/>
        <pt x="518" y="250" on="1"/>
        <pt x="532" y="279" on="0"/>
        <pt x="575" y="317" on="0"/>
        <pt x="611" y="317" on="1"/>
      </contour>
    </TTGlyph>
    <TTGlyph name="agrave" xMin="72" yMin="-11" xMax="551" yMax="740">
      <contour>
        <pt x="512" y="176" on="1"/>
        <pt x="504" y="116" on="0"/>
        <pt x="504" y="31" on="0"/>
        <pt x="507" y="5" on="1"/>
        <pt x="439" y="0" on="1"/>
        <pt x="425" y="9" on="0"/>
        <pt x="404" y="53" on="0"/>
        <pt x="409" y="82" on="1"/>
        <pt x="454" y="444" on="1"/>
        <pt x="431" y="450" on="0"/>
        <pt x="392" y="455" on="0"/>
        <pt x="369" y="455" on="1"/>
        <pt x="294" y="455" on="0"/>
        <pt x="190" y="353" on="0"/>
        <pt x="178" y="256" on="1"/>
        <pt x="173" y="214" on="0"/>
        <pt x="181" y="141" on="0"/>
        <pt x="208" y="90" on="0"/>
        <pt x="255" y="65" on="0"/>
        <pt x="290" y="71" on="1"/>
        <pt x="312" y="74" on="0"/>
        <pt x="351" y="60" on="0"/>
        <pt x="368" y="38" on="1"/>
        <pt x="342" y="20" on="0"/>
        <pt x="289" y="-1" on="0"/>
        <pt x="266" y="-5" on="1"/>
        <pt x="221" y="-11" on="0"/>
        <pt x="146" y="23" on="0"/>
        <pt x="95" y="94" on="0"/>
        <pt x="72" y="195" on="0"/>
        <pt x="80" y="256" on="1"/>
        <pt x="87" y="317" on="0"/>
        <pt x="139" y="417" on="0"/>
        <pt x="218" y="488" on="0"/>
        <pt x="320" y="527" on="0"/>
        <pt x="378" y="527" on="1"/>
        <pt x="420" y="527" on="0"/>
        <pt x="501" y="512" on="0"/>
        <pt x="551" y="495" on="1"/>
      </contour>
      <contour>
        <pt x="270" y="740" on="1"/>
        <pt x="365" y="740" on="1"/>
        <pt x="421" y="602" on="1"/>
        <pt x="395" y="596" on="0"/>
        <pt x="345" y="607" on="0"/>
        <pt x="329" y="631" on="1"/>
      </contour>
    </TTGlyph>
    <TTGlyph name="ampersand" xMin="143" yMin="-11" xMax="715" yMax="737">
      <contour>
        <pt x="405" y="70" on="1"/>
        <pt x="471" y="91" on="0"/>
        <pt x="513" y="51" on="1"/>
        <pt x="474" y="22" on="0"/>
        <pt x="388" y="-11" on="0"/>
        <pt x="333" y="-11" on="1"/>
        <pt x="282" y="-11" on="0"/>
        <pt x="208" y="27" on="0"/>
        <pt x="162" y="88" on="0"/>
        <pt x="143" y="167" on="0"/>
        <pt x="148" y="209" on="1"/>
        <pt x="152" y="243" on="0"/>
        <pt x="179" y="303" on="0"/>
        <pt x="219" y="354" on="0"/>
        <pt x="268" y="398" on="0"/>
        <pt x="295" y="416" on="1"/>
        <pt x="273" y="454" on="0"/>
        <pt x="254" y="527" on="0"/>
        <pt x="259" y="562" on="1"/>
        <pt x="263" y="599" on="0"/>
        <pt x="297" y="663" on="0"/>
        <pt x="353" y="710" on="0"/>
        <pt x="428" y="737" on="0"/>
        <pt x="474" y="737" on="1"/>
        <pt x="507" y="737" on="0"/>
        <pt x="582" y="720" on="0"/>
        <pt x="613" y="703" on="1"/>
        <pt x="581" y="640" on="1"/>
        <pt x="556" y="653" on="0"/>
        <pt x="490" y="665" on="0"/>
        <pt x="463" y="665" on="1"/>
        <pt x="416" y="665" on="0"/>
        <pt x="350" y="612" on="0"/>
        <pt x="345" y="571" on="1"/>
        <pt x="342" y="548" on="0"/>
        <pt x="350" y="509" on="0"/>
        <pt x="368" y="470" on="0"/>
        <pt x="396" y="429" on="0"/>
        <pt x="414" y="404" on="1"/>
        <pt x="561" y="205" on="1"/>
        <pt x="591" y="249" on="0"/>
        <pt x="629" y="330" on="0"/>
        <pt x="643" y="379" on="1"/>
        <pt x="715" y="379" on="1"/>
        <pt x="693" y="313" on="0"/>
        <pt x="641" y="197" on="0"/>
        <pt x="603" y="146" on="1"/>
        <pt x="712" y="0" on="1"/>
        <pt x="594" y="0" on="1"/>
        <pt x="332" y="358" on="1"/>
        <pt x="299" y="332" on="0"/>
        <pt x="252" y="267" on="0"/>
        <pt x="247" y="222" on="1"/>
        <pt x="238" y="150" on="0"/>
        <pt x="294" y="61" on="0"/>
        <pt x="357" y="61" on="1"/>
        <pt x="368" y="61" on="0"/>
        <pt x="390" y="65" on="0"/>
      </contour>
    </TTGlyph>
    <TTGlyph name="aring" xMin="72" yMin="-11" xMax="551" yMax="747">
      <contour>
        <pt x="512" y="176" on="1"/>
        <pt x="504" y="116" on="0"/>
        <pt x="504" y="31" on="0"/>
        <pt x="507" y="5" on="1"/>
        <pt x="439" y="0" on="1"/>
        <pt x="425" y="9" on="0"/>
        <pt x="404" y="53" on="0"/>
        <pt x="409" y="82" on="1"/>
        <pt x="454" y="444" on="1"/>
        <pt x="431" y="450" on="0"/>
        <pt x="392" y="455" on="0"/>
        <pt x="369" y="455" on="1"/>
        <pt x="294" y="455" on="0"/>
        <pt x="190" y="353" on="0"/>
        <pt x="178" y="256" on="1"/>
        <pt x="173" y="214" on="0"/>
        <pt x="181" y="141" on="0"/>
        <pt x="208" y="90" on="0"/>
        <pt x="255" y="65" on="0"/>
        <pt x="290" y="71" on="1"/>
        <pt x="312" y="74" on="0"/>
        <pt x="351" y="60" on="0"/>
        <pt x="368" y="38" on="1"/>
        <pt x="342" y="20" on="0"/>
        <pt x="289" y="-1" on="0"/>
        <pt x="266" y="-5" on="1"/>
        <pt x="221" y="-11" on="0"/>
        <pt x="146" y="23" on="0"/>
        <pt x="95" y="94" on="0"/>
        <pt x="72" y="195" on="0"/>
        <pt x="80" y="256" on="1"/>
        <pt x="87" y="317" on="0"/>
        <pt x="139" y="417" on="0"/>
        <pt x="218" y="488" on="0"/>
        <pt x="320" y="527" on="0"/>
        <pt x="378" y="527" on="1"/>
        <pt x="420" y="527" on="0"/>
        <pt x="501" y="512" on="0"/>
        <pt x="551" y="495" on="1"/>
      </contour>
      <contour>
        <pt x="386" y="571" on="1"/>
        <pt x="342" y="571" on="0"/>
        <pt x="293" y="620" on="0"/>
        <pt x="298" y="657" on="1"/>
        <pt x="303" y="696" on="0"/>
        <pt x="364" y="747" on="0"/>
        <pt x="408" y="747" on="1"/>
        <pt x="453" y="747" on="0"/>
        <pt x="499" y="697" on="0"/>
        <pt x="494" y="658" on="1"/>
        <pt x="489" y="620" on="0"/>
        <pt x="428" y="571" on="0"/>
      </contour>
      <contour>
        <pt x="390" y="608" on="1"/>
        <pt x="413" y="608" on="0"/>
        <pt x="444" y="637" on="0"/>
        <pt x="446" y="659" on="1"/>
        <pt x="449" y="681" on="0"/>
        <pt x="426" y="710" on="0"/>
        <pt x="403" y="710" on="1"/>
        <pt x="382" y="710" on="0"/>
        <pt x="351" y="680" on="0"/>
        <pt x="348" y="657" on="1"/>
        <pt x="346" y="638" on="0"/>
        <pt x="368" y="608" on="0"/>
      </contour>
    </TTGlyph>
    <TTGlyph name="asciicircum" xMin="109" yMin="210" xMax="572" yMax="727">
      <contour>
        <pt x="188" y="210" on="1"/>
        <pt x="109" y="210" on="1"/>
        <pt x="379" y="727" on="1"/>
        <pt x="430" y="727" on="1"/>
        <pt x="572" y="210" on="1"/>
        <pt x="495" y="210" on="1"/>
        <pt x="393" y="580" on="1"/>
        <pt x="390" y="606" on="1"/>
        <pt x="381" y="580" on="1"/>
      </contour>
    </TTGlyph>
    <TTGlyph name="asciitilde" xMin="91" yMin="228" xMax="615" yMax="384">
      <contour>
        <pt x="91" y="236" on="1"/>
        <pt x="104" y="311" on="0"/>
        <pt x="194" y="381" on="0"/>
        <pt x="259" y="382" on="1"/>
        <pt x="291" y="382" on="0"/>
        <pt x="347" y="357" on="0"/>
        <pt x="368" y="340" on="1"/>
        <pt x="390" y="323" on="0"/>
        <pt x="436" y="298" on="0"/>
        <pt x="470" y="298" on="1"/>
        <pt x="494" y="298" on="0"/>
        <pt x="527" y="346" on="0"/>
        <pt x="535" y="384" on="1"/>
        <pt x="615" y="376" on="1"/>
        <pt x="607" y="334" on="0"/>
        <pt x="576" y="278" on="0"/>
        <pt x="534" y="244" on="0"/>
        <pt x="481" y="230" on="0"/>
        <pt x="451" y="230" on="1"/>
        <pt x="417" y="229" on="0"/>
        <pt x="360" y="255" on="0"/>
        <pt x="339" y="272" on="1"/>
        <pt x="316" y="289" on="0"/>
        <pt x="273" y="314" on="0"/>
        <pt x="242" y="314" on="1"/>
        <pt x="218" y="313" on="0"/>
        <pt x="178" y="270" on="0"/>
        <pt x="170" y="228" on="1"/>
      </contour>
    </TTGlyph>
    <TTGlyph name="asterisk" xMin="113" yMin="354" xMax="521" yMax="737">
      <contour>
        <pt x="409" y="737" on="1"/>
        <pt x="470" y="699" on="1"/>
        <pt x="434" y="658" on="0"/>
        <pt x="390" y="607" on="0"/>
        <pt x="366" y="578" on="0"/>
        <pt x="358" y="568" on="0"/>
        <pt x="358" y="568" on="1"/>
        <pt x="521" y="584" on="1"/>
        <pt x="512" y="508" on="1"/>
        <pt x="452" y="515" on="0"/>
        <pt x="386" y="521" on="0"/>
        <pt x="356" y="523" on="0"/>
        <pt x="351" y="523" on="0"/>
        <pt x="352" y="523" on="1"/>
        <pt x="431" y="392" on="1"/>
        <pt x="360" y="354" on="1"/>
        <pt x="312" y="502" on="1"/>
        <pt x="227" y="354" on="1"/>
        <pt x="166" y="392" on="1"/>
        <pt x="276" y="524" on="1"/>
        <pt x="113" y="508" on="1"/>
        <pt x="122" y="584" on="1"/>
        <pt x="282" y="569" on="1"/>
        <pt x="201" y="699" on="1"/>
        <pt x="272" y="737" on="1"/>
        <pt x="323" y="590" on="1"/>
      </contour>
    </TTGlyph>
    <TTGlyph name="at" xMin="104" yMin="-122" xMax="864" yMax="638">
      <contour>
        <pt x="633" y="116" on="1"/>
        <pt x="636" y="118" on="0"/>
        <pt x="646" y="126" on="0"/>
        <pt x="649" y="128" on="1"/>
        <pt x="713" y="166" on="0"/>
        <pt x="773" y="255" on="0"/>
        <pt x="781" y="313" on="1"/>
        <pt x="789" y="376" on="0"/>
        <pt x="761" y="475" on="0"/>
        <pt x="696" y="543" on="0"/>
        <pt x="596" y="579" on="0"/>
        <pt x="532" y="579" on="1"/>
        <pt x="468" y="579" on="0"/>
        <pt x="353" y="539" on="0"/>
        <pt x="262" y="459" on="0"/>
        <pt x="201" y="338" on="0"/>
        <pt x="191" y="257" on="1"/>
        <pt x="181" y="176" on="0"/>
        <pt x="212" y="56" on="0"/>
        <pt x="281" y="-23" on="0"/>
        <pt x="380" y="-63" on="0"/>
        <pt x="439" y="-63" on="1"/>
        <pt x="461" y="-63" on="0"/>
        <pt x="502" y="-61" on="0"/>
        <pt x="546" y="-54" on="0"/>
        <pt x="598" y="-42" on="0"/>
        <pt x="630" y="-32" on="1"/>
        <pt x="644" y="-87" on="1"/>
        <pt x="607" y="-98" on="0"/>
        <pt x="550" y="-112" on="0"/>
        <pt x="501" y="-119" on="0"/>
        <pt x="457" y="-122" on="0"/>
        <pt x="432" y="-122" on="1"/>
        <pt x="355" y="-122" on="0"/>
        <pt x="228" y="-79" on="0"/>
        <pt x="142" y="13" on="0"/>
        <pt x="104" y="156" on="0"/>
        <pt x="116" y="257" on="1"/>
        <pt x="128" y="350" on="0"/>
        <pt x="206" y="493" on="0"/>
        <pt x="322" y="589" on="0"/>
        <pt x="464" y="638" on="0"/>
        <pt x="540" y="638" on="1"/>
        <pt x="617" y="638" on="0"/>
        <pt x="742" y="594" on="0"/>
        <pt x="826" y="511" on="0"/>
        <pt x="864" y="390" on="0"/>
        <pt x="855" y="313" on="1"/>
        <pt x="841" y="205" on="0"/>
        <pt x="695" y="76" on="0"/>
        <pt x="584" y="56" on="1"/>
        <pt x="573" y="62" on="0"/>
        <pt x="565" y="80" on="0"/>
        <pt x="562" y="93" on="1"/>
        <pt x="562" y="112" on="1"/>
        <pt x="550" y="92" on="1"/>
        <pt x="517" y="63" on="0"/>
        <pt x="462" y="47" on="0"/>
        <pt x="435" y="47" on="1"/>
        <pt x="371" y="47" on="0"/>
        <pt x="307" y="108" on="0"/>
        <pt x="313" y="158" on="1"/>
        <pt x="320" y="219" on="0"/>
        <pt x="427" y="277" on="0"/>
        <pt x="540" y="289" on="1"/>
        <pt x="538" y="282" on="0"/>
        <pt x="530" y="262" on="0"/>
        <pt x="514" y="242" on="0"/>
        <pt x="491" y="227" on="0"/>
        <pt x="476" y="225" on="1"/>
        <pt x="431" y="219" on="0"/>
        <pt x="390" y="185" on="0"/>
        <pt x="387" y="162" on="1"/>
        <pt x="384" y="137" on="0"/>
        <pt x="421" y="106" on="0"/>
        <pt x="453" y="106" on="1"/>
        <pt x="479" y="106" on="0"/>
        <pt x="538" y="129" on="0"/>
        <pt x="565" y="160" on="1"/>
        <pt x="583" y="306" on="1"/>
        <pt x="589" y="352" on="0"/>
        <pt x="552" y="408" on="0"/>
        <pt x="498" y="408" on="1"/>
        <pt x="477" y="408" on="0"/>
        <pt x="426" y="399" on="0"/>
        <pt x="398" y="388" on="1"/>
        <pt x="384" y="439" on="1"/>
        <pt x="424" y="455" on="0"/>
        <pt x="487" y="466" on="0"/>
        <pt x="519" y="466" on="1"/>
        <pt x="594" y="466" on="0"/>
        <pt x="665" y="379" on="0"/>
        <pt x="655" y="301" on="1"/>
        <pt x="641" y="187" on="1"/>
        <pt x="639" y="175" on="0"/>
        <pt x="638" y="151" on="0"/>
        <pt x="637" y="140" on="1"/>
      </contour>
    </TTGlyph>
    <TTGlyph name="atilde" xMin="72" yMin="-11" xMax="551" yMax="734">
      <contour>
        <pt x="512" y="176" on="1"/>
        <pt x="504" y="116" on="0"/>
        <pt x="504" y="31" on="0"/>
        <pt x="507" y="5" on="1"/>
        <pt x="439" y="0" on="1"/>
        <pt x="425" y="9" on="0"/>
        <pt x="404" y="53" on="0"/>
        <pt x="409" y="82" on="1"/>
        <pt x="454" y="444" on="1"/>
        <pt x="431" y="450" on="0"/>
        <pt x="392" y="455" on="0"/>
        <pt x="369" y="455" on="1"/>
        <pt x="294" y="455" on="0"/>
        <pt x="190" y="353" on="0"/>
        <pt x="178" y="256" on="1"/>
        <pt x="173" y="214" on="0"/>
        <pt x="181" y="141" on="0"/>
        <pt x="208" y="90" on="0"/>
        <pt x="255" y="65" on="0"/>
        <pt x="290" y="71" on="1"/>
        <pt x="312" y="74" on="0"/>
        <pt x="351" y="60" on="0"/>
        <pt x="368" y="38" on="1"/>
        <pt x="342" y="20" on="0"/>
        <pt x="289" y="-1" on="0"/>
        <pt x="266" y="-5" on="1"/>
        <pt x="221" y="-11" on="0"/>
        <pt x="146" y="23" on="0"/>
        <pt x="95" y="94" on="0"/>
        <pt x="72" y="195" on="0"/>
        <pt x="80" y="256" on="1"/>
        <pt x="87" y="317" on="0"/>
        <pt x="139" y="417" on="0"/>
        <pt x="218" y="488" on="0"/>
        <pt x="320" y="527" on="0"/>
        <pt x="378" y="527" on="1"/>
        <pt x="420" y="527" on="0"/>
        <pt x="501" y="512" on="0"/>
        <pt x="551" y="495" on="1"/>
      </contour>
      <contour>
        <pt x="228" y="624" on="1"/>
        <pt x="236" y="681" on="0"/>
        <pt x="294" y="731" on="0"/>
        <pt x="330" y="732" on="1"/>
        <pt x="367" y="732" on="0"/>
        <pt x="391" y="708" on="1"/>
        <pt x="403" y="696" on="0"/>
        <pt x="422" y="676" on="0"/>
        <pt x="442" y="676" on="1"/>
        <pt x="467" y="676" on="0"/>
        <pt x="480" y="734" on="1"/>
        <pt x="532" y="728" on="1"/>
        <pt x="527" y="696" on="0"/>
        <pt x="506" y="655" on="0"/>
        <pt x="479" y="630" on="0"/>
        <pt x="449" y="620" on="0"/>
        <pt x="435" y="620" on="1"/>
        <pt x="394" y="620" on="0"/>
        <pt x="372" y="643" on="1"/>
        <pt x="359" y="655" on="0"/>
        <pt x="342" y="676" on="0"/>
        <pt x="325" y="676" on="1"/>
        <pt x="312" y="676" on="0"/>
        <pt x="289" y="650" on="0"/>
        <pt x="282" y="618" on="1"/>
      </contour>
    </TTGlyph>
    <TTGlyph name="b" xMin="87" yMin="-10" xMax="569" yMax="758">
      <contour>
        <pt x="269" y="490" on="1"/>
        <pt x="296" y="504" on="0"/>
        <pt x="356" y="521" on="0"/>
        <pt x="379" y="522" on="1"/>
        <pt x="420" y="524" on="0"/>
        <pt x="493" y="492" on="0"/>
        <pt x="545" y="426" on="0"/>
        <pt x="569" y="326" on="0"/>
        <pt x="561" y="261" on="1"/>
        <pt x="553" y="201" on="0"/>
        <pt x="504" y="102" on="0"/>
        <pt x="429" y="30" on="0"/>
        <pt x="331" y="-10" on="0"/>
        <pt x="275" y="-10" on="1"/>
        <pt x="167" y="-10" on="0"/>
        <pt x="87" y="40" on="1"/>
        <pt x="176" y="758" on="1"/>
        <pt x="268" y="751" on="1"/>
        <pt x="185" y="78" on="1"/>
        <pt x="208" y="69" on="0"/>
        <pt x="261" y="62" on="0"/>
        <pt x="284" y="62" on="1"/>
        <pt x="320" y="62" on="0"/>
        <pt x="380" y="91" on="0"/>
        <pt x="427" y="143" on="0"/>
        <pt x="457" y="217" on="0"/>
        <pt x="463" y="261" on="1"/>
        <pt x="475" y="361" on="0"/>
        <pt x="407" y="456" on="0"/>
        <pt x="343" y="448" on="1"/>
        <pt x="298" y="444" on="0"/>
      </contour>
    </TTGlyph>
    <TTGlyph name="backslash" xMin="114" yMin="-62" xMax="349" yMax="727">
      <contour>
        <pt x="260" y="-62" on="1"/>
        <pt x="114" y="727" on="1"/>
        <pt x="203" y="727" on="1"/>
        <pt x="349" y="-62" on="1"/>
      </contour>
    </TTGlyph>
    <TTGlyph name="bar" xMin="79" yMin="-293" xMax="294" yMax="811">
      <contour>
        <pt x="79" y="-293" on="1"/>
        <pt x="214" y="811" on="1"/>
        <pt x="294" y="811" on="1"/>
        <pt x="159" y="-293" on="1"/>
      </contour>
    </TTGlyph>
    <TTGlyph name="braceleft" xMin="115" yMin="-176" xMax="488" yMax="767">
      <contour>
        <pt x="202" y="192" on="1"/>
        <pt x="204" y="227" on="0"/>
        <pt x="153" y="268" on="0"/>
        <pt x="115" y="275" on="1"/>
        <pt x="122" y="332" on="1"/>
        <pt x="161" y="339" on="0"/>
        <pt x="225" y="380" on="0"/>
        <pt x="231" y="415" on="1"/>
        <pt x="243" y="476" on="0"/>
        <pt x="278" y="578" on="0"/>
        <pt x="331" y="664" on="0"/>
        <pt x="404" y="736" on="0"/>
        <pt x="454" y="767" on="1"/>
        <pt x="488" y="717" on="1"/>
        <pt x="447" y="688" on="0"/>
        <pt x="390" y="627" on="0"/>
        <pt x="349" y="560" on="0"/>
        <pt x="323" y="484" on="0"/>
        <pt x="314" y="439" on="1"/>
        <pt x="306" y="397" on="0"/>
        <pt x="258" y="335" on="0"/>
        <pt x="224" y="314" on="1"/>
        <pt x="198" y="303" on="1"/>
        <pt x="222" y="291" on="1"/>
        <pt x="251" y="270" on="0"/>
        <pt x="284" y="209" on="0"/>
        <pt x="281" y="168" on="1"/>
        <pt x="278" y="120" on="0"/>
        <pt x="284" y="38" on="0"/>
        <pt x="306" y="-32" on="0"/>
        <pt x="349" y="-96" on="0"/>
        <pt x="384" y="-126" on="1"/>
        <pt x="338" y="-176" on="1"/>
        <pt x="294" y="-143" on="0"/>
        <pt x="238" y="-70" on="0"/>
        <pt x="206" y="18" on="0"/>
        <pt x="198" y="126" on="0"/>
      </contour>
    </TTGlyph>
    <TTGlyph name="braceright" xMin="66" yMin="-176" xMax="440" yMax="767">
      <contour>
        <pt x="326" y="192" on="1"/>
        <pt x="314" y="126" on="0"/>
        <pt x="279" y="18" on="0"/>
        <pt x="227" y="-70" on="0"/>
        <pt x="152" y="-143" on="0"/>
        <pt x="100" y="-176" on="1"/>
        <pt x="66" y="-126" on="1"/>
        <pt x="108" y="-96" on="0"/>
        <pt x="166" y="-32" on="0"/>
        <pt x="207" y="38" on="0"/>
        <pt x="232" y="120" on="0"/>
        <pt x="241" y="168" on="1"/>
        <pt x="249" y="210" on="0"/>
        <pt x="297" y="272" on="0"/>
        <pt x="332" y="293" on="1"/>
        <pt x="358" y="303" on="1"/>
        <pt x="334" y="314" on="1"/>
        <pt x="305" y="335" on="0"/>
        <pt x="272" y="397" on="0"/>
        <pt x="274" y="439" on="1"/>
        <pt x="276" y="484" on="0"/>
        <pt x="269" y="560" on="0"/>
        <pt x="245" y="627" on="0"/>
        <pt x="203" y="688" on="0"/>
        <pt x="170" y="717" on="1"/>
        <pt x="216" y="767" on="1"/>
        <pt x="258" y="736" on="0"/>
        <pt x="313" y="664" on="0"/>
        <pt x="344" y="578" on="0"/>
        <pt x="354" y="476" on="0"/>
        <pt x="351" y="415" on="1"/>
        <pt x="350" y="397" on="0"/>
        <pt x="364" y="370" on="0"/>
        <pt x="388" y="349" on="0"/>
        <pt x="421" y="335" on="0"/>
        <pt x="440" y="332" on="1"/>
        <pt x="433" y="275" on="1"/>
        <pt x="394" y="268" on="0"/>
        <pt x="333" y="227" on="0"/>
      </contour>
    </TTGlyph>
    <TTGlyph name="bracketleft" xMin="120" yMin="-199" xMax="496" yMax="771">
      <contour>
        <pt x="239" y="771" on="1"/>
        <pt x="496" y="771" on="1"/>
        <pt x="487" y="699" on="1"/>
        <pt x="316" y="699" on="1"/>
        <pt x="215" y="-127" on="1"/>
        <pt x="387" y="-127" on="1"/>
        <pt x="377" y="-199" on="1"/>
        <pt x="120" y="-199" on="1"/>
      </contour>
    </TTGlyph>
    <TTGlyph name="bracketright" xMin="29" yMin="-199" xMax="404" yMax="771">
      <contour>
        <pt x="285" y="-199" on="1"/>
        <pt x="29" y="-199" on="1"/>
        <pt x="37" y="-127" on="1"/>
        <pt x="209" y="-127" on="1"/>
        <pt x="310" y="699" on="1"/>
        <pt x="139" y="699" on="1"/>
        <pt x="148" y="771" on="1"/>
        <pt x="404" y="771" on="1"/>
      </contour>
    </TTGlyph>
    <TTGlyph name="brokenbar" xMin="55" yMin="-293" xMax="270" yMax="811">
      <contour>
        <pt x="138" y="387" on="1"/>
        <pt x="190" y="811" on="1"/>
        <pt x="270" y="811" on="1"/>
        <pt x="218" y="387" on="1"/>
      </contour>
      <contour>
        <pt x="55" y="-293" on="1"/>
        <pt x="108" y="141" on="1"/>
        <pt x="188" y="141" on="1"/>
        <pt x="135" y="-293" on="1"/>
      </contour>
    </TTGlyph>
    <TTGlyph name="bullet" xMin="217" yMin="241" xMax="375" yMax="391">
      <contour>
        <pt x="221" y="315" on="1"/>
        <pt x="225" y="347" on="0"/>
        <pt x="273" y="391" on="0"/>
        <pt x="305" y="391" on="1"/>
        <pt x="337" y="391" on="0"/>
        <pt x="375" y="347" on="0"/>
        <pt x="371" y="315" on="1"/>
        <pt x="367" y="283" on="0"/>
        <pt x="318" y="241" on="0"/>
        <pt x="286" y="241" on="1"/>
        <pt x="254" y="241" on="0"/>
        <pt x="217" y="283" on="0"/>
      </contour>
    </TTGlyph>
    <TTGlyph name="c" xMin="65" yMin="-10" xMax="467" yMax="527">
      <contour>
        <pt x="281" y="-10" on="1"/>
        <pt x="231" y="-10" on="0"/>
        <pt x="147" y="25" on="0"/>
        <pt x="90" y="93" on="0"/>
        <pt x="65" y="194" on="0"/>
        <pt x="73" y="259" on="1"/>
        <pt x="81" y="324" on="0"/>
        <pt x="133" y="424" on="0"/>
        <pt x="207" y="492" on="0"/>
        <pt x="299" y="527" on="0"/>
        <pt x="347" y="527" on="1"/>
        <pt x="374" y="527" on="0"/>
        <pt x="438" y="517" on="0"/>
        <pt x="467" y="506" on="1"/>
        <pt x="436" y="441" on="1"/>
        <pt x="408" y="449" on="0"/>
        <pt x="361" y="455" on="0"/>
        <pt x="338" y="455" on="1"/>
        <pt x="309" y="455" on="0"/>
        <pt x="255" y="431" on="0"/>
        <pt x="210" y="383" on="0"/>
        <pt x="178" y="309" on="0"/>
        <pt x="172" y="259" on="1"/>
        <pt x="166" y="208" on="0"/>
        <pt x="180" y="134" on="0"/>
        <pt x="213" y="86" on="0"/>
        <pt x="261" y="62" on="0"/>
        <pt x="290" y="62" on="1"/>
        <pt x="312" y="62" on="0"/>
        <pt x="367" y="75" on="0"/>
        <pt x="404" y="91" on="1"/>
        <pt x="421" y="25" on="1"/>
        <pt x="377" y="5" on="0"/>
        <pt x="304" y="-10" on="0"/>
      </contour>
    </TTGlyph>
    <TTGlyph name="ccedilla" xMin="66" yMin="-206" xMax="467" yMax="527">
      <contour>
        <pt x="276" y="-10" on="1"/>
        <pt x="261" y="-50" on="1"/>
        <pt x="275" y="-52" on="0"/>
        <pt x="302" y="-63" on="0"/>
        <pt x="323" y="-82" on="0"/>
        <pt x="334" y="-108" on="0"/>
        <pt x="332" y="-123" on="1"/>
        <pt x="329" y="-146" on="0"/>
        <pt x="305" y="-177" on="0"/>
        <pt x="270" y="-197" on="0"/>
        <pt x="228" y="-206" on="0"/>
        <pt x="208" y="-206" on="1"/>
        <pt x="191" y="-206" on="0"/>
        <pt x="155" y="-198" on="0"/>
        <pt x="132" y="-187" on="1"/>
        <pt x="151" y="-144" on="1"/>
        <pt x="169" y="-152" on="0"/>
        <pt x="199" y="-157" on="0"/>
        <pt x="214" y="-157" on="1"/>
        <pt x="231" y="-157" on="0"/>
        <pt x="269" y="-144" on="0"/>
        <pt x="271" y="-126" on="1"/>
        <pt x="273" y="-107" on="0"/>
        <pt x="236" y="-88" on="0"/>
        <pt x="201" y="-84" on="1"/>
        <pt x="232" y="-5" on="1"/>
        <pt x="191" y="2" on="0"/>
        <pt x="127" y="44" on="0"/>
        <pt x="84" y="111" on="0"/>
        <pt x="66" y="202" on="0"/>
        <pt x="73" y="259" on="1"/>
        <pt x="81" y="324" on="0"/>
        <pt x="133" y="424" on="0"/>
        <pt x="207" y="492" on="0"/>
        <pt x="299" y="527" on="0"/>
        <pt x="347" y="527" on="1"/>
        <pt x="374" y="527" on="0"/>
        <pt x="438" y="517" on="0"/>
        <pt x="467" y="506" on="1"/>
        <pt x="434" y="440" on="1"/>
        <pt x="408" y="448" on="0"/>
        <pt x="361" y="455" on="0"/>
        <pt x="338" y="455" on="1"/>
        <pt x="309" y="455" on="0"/>
        <pt x="255" y="431" on="0"/>
        <pt x="210" y="383" on="0"/>
        <pt x="178" y="309" on="0"/>
        <pt x="172" y="259" on="1"/>
        <pt x="166" y="208" on="0"/>
        <pt x="180" y="134" on="0"/>
        <pt x="213" y="86" on="0"/>
        <pt x="261" y="62" on="0"/>
        <pt x="290" y="62" on="1"/>
        <pt x="312" y="62" on="0"/>
        <pt x="367" y="75" on="0"/>
        <pt x="404" y="91" on="1"/>
        <pt x="421" y="25" on="1"/>
        <pt x="377" y="5" on="0"/>
        <pt x="304" y="-10" on="0"/>
        <pt x="281" y="-10" on="1"/>
      </contour>
    </TTGlyph>
    <TTGlyph name="cedilla" xMin="132" yMin="-206" xMax="334" yMax="2">
      <contour>
        <pt x="281" y="2" on="1"/>
        <pt x="261" y="-50" on="1"/>
        <pt x="275" y="-52" on="0"/>
        <pt x="302" y="-63" on="0"/>
        <pt x="323" y="-82" on="0"/>
        <pt x="334" y="-108" on="0"/>
        <pt x="332" y="-123" on="1"/>
        <pt x="329" y="-146" on="0"/>
        <pt x="305" y="-177" on="0"/>
        <pt x="270" y="-197" on="0"/>
        <pt x="228" y="-206" on="0"/>
        <pt x="208" y="-206" on="1"/>
        <pt x="191" y="-206" on="0"/>
        <pt x="155" y="-198" on="0"/>
        <pt x="132" y="-187" on="1"/>
        <pt x="151" y="-144" on="1"/>
        <pt x="169" y="-152" on="0"/>
        <pt x="199" y="-157" on="0"/>
        <pt x="214" y="-157" on="1"/>
        <pt x="231" y="-157" on="0"/>
        <pt x="269" y="-144" on="0"/>
        <pt x="271" y="-126" on="1"/>
        <pt x="273" y="-107" on="0"/>
        <pt x="236" y="-88" on="0"/>
        <pt x="201" y="-84" on="1"/>
        <pt x="233" y="-2" on="1"/>
      </contour>
    </TTGlyph>
    <TTGlyph name="cent" xMin="78" yMin="-14" xMax="478" yMax="716">
      <contour>
        <pt x="432" y="120" on="1"/>
        <pt x="401" y="105" on="0"/>
        <pt x="347" y="90" on="0"/>
        <pt x="324" y="87" on="1"/>
        <pt x="312" y="-14" on="1"/>
        <pt x="240" y="-14" on="1"/>
        <pt x="252" y="88" on="1"/>
        <pt x="210" y="94" on="0"/>
        <pt x="141" y="135" on="0"/>
        <pt x="96" y="203" on="0"/>
        <pt x="78" y="295" on="0"/>
        <pt x="85" y="354" on="1"/>
        <pt x="92" y="412" on="0"/>
        <pt x="135" y="504" on="0"/>
        <pt x="197" y="570" on="0"/>
        <pt x="275" y="611" on="0"/>
        <pt x="317" y="618" on="1"/>
        <pt x="329" y="716" on="1"/>
        <pt x="401" y="716" on="1"/>
        <pt x="390" y="621" on="1"/>
        <pt x="411" y="619" on="0"/>
        <pt x="458" y="609" on="0"/>
        <pt x="478" y="601" on="1"/>
        <pt x="445" y="535" on="1"/>
        <pt x="419" y="543" on="0"/>
        <pt x="373" y="550" on="0"/>
        <pt x="350" y="550" on="1"/>
        <pt x="321" y="550" on="0"/>
        <pt x="267" y="526" on="0"/>
        <pt x="222" y="478" on="0"/>
        <pt x="190" y="404" on="0"/>
        <pt x="184" y="354" on="1"/>
        <pt x="178" y="303" on="0"/>
        <pt x="191" y="229" on="0"/>
        <pt x="224" y="181" on="0"/>
        <pt x="273" y="157" on="0"/>
        <pt x="302" y="157" on="1"/>
        <pt x="324" y="157" on="0"/>
        <pt x="379" y="170" on="0"/>
        <pt x="415" y="186" on="1"/>
      </contour>
    </TTGlyph>
    <TTGlyph name="circumflex" xMin="217" yMin="589" xMax="494" yMax="743">
      <contour>
        <pt x="401" y="743" on="1"/>
        <pt x="494" y="598" on="1"/>
        <pt x="441" y="590" on="1"/>
        <pt x="363" y="674" on="1"/>
        <pt x="265" y="589" on="1"/>
        <pt x="217" y="598" on="1"/>
        <pt x="344" y="743" on="1"/>
      </contour>
    </TTGlyph>
    <TTGlyph name="colon" xMin="95" yMin="-15" xMax="268" yMax="486">
      <contour>
        <pt x="98" y="44" on="1"/>
        <pt x="101" y="70" on="0"/>
        <pt x="138" y="105" on="0"/>
        <pt x="164" y="105" on="1"/>
        <pt x="190" y="105" on="0"/>
        <pt x="221" y="70" on="0"/>
        <pt x="218" y="44" on="1"/>
        <pt x="215" y="18" on="0"/>
        <pt x="176" y="-15" on="0"/>
        <pt x="150" y="-15" on="1"/>
        <pt x="124" y="-15" on="0"/>
        <pt x="95" y="18" on="0"/>
      </contour>
      <contour>
        <pt x="145" y="425" on="1"/>
        <pt x="148" y="451" on="0"/>
        <pt x="185" y="486" on="0"/>
        <pt x="211" y="486" on="1"/>
        <pt x="237" y="486" on="0"/>
        <pt x="268" y="451" on="0"/>
        <pt x="265" y="425" on="1"/>
        <pt x="262" y="399" on="0"/>
        <pt x="222" y="366" on="0"/>
        <pt x="196" y="366" on="1"/>
        <pt x="170" y="366" on="0"/>
        <pt x="142" y="399" on="0"/>
      </contour>
    </TTGlyph>
    <TTGlyph name="comma" xMin="43" yMin="-104" xMax="155" yMax="98">
      <contour>
        <pt x="68" y="98" on="1"/>
        <pt x="155" y="98" on="1"/>
        <pt x="145" y="20" on="1"/>
        <pt x="142" y="0" on="0"/>
        <pt x="129" y="-47" on="0"/>
        <pt x="105" y="-84" on="0"/>
        <pt x="69" y="-104" on="0"/>
        <pt x="43" y="-98" on="1"/>
      </contour>
    </TTGlyph>
    <TTGlyph name="copyright" xMin="67" yMin="31" xMax="730" yMax="680">
      <contour>
        <pt x="440" y="680" on="1"/>
        <pt x="512" y="680" on="0"/>
        <pt x="624" y="629" on="0"/>
        <pt x="698" y="541" on="0"/>
        <pt x="730" y="424" on="0"/>
        <pt x="722" y="357" on="1"/>
        <pt x="714" y="289" on="0"/>
        <pt x="653" y="170" on="0"/>
        <pt x="557" y="82" on="0"/>
        <pt x="432" y="31" on="0"/>
        <pt x="360" y="31" on="1"/>
        <pt x="287" y="31" on="0"/>
        <pt x="174" y="82" on="0"/>
        <pt x="99" y="170" on="0"/>
        <pt x="67" y="289" on="0"/>
        <pt x="75" y="357" on="1"/>
        <pt x="83" y="424" on="0"/>
        <pt x="145" y="541" on="0"/>
        <pt x="241" y="629" on="0"/>
        <pt x="367" y="680" on="0"/>
      </contour>
      <contour>
        <pt x="433" y="623" on="1"/>
        <pt x="376" y="623" on="0"/>
        <pt x="278" y="583" on="0"/>
        <pt x="203" y="512" on="0"/>
        <pt x="154" y="414" on="0"/>
        <pt x="147" y="354" on="1"/>
        <pt x="140" y="295" on="0"/>
        <pt x="165" y="198" on="0"/>
        <pt x="223" y="128" on="0"/>
        <pt x="311" y="89" on="0"/>
        <pt x="367" y="89" on="1"/>
        <pt x="422" y="88" on="0"/>
        <pt x="519" y="127" on="0"/>
        <pt x="594" y="198" on="0"/>
        <pt x="643" y="297" on="0"/>
        <pt x="650" y="357" on="1"/>
        <pt x="657" y="415" on="0"/>
        <pt x="633" y="513" on="0"/>
        <pt x="576" y="584" on="0"/>
        <pt x="488" y="623" on="0"/>
      </contour>
      <contour>
        <pt x="398" y="176" on="1"/>
        <pt x="365" y="176" on="0"/>
        <pt x="309" y="200" on="0"/>
        <pt x="270" y="246" on="0"/>
        <pt x="253" y="313" on="0"/>
        <pt x="258" y="357" on="1"/>
        <pt x="264" y="400" on="0"/>
        <pt x="298" y="468" on="0"/>
        <pt x="348" y="513" on="0"/>
        <pt x="409" y="537" on="0"/>
        <pt x="442" y="537" on="1"/>
        <pt x="482" y="537" on="0"/>
        <pt x="524" y="523" on="1"/>
        <pt x="501" y="475" on="1"/>
        <pt x="484" y="481" on="0"/>
        <pt x="451" y="485" on="0"/>
        <pt x="436" y="485" on="1"/>
        <pt x="417" y="485" on="0"/>
        <pt x="381" y="469" on="0"/>
        <pt x="351" y="437" on="0"/>
        <pt x="329" y="389" on="0"/>
        <pt x="325" y="357" on="1"/>
        <pt x="317" y="291" on="0"/>
        <pt x="366" y="227" on="0"/>
        <pt x="404" y="227" on="1"/>
        <pt x="418" y="227" on="0"/>
        <pt x="457" y="235" on="0"/>
        <pt x="482" y="246" on="1"/>
        <pt x="493" y="199" on="1"/>
        <pt x="464" y="185" on="0"/>
        <pt x="414" y="176" on="0"/>
      </contour>
    </TTGlyph>
    <TTGlyph name="currency" xMin="48" yMin="108" xMax="552" yMax="574">
      <contour>
        <pt x="322" y="544" on="1"/>
        <pt x="357" y="544" on="0"/>
        <pt x="414" y="522" on="0"/>
        <pt x="433" y="504" on="1"/>
        <pt x="518" y="574" on="1"/>
        <pt x="552" y="533" on="1"/>
        <pt x="465" y="462" on="1"/>
        <pt x="477" y="442" on="0"/>
        <pt x="491" y="381" on="0"/>
        <pt x="486" y="345" on="1"/>
        <pt x="481" y="303" on="0"/>
        <pt x="452" y="241" on="0"/>
        <pt x="436" y="222" on="1"/>
        <pt x="502" y="148" on="1"/>
        <pt x="457" y="108" on="1"/>
        <pt x="393" y="181" on="1"/>
        <pt x="367" y="159" on="0"/>
        <pt x="300" y="138" on="0"/>
        <pt x="270" y="138" on="1"/>
        <pt x="239" y="138" on="0"/>
        <pt x="179" y="159" on="0"/>
        <pt x="161" y="178" on="1"/>
        <pt x="83" y="108" on="1"/>
        <pt x="48" y="148" on="1"/>
        <pt x="128" y="219" on="1"/>
        <pt x="116" y="239" on="0"/>
        <pt x="101" y="302" on="0"/>
        <pt x="106" y="339" on="1"/>
        <pt x="111" y="378" on="0"/>
        <pt x="142" y="441" on="0"/>
        <pt x="160" y="462" on="1"/>
        <pt x="94" y="533" on="1"/>
        <pt x="138" y="574" on="1"/>
        <pt x="203" y="503" on="1"/>
        <pt x="226" y="522" on="0"/>
        <pt x="289" y="544" on="0"/>
      </contour>
      <contour>
        <pt x="314" y="485" on="1"/>
        <pt x="286" y="485" on="0"/>
        <pt x="239" y="462" on="0"/>
        <pt x="204" y="422" on="0"/>
        <pt x="181" y="369" on="0"/>
        <pt x="177" y="340" on="1"/>
        <pt x="172" y="304" on="0"/>
        <pt x="189" y="250" on="0"/>
        <pt x="219" y="214" on="0"/>
        <pt x="259" y="197" on="0"/>
        <pt x="278" y="197" on="1"/>
        <pt x="299" y="197" on="0"/>
        <pt x="343" y="214" on="0"/>
        <pt x="382" y="250" on="0"/>
        <pt x="410" y="305" on="0"/>
        <pt x="415" y="344" on="1"/>
        <pt x="418" y="370" on="0"/>
        <pt x="409" y="420" on="0"/>
        <pt x="384" y="460" on="0"/>
        <pt x="343" y="485" on="0"/>
      </contour>
    </TTGlyph>
    <TTGlyph name="d" xMin="76" yMin="-10" xMax="602" yMax="758">
      <contour>
        <pt x="83" y="261" on="1"/>
        <pt x="90" y="321" on="0"/>
        <pt x="141" y="418" on="0"/>
        <pt x="214" y="486" on="0"/>
        <pt x="302" y="523" on="0"/>
        <pt x="347" y="523" on="1"/>
        <pt x="370" y="523" on="0"/>
        <pt x="419" y="516" on="0"/>
        <pt x="445" y="506" on="1"/>
        <pt x="428" y="481" on="0"/>
        <pt x="379" y="450" on="0"/>
        <pt x="344" y="451" on="1"/>
        <pt x="318" y="452" on="0"/>
        <pt x="266" y="431" on="0"/>
        <pt x="221" y="385" on="0"/>
        <pt x="188" y="312" on="0"/>
        <pt x="182" y="261" on="1"/>
        <pt x="176" y="217" on="0"/>
        <pt x="185" y="144" on="0"/>
        <pt x="213" y="92" on="0"/>
        <pt x="260" y="62" on="0"/>
        <pt x="293" y="62" on="1"/>
        <pt x="364" y="62" on="0"/>
        <pt x="433" y="135" on="1"/>
        <pt x="510" y="758" on="1"/>
        <pt x="602" y="751" on="1"/>
        <pt x="531" y="176" on="1"/>
        <pt x="523" y="116" on="0"/>
        <pt x="523" y="31" on="0"/>
        <pt x="526" y="5" on="1"/>
        <pt x="458" y="0" on="1"/>
        <pt x="447" y="11" on="0"/>
        <pt x="434" y="34" on="0"/>
        <pt x="429" y="54" on="1"/>
        <pt x="429" y="70" on="1"/>
        <pt x="419" y="53" on="1"/>
        <pt x="384" y="18" on="0"/>
        <pt x="300" y="-10" on="0"/>
        <pt x="269" y="-10" on="1"/>
        <pt x="216" y="-10" on="0"/>
        <pt x="140" y="32" on="0"/>
        <pt x="93" y="105" on="0"/>
        <pt x="76" y="204" on="0"/>
      </contour>
    </TTGlyph>
    <TTGlyph name="dagger" xMin="71" yMin="-30" xMax="584" yMax="697">
      <contour>
        <pt x="307" y="-30" on="1"/>
        <pt x="233" y="-30" on="1"/>
        <pt x="322" y="697" on="1"/>
        <pt x="396" y="697" on="1"/>
      </contour>
      <contour>
        <pt x="480" y="407" on="1"/>
        <pt x="444" y="407" on="0"/>
        <pt x="411" y="447" on="0"/>
        <pt x="404" y="476" on="1"/>
        <pt x="584" y="476" on="1"/>
        <pt x="575" y="407" on="1"/>
      </contour>
      <contour>
        <pt x="71" y="407" on="1"/>
        <pt x="80" y="476" on="1"/>
        <pt x="260" y="476" on="1"/>
        <pt x="246" y="447" on="0"/>
        <pt x="202" y="407" on="0"/>
        <pt x="166" y="407" on="1"/>
      </contour>
    </TTGlyph>
    <TTGlyph name="daggerdbl" xMin="66" yMin="-30" xMax="610" yMax="697">
      <contour>
        <pt x="331" y="-30" on="1"/>
        <pt x="257" y="-30" on="1"/>
        <pt x="346" y="697" on="1"/>
        <pt x="420" y="697" on="1"/>
      </contour>
      <contour>
        <pt x="475" y="171" on="1"/>
        <pt x="439" y="171" on="0"/>
        <pt x="406" y="211" on="0"/>
        <pt x="399" y="240" on="1"/>
        <pt x="579" y="240" on="1"/>
        <pt x="570" y="171" on="1"/>
      </contour>
      <contour>
        <pt x="66" y="171" on="1"/>
        <pt x="75" y="240" on="1"/>
        <pt x="255" y="240" on="1"/>
        <pt x="241" y="211" on="0"/>
        <pt x="197" y="171" on="0"/>
        <pt x="161" y="171" on="1"/>
      </contour>
      <contour>
        <pt x="507" y="427" on="1"/>
        <pt x="471" y="427" on="0"/>
        <pt x="438" y="467" on="0"/>
        <pt x="430" y="496" on="1"/>
        <pt x="610" y="496" on="1"/>
        <pt x="602" y="427" on="1"/>
      </contour>
      <contour>
        <pt x="98" y="427" on="1"/>
        <pt x="106" y="496" on="1"/>
        <pt x="286" y="496" on="1"/>
        <pt x="272" y="467" on="0"/>
        <pt x="229" y="427" on="0"/>
        <pt x="193" y="427" on="1"/>
      </contour>
    </TTGlyph>
    <TTGlyph name="degree" xMin="101" yMin="483" xMax="401" yMax="763">
      <contour>
        <pt x="262" y="713" on="1"/>
        <pt x="241" y="713" on="0"/>
        <pt x="208" y="697" on="0"/>
        <pt x="184" y="671" on="0"/>
        <pt x="170" y="639" on="0"/>
        <pt x="168" y="623" on="1"/>
        <pt x="166" y="606" on="0"/>
        <pt x="172" y="574" on="0"/>
        <pt x="190" y="548" on="0"/>
        <pt x="219" y="533" on="0"/>
        <pt x="240" y="533" on="1"/>
        <pt x="262" y="533" on="0"/>
        <pt x="296" y="551" on="0"/>
        <pt x="320" y="578" on="0"/>
        <pt x="333" y="609" on="0"/>
        <pt x="335" y="623" on="1"/>
        <pt x="338" y="644" on="0"/>
        <pt x="328" y="677" on="0"/>
        <pt x="307" y="700" on="0"/>
        <pt x="278" y="713" on="0"/>
      </contour>
      <contour>
        <pt x="105" y="623" on="1"/>
        <pt x="108" y="651" on="0"/>
        <pt x="137" y="702" on="0"/>
        <pt x="181" y="740" on="0"/>
        <pt x="237" y="763" on="0"/>
        <pt x="268" y="763" on="1"/>
        <pt x="293" y="763" on="0"/>
        <pt x="343" y="745" on="0"/>
        <pt x="381" y="709" on="0"/>
        <pt x="401" y="657" on="0"/>
        <pt x="397" y="623" on="1"/>
        <pt x="393" y="589" on="0"/>
        <pt x="360" y="537" on="0"/>
        <pt x="314" y="501" on="0"/>
        <pt x="259" y="483" on="0"/>
        <pt x="234" y="483" on="1"/>
        <pt x="205" y="483" on="0"/>
        <pt x="154" y="504" on="0"/>
        <pt x="119" y="541" on="0"/>
        <pt x="101" y="593" on="0"/>
      </contour>
    </TTGlyph>
    <TTGlyph name="dieresis" xMin="117" yMin="618" xMax="421" yMax="722">
      <contour>
        <pt x="120" y="670" on="1"/>
        <pt x="122" y="692" on="0"/>
        <pt x="157" y="722" on="0"/>
        <pt x="178" y="722" on="1"/>
        <pt x="200" y="722" on="0"/>
        <pt x="227" y="692" on="0"/>
        <pt x="225" y="670" on="1"/>
        <pt x="222" y="648" on="0"/>
        <pt x="187" y="618" on="0"/>
        <pt x="165" y="618" on="1"/>
        <pt x="144" y="618" on="0"/>
        <pt x="117" y="648" on="0"/>
      </contour>
      <contour>
        <pt x="314" y="670" on="1"/>
        <pt x="316" y="692" on="0"/>
        <pt x="351" y="722" on="0"/>
        <pt x="373" y="722" on="1"/>
        <pt x="394" y="722" on="0"/>
        <pt x="421" y="692" on="0"/>
        <pt x="419" y="670" on="1"/>
        <pt x="416" y="648" on="0"/>
        <pt x="381" y="618" on="0"/>
        <pt x="360" y="618" on="1"/>
        <pt x="338" y="618" on="0"/>
        <pt x="311" y="648" on="0"/>
      </contour>
    </TTGlyph>
    <TTGlyph name="divide" xMin="80" yMin="62" xMax="556" yMax="546">
      <contour>
        <pt x="88" y="337" on="1"/>
        <pt x="556" y="337" on="1"/>
        <pt x="548" y="273" on="1"/>
        <pt x="80" y="273" on="1"/>
      </contour>
      <contour>
        <pt x="290" y="494" on="1"/>
        <pt x="293" y="517" on="0"/>
        <pt x="325" y="546" on="0"/>
        <pt x="347" y="546" on="1"/>
        <pt x="370" y="546" on="0"/>
        <pt x="395" y="517" on="0"/>
        <pt x="392" y="494" on="1"/>
        <pt x="390" y="472" on="0"/>
        <pt x="357" y="444" on="0"/>
        <pt x="334" y="444" on="1"/>
        <pt x="312" y="444" on="0"/>
        <pt x="288" y="472" on="0"/>
      </contour>
      <contour>
        <pt x="243" y="112" on="1"/>
        <pt x="246" y="135" on="0"/>
        <pt x="278" y="164" on="0"/>
        <pt x="300" y="164" on="1"/>
        <pt x="323" y="164" on="0"/>
        <pt x="348" y="135" on="0"/>
        <pt x="345" y="112" on="1"/>
        <pt x="343" y="90" on="0"/>
        <pt x="310" y="62" on="0"/>
        <pt x="287" y="62" on="1"/>
        <pt x="265" y="62" on="0"/>
        <pt x="241" y="90" on="0"/>
      </contour>
    </TTGlyph>
    <TTGlyph name="dollar" xMin="49" yMin="-107" xMax="507" yMax="810">
      <contour>
        <pt x="338" y="638" on="1"/>
        <pt x="287" y="638" on="0"/>
        <pt x="223" y="582" on="0"/>
        <pt x="218" y="544" on="1"/>
        <pt x="213" y="506" on="0"/>
        <pt x="255" y="452" on="0"/>
        <pt x="321" y="407" on="0"/>
        <pt x="399" y="363" on="0"/>
        <pt x="463" y="307" on="0"/>
        <pt x="502" y="231" on="0"/>
        <pt x="495" y="176" on="1"/>
        <pt x="491" y="146" on="0"/>
        <pt x="461" y="87" on="0"/>
        <pt x="411" y="38" on="0"/>
        <pt x="341" y="1" on="0"/>
        <pt x="298" y="-6" on="1"/>
        <pt x="285" y="-107" on="1"/>
        <pt x="213" y="-107" on="1"/>
        <pt x="225" y="-11" on="1"/>
        <pt x="184" y="-9" on="0"/>
        <pt x="93" y="13" on="0"/>
        <pt x="49" y="36" on="1"/>
        <pt x="83" y="101" on="1"/>
        <pt x="127" y="80" on="0"/>
        <pt x="206" y="62" on="0"/>
        <pt x="242" y="62" on="1"/>
        <pt x="274" y="62" on="0"/>
        <pt x="329" y="81" on="0"/>
        <pt x="369" y="113" on="0"/>
        <pt x="394" y="155" on="0"/>
        <pt x="397" y="178" on="1"/>
        <pt x="402" y="219" on="0"/>
        <pt x="362" y="276" on="0"/>
        <pt x="297" y="321" on="0"/>
        <pt x="219" y="362" on="0"/>
        <pt x="155" y="416" on="0"/>
        <pt x="117" y="490" on="0"/>
        <pt x="123" y="544" on="1"/>
        <pt x="127" y="576" on="0"/>
        <pt x="159" y="634" on="0"/>
        <pt x="210" y="678" on="0"/>
        <pt x="276" y="707" on="0"/>
        <pt x="314" y="711" on="1"/>
        <pt x="326" y="810" on="1"/>
        <pt x="398" y="810" on="1"/>
        <pt x="386" y="709" on="1"/>
        <pt x="414" y="706" on="0"/>
        <pt x="471" y="692" on="0"/>
        <pt x="507" y="681" on="1"/>
        <pt x="471" y="616" on="1"/>
        <pt x="429" y="629" on="0"/>
        <pt x="367" y="638" on="0"/>
      </contour>
    </TTGlyph>
    <TTGlyph name="e" xMin="81" yMin="-10" xMax="529" yMax="527">
      <contour>
        <pt x="435" y="317" on="1"/>
        <pt x="442" y="346" on="0"/>
        <pt x="434" y="396" on="0"/>
        <pt x="410" y="434" on="0"/>
        <pt x="370" y="455" on="0"/>
        <pt x="346" y="455" on="1"/>
        <pt x="283" y="455" on="0"/>
        <pt x="192" y="355" on="0"/>
        <pt x="181" y="262" on="1"/>
        <pt x="175" y="217" on="0"/>
        <pt x="190" y="144" on="0"/>
        <pt x="226" y="91" on="0"/>
        <pt x="281" y="62" on="0"/>
        <pt x="315" y="62" on="1"/>
        <pt x="350" y="62" on="0"/>
        <pt x="413" y="76" on="0"/>
        <pt x="459" y="98" on="1"/>
        <pt x="475" y="32" on="1"/>
        <pt x="424" y="7" on="0"/>
        <pt x="332" y="-10" on="0"/>
        <pt x="296" y="-10" on="1"/>
        <pt x="241" y="-10" on="0"/>
        <pt x="157" y="31" on="0"/>
        <pt x="103" y="104" on="0"/>
        <pt x="81" y="204" on="0"/>
        <pt x="88" y="263" on="1"/>
        <pt x="95" y="324" on="0"/>
        <pt x="141" y="421" on="0"/>
        <pt x="213" y="490" on="0"/>
        <pt x="308" y="527" on="0"/>
        <pt x="365" y="527" on="1"/>
        <pt x="416" y="527" on="0"/>
        <pt x="490" y="481" on="0"/>
        <pt x="529" y="404" on="0"/>
        <pt x="528" y="304" on="0"/>
        <pt x="505" y="250" on="1"/>
        <pt x="215" y="250" on="1"/>
        <pt x="229" y="279" on="0"/>
        <pt x="272" y="317" on="0"/>
        <pt x="308" y="317" on="1"/>
      </contour>
    </TTGlyph>
    <TTGlyph name="eacute" xMin="81" yMin="-10" xMax="529" yMax="740">
      <contour>
        <pt x="435" y="317" on="1"/>
        <pt x="442" y="346" on="0"/>
        <pt x="434" y="396" on="0"/>
        <pt x="410" y="434" on="0"/>
        <pt x="370" y="455" on="0"/>
        <pt x="346" y="455" on="1"/>
        <pt x="283" y="455" on="0"/>
        <pt x="192" y="355" on="0"/>
        <pt x="181" y="262" on="1"/>
        <pt x="175" y="217" on="0"/>
        <pt x="190" y="144" on="0"/>
        <pt x="226" y="91" on="0"/>
        <pt x="281" y="62" on="0"/>
        <pt x="315" y="62" on="1"/>
        <pt x="350" y="62" on="0"/>
        <pt x="413" y="76" on="0"/>
        <pt x="459" y="98" on="1"/>
        <pt x="475" y="32" on="1"/>
        <pt x="424" y="7" on="0"/>
        <pt x="332" y="-10" on="0"/>
        <pt x="296" y="-10" on="1"/>
        <pt x="241" y="-10" on="0"/>
        <pt x="157" y="31" on="0"/>
        <pt x="103" y="104" on="0"/>
        <pt x="81" y="204" on="0"/>
        <pt x="88" y="263" on="1"/>
        <pt x="95" y="324" on="0"/>
        <pt x="141" y="421" on="0"/>
        <pt x="213" y="490" on="0"/>
        <pt x="308" y="527" on="0"/>
        <pt x="365" y="527" on="1"/>
        <pt x="416" y="527" on="0"/>
        <pt x="490" y="481" on="0"/>
        <pt x="529" y="404" on="0"/>
        <pt x="528" y="304" on="0"/>
        <pt x="505" y="250" on="1"/>
        <pt x="215" y="250" on="1"/>
        <pt x="229" y="279" on="0"/>
        <pt x="272" y="317" on="0"/>
        <pt x="308" y="317" on="1"/>
      </contour>
      <contour>
        <pt x="419" y="631" on="1"/>
        <pt x="396" y="607" on="0"/>
        <pt x="342" y="595" on="0"/>
        <pt x="317" y="602" on="1"/>
        <pt x="423" y="740" on="1"/>
        <pt x="520" y="740" on="1"/>
      </contour>
    </TTGlyph>
    <TTGlyph name="ecircumflex" xMin="81" yMin="-10" xMax="529" yMax="743">
      <contour>
        <pt x="435" y="317" on="1"/>
        <pt x="442" y="346" on="0"/>
        <pt x="434" y="396" on="0"/>
        <pt x="410" y="434" on="0"/>
        <pt x="370" y="455" on="0"/>
        <pt x="346" y="455" on="1"/>
        <pt x="283" y="455" on="0"/>
        <pt x="192" y="355" on="0"/>
        <pt x="181" y="262" on="1"/>
        <pt x="175" y="217" on="0"/>
        <pt x="190" y="144" on="0"/>
        <pt x="226" y="91" on="0"/>
        <pt x="281" y="62" on="0"/>
        <pt x="315" y="62" on="1"/>
        <pt x="350" y="62" on="0"/>
        <pt x="413" y="76" on="0"/>
        <pt x="459" y="98" on="1"/>
        <pt x="475" y="32" on="1"/>
        <pt x="424" y="7" on="0"/>
        <pt x="332" y="-10" on="0"/>
        <pt x="296" y="-10" on="1"/>
        <pt x="241" y="-10" on="0"/>
        <pt x="157" y="31" on="0"/>
        <pt x="103" y="104" on="0"/>
        <pt x="81" y="204" on="0"/>
        <pt x="88" y="263" on="1"/>
        <pt x="95" y="324" on="0"/>
        <pt x="141" y="421" on="0"/>
        <pt x="213" y="490" on="0"/>
        <pt x="308" y="527" on="0"/>
        <pt x="365" y="527" on="1"/>
        <pt x="416" y="527" on="0"/>
        <pt x="490" y="481" on="0"/>
        <pt x="529" y="404" on="0"/>
        <pt x="528" y="304" on="0"/>
        <pt x="505" y="250" on="1"/>
        <pt x="215" y="250" on="1"/>
        <pt x="229" y="279" on="0"/>
        <pt x="272" y="317" on="0"/>
        <pt x="308" y="317" on="1"/>
      </contour>
      <contour>
        <pt x="411" y="743" on="1"/>
        <pt x="504" y="598" on="1"/>
        <pt x="451" y="590" on="1"/>
        <pt x="373" y="674" on="1"/>
        <pt x="275" y="589" on="1"/>
        <pt x="227" y="598" on="1"/>
        <pt x="354" y="743" on="1"/>
      </contour>
    </TTGlyph>
    <TTGlyph name="edieresis" xMin="81" yMin="-10" xMax="529" yMax="722">
      <contour>
        <pt x="435" y="317" on="1"/>
        <pt x="442" y="346" on="0"/>
        <pt x="434" y="396" on="0"/>
        <pt x="410" y="434" on="0"/>
        <pt x="370" y="455" on="0"/>
        <pt x="346" y="455" on="1"/>
        <pt x="283" y="455" on="0"/>
        <pt x="192" y="355" on="0"/>
        <pt x="181" y="262" on="1"/>
        <pt x="175" y="217" on="0"/>
        <pt x="190" y="144" on="0"/>
        <pt x="226" y="91" on="0"/>
        <pt x="281" y="62" on="0"/>
        <pt x="315" y="62" on="1"/>
        <pt x="350" y="62" on="0"/>
        <pt x="413" y="76" on="0"/>
        <pt x="459" y="98" on="1"/>
        <pt x="475" y="32" on="1"/>
        <pt x="424" y="7" on="0"/>
        <pt x="332" y="-10" on="0"/>
        <pt x="296" y="-10" on="1"/>
        <pt x="241" y="-10" on="0"/>
        <pt x="157" y="31" on="0"/>
        <pt x="103" y="104" on="0"/>
        <pt x="81" y="204" on="0"/>
        <pt x="88" y="263" on="1"/>
        <pt x="95" y="324" on="0"/>
        <pt x="141" y="421" on="0"/>
        <pt x="213" y="490" on="0"/>
        <pt x="308" y="527" on="0"/>
        <pt x="365" y="527" on="1"/>
        <pt x="416" y="527" on="0"/>
        <pt x="490" y="481" on="0"/>
        <pt x="529" y="404" on="0"/>
        <pt x="528" y="304" on="0"/>
        <pt x="505" y="250" on="1"/>
        <pt x="215" y="250" on="1"/>
        <pt x="229" y="279" on="0"/>
        <pt x="272" y="317" on="0"/>
        <pt x="308" y="317" on="1"/>
      </contour>
      <contour>
        <pt x="218" y="670" on="1"/>
        <pt x="220" y="692" on="0"/>
        <pt x="255" y="722" on="0"/>
        <pt x="276" y="722" on="1"/>
        <pt x="298" y="722" on="0"/>
        <pt x="325" y="692" on="0"/>
        <pt x="323" y="670" on="1"/>
        <pt x="320" y="648" on="0"/>
        <pt x="285" y="618" on="0"/>
        <pt x="263" y="618" on="1"/>
        <pt x="242" y="618" on="0"/>
        <pt x="215" y="648" on="0"/>
      </contour>
      <contour>
        <pt x="412" y="670" on="1"/>
        <pt x="414" y="692" on="0"/>
        <pt x="449" y="722" on="0"/>
        <pt x="471" y="722" on="1"/>
        <pt x="492" y="722" on="0"/>
        <pt x="519" y="692" on="0"/>
        <pt x="517" y="670" on="1"/>
        <pt x="514" y="648" on="0"/>
        <pt x="479" y="618" on="0"/>
        <pt x="458" y="618" on="1"/>
        <pt x="436" y="618" on="0"/>
        <pt x="409" y="648" on="0"/>
      </contour>
    </TTGlyph>
    <TTGlyph name="egrave" xMin="81" yMin="-10" xMax="529" yMax="740">
      <contour>
        <pt x="435" y="317" on="1"/>
        <pt x="442" y="346" on="0"/>
        <pt x="434" y="396" on="0"/>
        <pt x="410" y="434" on="0"/>
        <pt x="370" y="455" on="0"/>
        <pt x="346" y="455" on="1"/>
        <pt x="283" y="455" on="0"/>
        <pt x="192" y="355" on="0"/>
        <pt x="181" y="262" on="1"/>
        <pt x="175" y="217" on="0"/>
        <pt x="190" y="144" on="0"/>
        <pt x="226" y="91" on="0"/>
        <pt x="281" y="62" on="0"/>
        <pt x="315" y="62" on="1"/>
        <pt x="350" y="62" on="0"/>
        <pt x="413" y="76" on="0"/>
        <pt x="459" y="98" on="1"/>
        <pt x="475" y="32" on="1"/>
        <pt x="424" y="7" on="0"/>
        <pt x="332" y="-10" on="0"/>
        <pt x="296" y="-10" on="1"/>
        <pt x="241" y="-10" on="0"/>
        <pt x="157" y="31" on="0"/>
        <pt x="103" y="104" on="0"/>
        <pt x="81" y="204" on="0"/>
        <pt x="88" y="263" on="1"/>
        <pt x="95" y="324" on="0"/>
        <pt x="141" y="421" on="0"/>
        <pt x="213" y="490" on="0"/>
        <pt x="308" y="527" on="0"/>
        <pt x="365" y="527" on="1"/>
        <pt x="416" y="527" on="0"/>
        <pt x="490" y="481" on="0"/>
        <pt x="529" y="404" on="0"/>
        <pt x="528" y="304" on="0"/>
        <pt x="505" y="250" on="1"/>
        <pt x="215" y="250" on="1"/>
        <pt x="229" y="279" on="0"/>
        <pt x="272" y="317" on="0"/>
        <pt x="308" y="317" on="1"/>
      </contour>
      <contour>
        <pt x="246" y="740" on="1"/>
        <pt x="341" y="740" on="1"/>
        <pt x="397" y="602" on="1"/>
        <pt x="371" y="596" on="0"/>
        <pt x="321" y="607" on="0"/>
        <pt x="305" y="631" on="1"/>
      </contour>
    </TTGlyph>
    <TTGlyph name="eight" xMin="96" yMin="-14" xMax="594" yMax="712">
      <contour>
        <pt x="260" y="531" on="1"/>
        <pt x="256" y="502" on="0"/>
        <pt x="280" y="461" on="0"/>
        <pt x="324" y="429" on="0"/>
        <pt x="382" y="404" on="0"/>
        <pt x="413" y="390" on="1"/>
        <pt x="448" y="421" on="0"/>
        <pt x="494" y="481" on="0"/>
        <pt x="499" y="519" on="1"/>
        <pt x="503" y="549" on="0"/>
        <pt x="487" y="594" on="0"/>
        <pt x="457" y="624" on="0"/>
        <pt x="415" y="639" on="0"/>
        <pt x="393" y="639" on="1"/>
        <pt x="370" y="639" on="0"/>
        <pt x="326" y="624" on="0"/>
        <pt x="288" y="597" on="0"/>
        <pt x="263" y="556" on="0"/>
      </contour>
      <contour>
        <pt x="319" y="58" on="1"/>
        <pt x="384" y="58" on="0"/>
        <pt x="472" y="125" on="0"/>
        <pt x="478" y="178" on="1"/>
        <pt x="483" y="221" on="0"/>
        <pt x="438" y="275" on="0"/>
        <pt x="365" y="314" on="0"/>
        <pt x="278" y="349" on="0"/>
        <pt x="206" y="398" on="0"/>
        <pt x="163" y="472" on="0"/>
        <pt x="170" y="531" on="1"/>
        <pt x="175" y="574" on="0"/>
        <pt x="219" y="641" on="0"/>
        <pt x="283" y="687" on="0"/>
        <pt x="362" y="712" on="0"/>
        <pt x="402" y="712" on="1"/>
        <pt x="444" y="712" on="0"/>
        <pt x="517" y="687" on="0"/>
        <pt x="569" y="641" on="0"/>
        <pt x="594" y="574" on="0"/>
        <pt x="589" y="531" on="1"/>
        <pt x="583" y="482" on="0"/>
        <pt x="520" y="399" on="0"/>
        <pt x="478" y="357" on="1"/>
        <pt x="500" y="344" on="0"/>
        <pt x="537" y="311" on="0"/>
        <pt x="562" y="268" on="0"/>
        <pt x="572" y="213" on="0"/>
        <pt x="568" y="178" on="1"/>
        <pt x="562" y="132" on="0"/>
        <pt x="516" y="60" on="0"/>
        <pt x="445" y="11" on="0"/>
        <pt x="357" y="-14" on="0"/>
        <pt x="310" y="-14" on="1"/>
        <pt x="262" y="-14" on="0"/>
        <pt x="181" y="11" on="0"/>
        <pt x="124" y="60" on="0"/>
        <pt x="96" y="132" on="0"/>
        <pt x="102" y="178" on="1"/>
        <pt x="104" y="195" on="0"/>
        <pt x="115" y="231" on="0"/>
        <pt x="139" y="272" on="0"/>
        <pt x="177" y="319" on="0"/>
        <pt x="207" y="347" on="1"/>
        <pt x="221" y="323" on="0"/>
        <pt x="227" y="265" on="0"/>
        <pt x="210" y="239" on="1"/>
        <pt x="193" y="211" on="0"/>
        <pt x="190" y="190" on="1"/>
        <pt x="186" y="159" on="0"/>
        <pt x="203" y="110" on="0"/>
        <pt x="237" y="76" on="0"/>
        <pt x="288" y="58" on="0"/>
      </contour>
    </TTGlyph>
    <TTGlyph name="ellipsis" xMin="95" yMin="-15" xMax="761" yMax="105">
      <contour>
        <pt x="98" y="44" on="1"/>
        <pt x="101" y="70" on="0"/>
        <pt x="138" y="105" on="0"/>
        <pt x="164" y="105" on="1"/>
        <pt x="190" y="105" on="0"/>
        <pt x="221" y="70" on="0"/>
        <pt x="218" y="44" on="1"/>
        <pt x="215" y="18" on="0"/>
        <pt x="176" y="-15" on="0"/>
        <pt x="150" y="-15" on="1"/>
        <pt x="124" y="-15" on="0"/>
        <pt x="95" y="18" on="0"/>
      </contour>
      <contour>
        <pt x="368" y="44" on="1"/>
        <pt x="371" y="70" on="0"/>
        <pt x="408" y="105" on="0"/>
        <pt x="434" y="105" on="1"/>
        <pt x="460" y="105" on="0"/>
        <pt x="491" y="70" on="0"/>
        <pt x="488" y="44" on="1"/>
        <pt x="485" y="18" on="0"/>
        <pt x="446" y="-15" on="0"/>
        <pt x="420" y="-15" on="1"/>
        <pt x="394" y="-15" on="0"/>
        <pt x="365" y="18" on="0"/>
      </contour>
      <contour>
        <pt x="638" y="44" on="1"/>
        <pt x="641" y="70" on="0"/>
        <pt x="678" y="105" on="0"/>
        <pt x="704" y="105" on="1"/>
        <pt x="730" y="105" on="0"/>
        <pt x="761" y="70" on="0"/>
        <pt x="758" y="44" on="1"/>
        <pt x="755" y="18" on="0"/>
        <pt x="716" y="-15" on="0"/>
        <pt x="690" y="-15" on="1"/>
        <pt x="664" y="-15" on="0"/>
        <pt x="635" y="18" on="0"/>
      </contour>
    </TTGlyph>
    <TTGlyph name="emdash" xMin="74" yMin="243" xMax="821" yMax="307">
      <contour>
        <pt x="74" y="243" on="1"/>
        <pt x="82" y="307" on="1"/>
        <pt x="821" y="307" on="1"/>
        <pt x="813" y="243" on="1"/>
      </contour>
    </TTGlyph>
    <TTGlyph name="endash" xMin="74" yMin="243" xMax="506" yMax="307">
      <contour>
        <pt x="74" y="243" on="1"/>
        <pt x="82" y="307" on="1"/>
        <pt x="506" y="307" on="1"/>
        <pt x="498" y="243" on="1"/>
      </contour>
    </TTGlyph>
    <TTGlyph name="equal" xMin="88" yMin="176" xMax="596" yMax="465">
      <contour>
        <pt x="96" y="244" on="1"/>
        <pt x="568" y="244" on="1"/>
        <pt x="560" y="176" on="1"/>
        <pt x="88" y="176" on="1"/>
      </contour>
      <contour>
        <pt x="124" y="465" on="1"/>
        <pt x="596" y="465" on="1"/>
        <pt x="587" y="397" on="1"/>
        <pt x="115" y="397" on="1"/>
      </contour>
    </TTGlyph>
    <TTGlyph name="eth" xMin="63" yMin="-10" xMax="562" yMax="760">
      <contour>
        <pt x="553" y="259" on="1"/>
        <pt x="545" y="194" on="0"/>
        <pt x="494" y="93" on="0"/>
        <pt x="419" y="25" on="0"/>
        <pt x="327" y="-10" on="0"/>
        <pt x="279" y="-10" on="1"/>
        <pt x="229" y="-10" on="0"/>
        <pt x="145" y="25" on="0"/>
        <pt x="88" y="93" on="0"/>
        <pt x="63" y="194" on="0"/>
        <pt x="71" y="259" on="1"/>
        <pt x="79" y="324" on="0"/>
        <pt x="131" y="424" on="0"/>
        <pt x="205" y="492" on="0"/>
        <pt x="297" y="527" on="0"/>
        <pt x="345" y="527" on="1"/>
        <pt x="361" y="527" on="0"/>
        <pt x="394" y="521" on="0"/>
        <pt x="411" y="513" on="1"/>
        <pt x="451" y="489" on="1"/>
        <pt x="429" y="519" on="1"/>
        <pt x="409" y="551" on="0"/>
        <pt x="362" y="602" on="0"/>
        <pt x="348" y="613" on="1"/>
        <pt x="215" y="553" on="1"/>
        <pt x="202" y="596" on="1"/>
        <pt x="307" y="645" on="1"/>
        <pt x="286" y="662" on="0"/>
        <pt x="242" y="688" on="0"/>
        <pt x="216" y="702" on="1"/>
        <pt x="255" y="760" on="1"/>
        <pt x="289" y="743" on="0"/>
        <pt x="357" y="702" on="0"/>
        <pt x="386" y="679" on="1"/>
        <pt x="505" y="733" on="1"/>
        <pt x="520" y="689" on="1"/>
        <pt x="425" y="646" on="1"/>
        <pt x="441" y="631" on="0"/>
        <pt x="492" y="560" on="0"/>
        <pt x="536" y="459" on="0"/>
        <pt x="562" y="331" on="0"/>
      </contour>
      <contour>
        <pt x="454" y="259" on="1"/>
        <pt x="460" y="309" on="0"/>
        <pt x="446" y="383" on="0"/>
        <pt x="413" y="431" on="0"/>
        <pt x="364" y="455" on="0"/>
        <pt x="336" y="455" on="1"/>
        <pt x="307" y="455" on="0"/>
        <pt x="253" y="431" on="0"/>
        <pt x="208" y="383" on="0"/>
        <pt x="176" y="309" on="0"/>
        <pt x="170" y="259" on="1"/>
        <pt x="164" y="208" on="0"/>
        <pt x="178" y="134" on="0"/>
        <pt x="211" y="86" on="0"/>
        <pt x="259" y="62" on="0"/>
        <pt x="288" y="62" on="1"/>
        <pt x="316" y="62" on="0"/>
        <pt x="371" y="86" on="0"/>
        <pt x="416" y="134" on="0"/>
        <pt x="448" y="208" on="0"/>
      </contour>
    </TTGlyph>
    <TTGlyph name="exclam" xMin="58" yMin="-15" xMax="253" yMax="727">
      <contour>
        <pt x="253" y="727" on="1"/>
        <pt x="172" y="185" on="1"/>
        <pt x="104" y="185" on="1"/>
        <pt x="159" y="727" on="1"/>
      </contour>
      <contour>
        <pt x="61" y="44" on="1"/>
        <pt x="64" y="70" on="0"/>
        <pt x="101" y="105" on="0"/>
        <pt x="127" y="105" on="1"/>
        <pt x="153" y="105" on="0"/>
        <pt x="184" y="70" on="0"/>
        <pt x="181" y="44" on="1"/>
        <pt x="178" y="18" on="0"/>
        <pt x="139" y="-15" on="0"/>
        <pt x="113" y="-15" on="1"/>
        <pt x="87" y="-15" on="0"/>
        <pt x="58" y="18" on="0"/>
      </contour>
    </TTGlyph>
    <TTGlyph name="exclamdown" xMin="44" yMin="-210" xMax="237" yMax="532">
      <contour>
        <pt x="44" y="-210" on="1"/>
        <pt x="122" y="332" on="1"/>
        <pt x="190" y="332" on="1"/>
        <pt x="138" y="-210" on="1"/>
      </contour>
      <contour>
        <pt x="114" y="473" on="1"/>
        <pt x="117" y="499" on="0"/>
        <pt x="154" y="532" on="0"/>
        <pt x="180" y="532" on="1"/>
        <pt x="206" y="532" on="0"/>
        <pt x="237" y="499" on="0"/>
        <pt x="234" y="473" on="1"/>
        <pt x="230" y="447" on="0"/>
        <pt x="191" y="412" on="0"/>
        <pt x="165" y="412" on="1"/>
        <pt x="139" y="412" on="0"/>
        <pt x="110" y="447" on="0"/>
      </contour>
    </TTGlyph>
    <TTGlyph name="f" xMin="60" yMin="0" xMax="494" yMax="763">
      <contour>
        <pt x="60" y="448" on="1"/>
        <pt x="65" y="496" on="1"/>
        <pt x="154" y="517" on="1"/>
        <pt x="157" y="545" on="1"/>
        <pt x="170" y="644" on="0"/>
        <pt x="284" y="763" on="0"/>
        <pt x="376" y="763" on="1"/>
        <pt x="401" y="763" on="0"/>
        <pt x="461" y="752" on="0"/>
        <pt x="494" y="737" on="1"/>
        <pt x="466" y="676" on="1"/>
        <pt x="435" y="688" on="0"/>
        <pt x="395" y="695" on="0"/>
        <pt x="379" y="695" on="1"/>
        <pt x="358" y="695" on="0"/>
        <pt x="315" y="679" on="0"/>
        <pt x="277" y="646" on="0"/>
        <pt x="250" y="592" on="0"/>
        <pt x="246" y="555" on="1"/>
        <pt x="178" y="0" on="1"/>
        <pt x="91" y="0" on="1"/>
        <pt x="146" y="448" on="1"/>
      </contour>
      <contour>
        <pt x="422" y="517" on="1"/>
        <pt x="414" y="448" on="1"/>
        <pt x="269" y="448" on="1"/>
        <pt x="283" y="477" on="0"/>
        <pt x="326" y="517" on="0"/>
        <pt x="362" y="517" on="1"/>
      </contour>
    </TTGlyph>
    <TTGlyph name="five" xMin="49" yMin="-11" xMax="521" yMax="701">
      <contour>
        <pt x="204" y="413" on="1"/>
        <pt x="223" y="415" on="0"/>
        <pt x="257" y="419" on="0"/>
        <pt x="276" y="419" on="1"/>
        <pt x="338" y="419" on="0"/>
        <pt x="424" y="383" on="0"/>
        <pt x="476" y="323" on="0"/>
        <pt x="495" y="247" on="0"/>
        <pt x="490" y="207" on="1"/>
        <pt x="485" y="164" on="0"/>
        <pt x="442" y="85" on="0"/>
        <pt x="372" y="25" on="0"/>
        <pt x="275" y="-11" on="0"/>
        <pt x="215" y="-11" on="1"/>
        <pt x="196" y="-11" on="0"/>
        <pt x="150" y="-4" on="0"/>
        <pt x="105" y="9" on="0"/>
        <pt x="64" y="27" on="0"/>
        <pt x="49" y="38" on="1"/>
        <pt x="80" y="103" on="1"/>
        <pt x="117" y="80" on="0"/>
        <pt x="194" y="62" on="0"/>
        <pt x="223" y="62" on="1"/>
        <pt x="266" y="62" on="0"/>
        <pt x="328" y="90" on="0"/>
        <pt x="368" y="134" on="0"/>
        <pt x="389" y="185" on="0"/>
        <pt x="392" y="209" on="1"/>
        <pt x="396" y="245" on="0"/>
        <pt x="379" y="297" on="0"/>
        <pt x="340" y="332" on="0"/>
        <pt x="282" y="348" on="0"/>
        <pt x="246" y="348" on="1"/>
        <pt x="220" y="348" on="0"/>
        <pt x="146" y="337" on="0"/>
        <pt x="116" y="328" on="1"/>
        <pt x="188" y="701" on="1"/>
        <pt x="521" y="701" on="1"/>
        <pt x="511" y="622" on="1"/>
        <pt x="246" y="622" on="1"/>
      </contour>
    </TTGlyph>
    <TTGlyph name="florin" xMin="-8" yMin="-141" xMax="588" yMax="711">
      <contour>
        <pt x="494" y="465" on="1"/>
        <pt x="485" y="396" on="1"/>
        <pt x="333" y="396" on="1"/>
        <pt x="350" y="425" on="0"/>
        <pt x="398" y="465" on="0"/>
        <pt x="434" y="465" on="1"/>
      </contour>
      <contour>
        <pt x="-8" y="-84" on="1"/>
        <pt x="16" y="-76" on="0"/>
        <pt x="61" y="-56" on="0"/>
        <pt x="99" y="-23" on="0"/>
        <pt x="128" y="27" on="0"/>
        <pt x="136" y="65" on="1"/>
        <pt x="210" y="396" on="1"/>
        <pt x="129" y="396" on="1"/>
        <pt x="135" y="444" on="1"/>
        <pt x="226" y="465" on="1"/>
        <pt x="232" y="493" on="1"/>
        <pt x="243" y="542" on="0"/>
        <pt x="287" y="623" on="0"/>
        <pt x="349" y="680" on="0"/>
        <pt x="427" y="711" on="0"/>
        <pt x="473" y="711" on="1"/>
        <pt x="498" y="711" on="0"/>
        <pt x="556" y="700" on="0"/>
        <pt x="588" y="685" on="1"/>
        <pt x="553" y="624" on="1"/>
        <pt x="524" y="636" on="0"/>
        <pt x="484" y="643" on="0"/>
        <pt x="468" y="643" on="1"/>
        <pt x="447" y="643" on="0"/>
        <pt x="402" y="627" on="0"/>
        <pt x="362" y="594" on="0"/>
        <pt x="330" y="540" on="0"/>
        <pt x="321" y="503" on="1"/>
        <pt x="226" y="75" on="1"/>
        <pt x="215" y="25" on="0"/>
        <pt x="175" y="-47" on="0"/>
        <pt x="117" y="-98" on="0"/>
        <pt x="43" y="-131" on="0"/>
        <pt x="-1" y="-141" on="1"/>
      </contour>
    </TTGlyph>
    <TTGlyph name="four" xMin="65" yMin="0" xMax="566" yMax="701">
      <contour>
        <pt x="458" y="701" on="1"/>
        <pt x="545" y="701" on="1"/>
        <pt x="486" y="227" on="1"/>
        <pt x="566" y="227" on="1"/>
        <pt x="558" y="156" on="1"/>
        <pt x="478" y="156" on="1"/>
        <pt x="459" y="0" on="1"/>
        <pt x="372" y="0" on="1"/>
        <pt x="439" y="546" on="1"/>
        <pt x="444" y="573" on="1"/>
        <pt x="426" y="548" on="1"/>
        <pt x="173" y="237" on="1"/>
        <pt x="160" y="226" on="1"/>
        <pt x="176" y="228" on="1"/>
        <pt x="268" y="228" on="1"/>
        <pt x="288" y="228" on="0"/>
        <pt x="318" y="212" on="0"/>
        <pt x="339" y="189" on="0"/>
        <pt x="353" y="164" on="0"/>
        <pt x="356" y="156" on="1"/>
        <pt x="65" y="156" on="1"/>
        <pt x="72" y="217" on="1"/>
      </contour>
    </TTGlyph>
    <TTGlyph name="g" xMin="52" yMin="-250" xMax="556" yMax="527">
      <contour>
        <pt x="85" y="256" on="1"/>
        <pt x="92" y="317" on="0"/>
        <pt x="144" y="417" on="0"/>
        <pt x="223" y="488" on="0"/>
        <pt x="325" y="527" on="0"/>
        <pt x="383" y="527" on="1"/>
        <pt x="425" y="527" on="0"/>
        <pt x="506" y="512" on="0"/>
        <pt x="556" y="495" on="1"/>
        <pt x="496" y="0" on="1"/>
        <pt x="489" y="-56" on="0"/>
        <pt x="444" y="-148" on="0"/>
        <pt x="375" y="-214" on="0"/>
        <pt x="283" y="-250" on="0"/>
        <pt x="228" y="-250" on="1"/>
        <pt x="189" y="-250" on="0"/>
        <pt x="99" y="-234" on="0"/>
        <pt x="52" y="-208" on="1"/>
        <pt x="86" y="-140" on="1"/>
        <pt x="127" y="-161" on="0"/>
        <pt x="197" y="-178" on="0"/>
        <pt x="229" y="-178" on="1"/>
        <pt x="260" y="-178" on="0"/>
        <pt x="319" y="-158" on="0"/>
        <pt x="366" y="-117" on="0"/>
        <pt x="398" y="-54" on="0"/>
        <pt x="403" y="-11" on="1"/>
        <pt x="459" y="444" on="1"/>
        <pt x="436" y="450" on="0"/>
        <pt x="397" y="455" on="0"/>
        <pt x="374" y="455" on="1"/>
        <pt x="299" y="455" on="0"/>
        <pt x="195" y="353" on="0"/>
        <pt x="183" y="256" on="1"/>
        <pt x="178" y="214" on="0"/>
        <pt x="186" y="141" on="0"/>
        <pt x="214" y="89" on="0"/>
        <pt x="261" y="64" on="0"/>
        <pt x="296" y="70" on="1"/>
        <pt x="318" y="73" on="0"/>
        <pt x="357" y="59" on="0"/>
        <pt x="374" y="37" on="1"/>
        <pt x="348" y="19" on="0"/>
        <pt x="295" y="-2" on="0"/>
        <pt x="272" y="-5" on="1"/>
        <pt x="227" y="-11" on="0"/>
        <pt x="152" y="23" on="0"/>
        <pt x="101" y="93" on="0"/>
        <pt x="77" y="195" on="0"/>
      </contour>
    </TTGlyph>
    <TTGlyph name="germandbls" xMin="91" yMin="-12" xMax="568" yMax="763">
      <contour>
        <pt x="283" y="87" on="1"/>
        <pt x="315" y="72" on="0"/>
        <pt x="370" y="60" on="0"/>
        <pt x="392" y="60" on="1"/>
        <pt x="422" y="60" on="0"/>
        <pt x="469" y="102" on="0"/>
        <pt x="473" y="136" on="1"/>
        <pt x="476" y="163" on="0"/>
        <pt x="456" y="203" on="0"/>
        <pt x="421" y="236" on="0"/>
        <pt x="380" y="269" on="0"/>
        <pt x="346" y="309" on="0"/>
        <pt x="327" y="363" on="0"/>
        <pt x="332" y="401" on="1"/>
        <pt x="337" y="445" on="0"/>
        <pt x="403" y="518" on="0"/>
        <pt x="461" y="541" on="1"/>
        <pt x="470" y="564" on="0"/>
        <pt x="473" y="588" on="1"/>
        <pt x="476" y="612" on="0"/>
        <pt x="463" y="651" on="0"/>
        <pt x="438" y="679" on="0"/>
        <pt x="403" y="695" on="0"/>
        <pt x="384" y="695" on="1"/>
        <pt x="363" y="695" on="0"/>
        <pt x="318" y="679" on="0"/>
        <pt x="279" y="646" on="0"/>
        <pt x="250" y="592" on="0"/>
        <pt x="246" y="555" on="1"/>
        <pt x="178" y="0" on="1"/>
        <pt x="91" y="0" on="1"/>
        <pt x="157" y="545" on="1"/>
        <pt x="163" y="594" on="0"/>
        <pt x="201" y="675" on="0"/>
        <pt x="259" y="732" on="0"/>
        <pt x="335" y="763" on="0"/>
        <pt x="381" y="763" on="1"/>
        <pt x="427" y="763" on="0"/>
        <pt x="496" y="734" on="0"/>
        <pt x="539" y="686" on="0"/>
        <pt x="556" y="623" on="0"/>
        <pt x="552" y="588" on="1"/>
        <pt x="548" y="562" on="0"/>
        <pt x="527" y="514" on="0"/>
        <pt x="504" y="484" on="1"/>
        <pt x="467" y="467" on="0"/>
        <pt x="426" y="430" on="0"/>
        <pt x="422" y="401" on="1"/>
        <pt x="419" y="374" on="0"/>
        <pt x="440" y="335" on="0"/>
        <pt x="474" y="302" on="0"/>
        <pt x="515" y="269" on="0"/>
        <pt x="549" y="226" on="0"/>
        <pt x="568" y="170" on="0"/>
        <pt x="563" y="131" on="1"/>
        <pt x="559" y="102" on="0"/>
        <pt x="529" y="50" on="0"/>
        <pt x="482" y="11" on="0"/>
        <pt x="424" y="-12" on="0"/>
        <pt x="392" y="-12" on="1"/>
        <pt x="362" y="-12" on="0"/>
        <pt x="297" y="1" on="0"/>
        <pt x="252" y="25" on="1"/>
      </contour>
    </TTGlyph>
    <TTGlyph name="grave" xMin="109" yMin="594" xMax="266" yMax="727">
      <contour>
        <pt x="109" y="727" on="1"/>
        <pt x="216" y="727" on="1"/>
        <pt x="266" y="602" on="1"/>
        <pt x="235" y="594" on="0"/>
        <pt x="185" y="607" on="0"/>
        <pt x="169" y="631" on="1"/>
      </contour>
    </TTGlyph>
    <TTGlyph name="greater" xMin="37" yMin="0" xMax="590" yMax="552">
      <contour>
        <pt x="477" y="270" on="1"/>
        <pt x="503" y="276" on="1"/>
        <pt x="478" y="283" on="1"/>
        <pt x="94" y="472" on="1"/>
        <pt x="104" y="552" on="1"/>
        <pt x="590" y="301" on="1"/>
        <pt x="584" y="251" on="1"/>
        <pt x="37" y="0" on="1"/>
        <pt x="46" y="81" on="1"/>
      </contour>
    </TTGlyph>
    <TTGlyph name="guillemotleft" xMin="103" yMin="50" xMax="633" yMax="466">
      <contour>
        <pt x="103" y="258" on="1"/>
        <pt x="345" y="466" on="1"/>
        <pt x="383" y="423" on="1"/>
        <pt x="219" y="258" on="1"/>
        <pt x="343" y="93" on="1"/>
        <pt x="294" y="50" on="1"/>
      </contour>
      <contour>
        <pt x="353" y="258" on="1"/>
        <pt x="595" y="466" on="1"/>
        <pt x="633" y="423" on="1"/>
        <pt x="469" y="258" on="1"/>
        <pt x="593" y="93" on="1"/>
        <pt x="544" y="50" on="1"/>
      </contour>
    </TTGlyph>
    <TTGlyph name="guillemotright" xMin="81" yMin="50" xMax="611" yMax="466">
      <contour>
        <pt x="120" y="50" on="1"/>
        <pt x="81" y="93" on="1"/>
        <pt x="245" y="258" on="1"/>
        <pt x="121" y="423" on="1"/>
        <pt x="171" y="466" on="1"/>
        <pt x="361" y="258" on="1"/>
      </contour>
      <contour>
        <pt x="370" y="50" on="1"/>
        <pt x="331" y="93" on="1"/>
        <pt x="495" y="258" on="1"/>
        <pt x="371" y="423" on="1"/>
        <pt x="421" y="466" on="1"/>
        <pt x="611" y="258" on="1"/>
      </contour>
    </TTGlyph>
    <TTGlyph name="guilsinglleft" xMin="228" yMin="50" xMax="508" yMax="466">
      <contour>
        <pt x="228" y="258" on="1"/>
        <pt x="470" y="466" on="1"/>
        <pt x="508" y="423" on="1"/>
        <pt x="344" y="258" on="1"/>
        <pt x="468" y="93" on="1"/>
        <pt x="419" y="50" on="1"/>
      </contour>
    </TTGlyph>
    <TTGlyph name="guilsinglright" xMin="208" yMin="50" xMax="488" yMax="466">
      <contour>
        <pt x="247" y="50" on="1"/>
        <pt x="208" y="93" on="1"/>
        <pt x="372" y="258" on="1"/>
        <pt x="248" y="423" on="1"/>
        <pt x="298" y="466" on="1"/>
        <pt x="488" y="258" on="1"/>
      </contour>
    </TTGlyph>
    <TTGlyph name="h" xMin="83" yMin="0" xMax="552" yMax="758">
      <contour>
        <pt x="83" y="0" on="1"/>
        <pt x="176" y="758" on="1"/>
        <pt x="268" y="751" on="1"/>
        <pt x="176" y="0" on="1"/>
      </contour>
      <contour>
        <pt x="452" y="376" on="1"/>
        <pt x="456" y="411" on="0"/>
        <pt x="434" y="455" on="0"/>
        <pt x="405" y="455" on="1"/>
        <pt x="393" y="455" on="0"/>
        <pt x="377" y="450" on="0"/>
        <pt x="363" y="447" on="1"/>
        <pt x="333" y="440" on="0"/>
        <pt x="287" y="452" on="0"/>
        <pt x="269" y="474" on="1"/>
        <pt x="326" y="506" on="0"/>
        <pt x="398" y="527" on="0"/>
        <pt x="426" y="527" on="1"/>
        <pt x="455" y="527" on="0"/>
        <pt x="504" y="512" on="0"/>
        <pt x="538" y="474" on="0"/>
        <pt x="552" y="412" on="0"/>
        <pt x="546" y="366" on="1"/>
        <pt x="502" y="0" on="1"/>
        <pt x="406" y="0" on="1"/>
      </contour>
    </TTGlyph>
    <TTGlyph name="hyphen" xMin="78" yMin="273" xMax="388" yMax="337">
      <contour>
        <pt x="78" y="273" on="1"/>
        <pt x="86" y="337" on="1"/>
        <pt x="388" y="337" on="1"/>
        <pt x="380" y="273" on="1"/>
      </contour>
    </TTGlyph>
    <TTGlyph name="i" xMin="80" yMin="0" xMax="273" yMax="728">
      <contour>
        <pt x="80" y="0" on="1"/>
        <pt x="143" y="517" on="1"/>
        <pt x="239" y="517" on="1"/>
        <pt x="176" y="0" on="1"/>
      </contour>
      <contour>
        <pt x="149" y="667" on="1"/>
        <pt x="153" y="693" on="0"/>
        <pt x="191" y="728" on="0"/>
        <pt x="217" y="728" on="1"/>
        <pt x="243" y="728" on="0"/>
        <pt x="273" y="693" on="0"/>
        <pt x="269" y="667" on="1"/>
        <pt x="266" y="641" on="0"/>
        <pt x="228" y="607" on="0"/>
        <pt x="202" y="607" on="1"/>
        <pt x="176" y="607" on="0"/>
        <pt x="146" y="641" on="0"/>
      </contour>
    </TTGlyph>
    <TTGlyph name="iacute" xMin="70" yMin="0" xMax="348" yMax="740">
      <contour>
        <pt x="70" y="0" on="1"/>
        <pt x="133" y="517" on="1"/>
        <pt x="229" y="517" on="1"/>
        <pt x="166" y="0" on="1"/>
      </contour>
      <contour>
        <pt x="247" y="631" on="1"/>
        <pt x="224" y="607" on="0"/>
        <pt x="170" y="595" on="0"/>
        <pt x="145" y="602" on="1"/>
        <pt x="251" y="740" on="1"/>
        <pt x="348" y="740" on="1"/>
      </contour>
    </TTGlyph>
    <TTGlyph name="icircumflex" xMin="103" yMin="0" xMax="380" yMax="743">
      <contour>
        <pt x="119" y="0" on="1"/>
        <pt x="182" y="517" on="1"/>
        <pt x="278" y="517" on="1"/>
        <pt x="215" y="0" on="1"/>
      </contour>
      <contour>
        <pt x="287" y="743" on="1"/>
        <pt x="380" y="598" on="1"/>
        <pt x="327" y="590" on="1"/>
        <pt x="249" y="674" on="1"/>
        <pt x="151" y="589" on="1"/>
        <pt x="103" y="598" on="1"/>
        <pt x="230" y="743" on="1"/>
      </contour>
    </TTGlyph>
    <TTGlyph name="idieresis" xMin="106" yMin="0" xMax="409" yMax="722">
      <contour>
        <pt x="129" y="0" on="1"/>
        <pt x="192" y="517" on="1"/>
        <pt x="288" y="517" on="1"/>
        <pt x="225" y="0" on="1"/>
      </contour>
      <contour>
        <pt x="109" y="670" on="1"/>
        <pt x="111" y="692" on="0"/>
        <pt x="146" y="722" on="0"/>
        <pt x="167" y="722" on="1"/>
        <pt x="189" y="722" on="0"/>
        <pt x="216" y="692" on="0"/>
        <pt x="214" y="670" on="1"/>
        <pt x="211" y="648" on="0"/>
        <pt x="176" y="618" on="0"/>
        <pt x="154" y="618" on="1"/>
        <pt x="133" y="618" on="0"/>
        <pt x="106" y="648" on="0"/>
      </contour>
      <contour>
        <pt x="302" y="670" on="1"/>
        <pt x="304" y="692" on="0"/>
        <pt x="339" y="722" on="0"/>
        <pt x="360" y="722" on="1"/>
        <pt x="382" y="722" on="0"/>
        <pt x="409" y="692" on="0"/>
        <pt x="407" y="670" on="1"/>
        <pt x="404" y="648" on="0"/>
        <pt x="369" y="618" on="0"/>
        <pt x="347" y="618" on="1"/>
        <pt x="326" y="618" on="0"/>
        <pt x="299" y="648" on="0"/>
      </contour>
    </TTGlyph>
    <TTGlyph name="igrave" xMin="110" yMin="0" xMax="269" yMax="740">
      <contour>
        <pt x="110" y="0" on="1"/>
        <pt x="173" y="517" on="1"/>
        <pt x="269" y="517" on="1"/>
        <pt x="206" y="0" on="1"/>
      </contour>
      <contour>
        <pt x="110" y="740" on="1"/>
        <pt x="205" y="740" on="1"/>
        <pt x="261" y="602" on="1"/>
        <pt x="235" y="596" on="0"/>
        <pt x="185" y="607" on="0"/>
        <pt x="169" y="631" on="1"/>
      </contour>
    </TTGlyph>
    <TTGlyph name="j" xMin="-48" yMin="-248" xMax="295" yMax="729">
      <contour>
        <pt x="170" y="667" on="1"/>
        <pt x="174" y="694" on="0"/>
        <pt x="211" y="729" on="0"/>
        <pt x="237" y="729" on="1"/>
        <pt x="264" y="729" on="0"/>
        <pt x="295" y="694" on="0"/>
        <pt x="291" y="667" on="1"/>
        <pt x="288" y="641" on="0"/>
        <pt x="249" y="607" on="0"/>
        <pt x="222" y="607" on="1"/>
        <pt x="196" y="607" on="0"/>
        <pt x="167" y="641" on="0"/>
      </contour>
      <contour>
        <pt x="200" y="39" on="1"/>
        <pt x="195" y="-1" on="0"/>
        <pt x="173" y="-71" on="0"/>
        <pt x="126" y="-139" on="0"/>
        <pt x="48" y="-209" on="0"/>
        <pt x="-12" y="-248" on="1"/>
        <pt x="-48" y="-195" on="1"/>
        <pt x="-3" y="-160" on="0"/>
        <pt x="52" y="-104" on="0"/>
        <pt x="85" y="-52" on="0"/>
        <pt x="101" y="4" on="0"/>
        <pt x="105" y="39" on="1"/>
        <pt x="164" y="517" on="1"/>
        <pt x="259" y="517" on="1"/>
      </contour>
    </TTGlyph>
    <TTGlyph name="k" xMin="83" yMin="0" xMax="583" yMax="758">
      <contour>
        <pt x="176" y="0" on="1"/>
        <pt x="83" y="0" on="1"/>
        <pt x="176" y="758" on="1"/>
        <pt x="268" y="751" on="1"/>
      </contour>
      <contour>
        <pt x="403" y="335" on="1"/>
        <pt x="557" y="0" on="1"/>
        <pt x="451" y="0" on="1"/>
        <pt x="336" y="270" on="1"/>
        <pt x="248" y="183" on="1"/>
        <pt x="244" y="198" on="0"/>
        <pt x="246" y="234" on="0"/>
        <pt x="257" y="273" on="0"/>
        <pt x="278" y="312" on="0"/>
        <pt x="294" y="328" on="1"/>
        <pt x="480" y="517" on="1"/>
        <pt x="583" y="510" on="1"/>
      </contour>
    </TTGlyph>
    <TTGlyph name="l" xMin="85" yMin="0" xMax="268" yMax="758">
      <contour>
        <pt x="176" y="0" on="1"/>
        <pt x="85" y="0" on="1"/>
        <pt x="178" y="758" on="1"/>
        <pt x="268" y="751" on="1"/>
      </contour>
    </TTGlyph>
    <TTGlyph name="less" xMin="67" yMin="0" xMax="621" yMax="552">
      <contour>
        <pt x="563" y="81" on="1"/>
        <pt x="554" y="0" on="1"/>
        <pt x="67" y="251" on="1"/>
        <pt x="73" y="301" on="1"/>
        <pt x="621" y="552" on="1"/>
        <pt x="611" y="472" on="1"/>
        <pt x="181" y="283" on="1"/>
        <pt x="154" y="276" on="1"/>
        <pt x="180" y="270" on="1"/>
      </contour>
    </TTGlyph>
    <TTGlyph name="logicalnot" xMin="88" yMin="156" xMax="582" yMax="438">
      <contour>
        <pt x="582" y="438" on="1"/>
        <pt x="548" y="156" on="1"/>
        <pt x="475" y="156" on="1"/>
        <pt x="501" y="374" on="1"/>
        <pt x="88" y="374" on="1"/>
        <pt x="96" y="438" on="1"/>
      </contour>
    </TTGlyph>
    <TTGlyph name="m" xMin="85" yMin="0" xMax="874" yMax="527">
      <contour>
        <pt x="205" y="517" on="1"/>
        <pt x="226" y="490" on="0"/>
        <pt x="234" y="437" on="0"/>
        <pt x="230" y="407" on="1"/>
        <pt x="181" y="0" on="1"/>
        <pt x="85" y="0" on="1"/>
        <pt x="132" y="386" on="1"/>
        <pt x="135" y="414" on="0"/>
        <pt x="136" y="477" on="0"/>
        <pt x="132" y="512" on="1"/>
      </contour>
      <contour>
        <pt x="453" y="376" on="1"/>
        <pt x="457" y="411" on="0"/>
        <pt x="433" y="455" on="0"/>
        <pt x="404" y="455" on="1"/>
        <pt x="392" y="455" on="0"/>
        <pt x="374" y="451" on="0"/>
        <pt x="361" y="448" on="1"/>
        <pt x="330" y="441" on="0"/>
        <pt x="284" y="453" on="0"/>
        <pt x="266" y="475" on="1"/>
        <pt x="323" y="507" on="0"/>
        <pt x="397" y="527" on="0"/>
        <pt x="424" y="527" on="1"/>
        <pt x="453" y="527" on="0"/>
        <pt x="503" y="512" on="0"/>
        <pt x="538" y="474" on="0"/>
        <pt x="553" y="412" on="0"/>
        <pt x="547" y="366" on="1"/>
        <pt x="503" y="0" on="1"/>
        <pt x="407" y="0" on="1"/>
      </contour>
      <contour>
        <pt x="774" y="376" on="1"/>
        <pt x="778" y="411" on="0"/>
        <pt x="753" y="455" on="0"/>
        <pt x="721" y="455" on="1"/>
        <pt x="709" y="455" on="0"/>
        <pt x="688" y="450" on="0"/>
        <pt x="674" y="447" on="1"/>
        <pt x="644" y="440" on="0"/>
        <pt x="596" y="452" on="0"/>
        <pt x="578" y="474" on="1"/>
        <pt x="635" y="506" on="0"/>
        <pt x="713" y="527" on="0"/>
        <pt x="740" y="527" on="1"/>
        <pt x="770" y="527" on="0"/>
        <pt x="822" y="512" on="0"/>
        <pt x="858" y="474" on="0"/>
        <pt x="874" y="412" on="0"/>
        <pt x="868" y="366" on="1"/>
        <pt x="824" y="0" on="1"/>
        <pt x="728" y="0" on="1"/>
      </contour>
    </TTGlyph>
    <TTGlyph name="macron" xMin="190" yMin="613" xMax="490" yMax="677">
      <contour>
        <pt x="190" y="613" on="1"/>
        <pt x="198" y="677" on="1"/>
        <pt x="490" y="677" on="1"/>
        <pt x="482" y="613" on="1"/>
      </contour>
    </TTGlyph>
    <TTGlyph name="mu" xMin="48" yMin="-211" xMax="554" yMax="517">
      <contour>
        <pt x="403" y="61" on="1"/>
        <pt x="381" y="35" on="0"/>
        <pt x="313" y="-10" on="0"/>
        <pt x="263" y="-10" on="1"/>
        <pt x="205" y="-10" on="0"/>
        <pt x="176" y="25" on="1"/>
        <pt x="163" y="47" on="1"/>
        <pt x="161" y="15" on="1"/>
        <pt x="134" y="-211" on="1"/>
        <pt x="48" y="-211" on="1"/>
        <pt x="137" y="517" on="1"/>
        <pt x="229" y="517" on="1"/>
        <pt x="191" y="210" on="1"/>
        <pt x="188" y="180" on="0"/>
        <pt x="194" y="128" on="0"/>
        <pt x="216" y="88" on="0"/>
        <pt x="253" y="65" on="0"/>
        <pt x="281" y="65" on="1"/>
        <pt x="304" y="65" on="0"/>
        <pt x="351" y="87" on="0"/>
        <pt x="390" y="123" on="0"/>
        <pt x="418" y="172" on="0"/>
        <pt x="421" y="199" on="1"/>
        <pt x="460" y="517" on="1"/>
        <pt x="553" y="517" on="1"/>
        <pt x="507" y="141" on="1"/>
        <pt x="502" y="99" on="0"/>
        <pt x="521" y="65" on="0"/>
        <pt x="553" y="67" on="1"/>
        <pt x="554" y="3" on="1"/>
        <pt x="522" y="-8" on="0"/>
        <pt x="499" y="-8" on="1"/>
        <pt x="468" y="-8" on="0"/>
        <pt x="424" y="23" on="0"/>
        <pt x="419" y="61" on="1"/>
        <pt x="418" y="85" on="1"/>
      </contour>
    </TTGlyph>
    <TTGlyph name="multiply" xMin="69" yMin="79" xMax="564" yMax="531">
      <contour>
        <pt x="69" y="124" on="1"/>
        <pt x="272" y="306" on="1"/>
        <pt x="113" y="486" on="1"/>
        <pt x="165" y="531" on="1"/>
        <pt x="324" y="351" on="1"/>
        <pt x="525" y="531" on="1"/>
        <pt x="564" y="486" on="1"/>
        <pt x="363" y="306" on="1"/>
        <pt x="522" y="124" on="1"/>
        <pt x="471" y="79" on="1"/>
        <pt x="312" y="260" on="1"/>
        <pt x="108" y="79" on="1"/>
      </contour>
    </TTGlyph>
    <TTGlyph name="n" xMin="85" yMin="0" xMax="559" yMax="527">
      <contour>
        <pt x="205" y="517" on="1"/>
        <pt x="226" y="490" on="0"/>
        <pt x="234" y="437" on="0"/>
        <pt x="230" y="407" on="1"/>
        <pt x="181" y="0" on="1"/>
        <pt x="85" y="0" on="1"/>
        <pt x="132" y="386" on="1"/>
        <pt x="135" y="414" on="0"/>
        <pt x="136" y="477" on="0"/>
        <pt x="132" y="512" on="1"/>
      </contour>
      <contour>
        <pt x="459" y="376" on="1"/>
        <pt x="463" y="411" on="0"/>
        <pt x="437" y="455" on="0"/>
        <pt x="406" y="455" on="1"/>
        <pt x="394" y="455" on="0"/>
        <pt x="376" y="450" on="0"/>
        <pt x="362" y="447" on="1"/>
        <pt x="332" y="440" on="0"/>
        <pt x="284" y="452" on="0"/>
        <pt x="266" y="474" on="1"/>
        <pt x="323" y="506" on="0"/>
        <pt x="397" y="527" on="0"/>
        <pt x="424" y="527" on="1"/>
        <pt x="454" y="527" on="0"/>
        <pt x="506" y="512" on="0"/>
        <pt x="543" y="474" on="0"/>
        <pt x="559" y="412" on="0"/>
        <pt x="553" y="366" on="1"/>
        <pt x="509" y="0" on="1"/>
        <pt x="413" y="0" on="1"/>
      </contour>
    </TTGlyph>
    <TTGlyph name="nine" xMin="125" yMin="-10" xMax="618" yMax="710">
      <contour>
        <pt x="236" y="63" on="1"/>
        <pt x="290" y="63" on="0"/>
        <pt x="383" y="108" on="0"/>
        <pt x="456" y="190" on="0"/>
        <pt x="505" y="302" on="0"/>
        <pt x="513" y="370" on="1"/>
        <pt x="518" y="410" on="0"/>
        <pt x="516" y="504" on="0"/>
        <pt x="491" y="585" on="0"/>
        <pt x="434" y="638" on="0"/>
        <pt x="385" y="638" on="1"/>
        <pt x="355" y="638" on="0"/>
        <pt x="303" y="615" on="0"/>
        <pt x="264" y="573" on="0"/>
        <pt x="238" y="515" on="0"/>
        <pt x="234" y="481" on="1"/>
        <pt x="226" y="413" on="0"/>
        <pt x="279" y="342" on="0"/>
        <pt x="325" y="342" on="1"/>
        <pt x="332" y="342" on="0"/>
        <pt x="349" y="344" on="0"/>
        <pt x="361" y="346" on="1"/>
        <pt x="381" y="351" on="0"/>
        <pt x="415" y="348" on="0"/>
        <pt x="442" y="338" on="0"/>
        <pt x="461" y="323" on="0"/>
        <pt x="467" y="316" on="1"/>
        <pt x="440" y="302" on="0"/>
        <pt x="399" y="285" on="0"/>
        <pt x="365" y="275" on="0"/>
        <pt x="334" y="271" on="0"/>
        <pt x="317" y="271" on="1"/>
        <pt x="272" y="271" on="0"/>
        <pt x="199" y="298" on="0"/>
        <pt x="150" y="351" on="0"/>
        <pt x="129" y="430" on="0"/>
        <pt x="135" y="481" on="1"/>
        <pt x="140" y="524" on="0"/>
        <pt x="183" y="607" on="0"/>
        <pt x="251" y="671" on="0"/>
        <pt x="340" y="710" on="0"/>
        <pt x="391" y="710" on="1"/>
        <pt x="466" y="710" on="0"/>
        <pt x="559" y="650" on="0"/>
        <pt x="608" y="554" on="0"/>
        <pt x="618" y="433" on="0"/>
        <pt x="611" y="372" on="1"/>
        <pt x="603" y="303" on="0"/>
        <pt x="542" y="166" on="0"/>
        <pt x="443" y="58" on="0"/>
        <pt x="308" y="-10" on="0"/>
        <pt x="227" y="-10" on="1"/>
        <pt x="175" y="-10" on="0"/>
        <pt x="125" y="15" on="1"/>
        <pt x="156" y="81" on="1"/>
        <pt x="177" y="71" on="0"/>
        <pt x="218" y="63" on="0"/>
      </contour>
    </TTGlyph>
    <TTGlyph name="ntilde" xMin="85" yMin="0" xMax="559" yMax="734">
      <contour>
        <pt x="459" y="376" on="1"/>
        <pt x="463" y="411" on="0"/>
        <pt x="437" y="455" on="0"/>
        <pt x="406" y="455" on="1"/>
        <pt x="394" y="455" on="0"/>
        <pt x="376" y="450" on="0"/>
        <pt x="362" y="447" on="1"/>
        <pt x="332" y="440" on="0"/>
        <pt x="284" y="452" on="0"/>
        <pt x="266" y="474" on="1"/>
        <pt x="323" y="506" on="0"/>
        <pt x="397" y="527" on="0"/>
        <pt x="424" y="527" on="1"/>
        <pt x="454" y="527" on="0"/>
        <pt x="506" y="512" on="0"/>
        <pt x="543" y="474" on="0"/>
        <pt x="559" y="412" on="0"/>
        <pt x="553" y="366" on="1"/>
        <pt x="509" y="0" on="1"/>
        <pt x="413" y="0" on="1"/>
      </contour>
      <contour>
        <pt x="228" y="624" on="1"/>
        <pt x="236" y="681" on="0"/>
        <pt x="294" y="731" on="0"/>
        <pt x="330" y="732" on="1"/>
        <pt x="367" y="732" on="0"/>
        <pt x="391" y="708" on="1"/>
        <pt x="403" y="696" on="0"/>
        <pt x="422" y="676" on="0"/>
        <pt x="442" y="676" on="1"/>
        <pt x="467" y="676" on="0"/>
        <pt x="480" y="734" on="1"/>
        <pt x="532" y="728" on="1"/>
        <pt x="527" y="696" on="0"/>
        <pt x="506" y="655" on="0"/>
        <pt x="479" y="630" on="0"/>
        <pt x="449" y="620" on="0"/>
        <pt x="435" y="620" on="1"/>
        <pt x="394" y="620" on="0"/>
        <pt x="372" y="643" on="1"/>
        <pt x="359" y="655" on="0"/>
        <pt x="342" y="676" on="0"/>
        <pt x="325" y="676" on="1"/>
        <pt x="312" y="676" on="0"/>
        <pt x="289" y="650" on="0"/>
        <pt x="282" y="618" on="1"/>
      </contour>
      <contour>
        <pt x="205" y="517" on="1"/>
        <pt x="226" y="490" on="0"/>
        <pt x="234" y="437" on="0"/>
        <pt x="230" y="407" on="1"/>
        <pt x="181" y="0" on="1"/>
        <pt x="85" y="0" on="1"/>
        <pt x="132" y="386" on="1"/>
        <pt x="135" y="414" on="0"/>
        <pt x="136" y="477" on="0"/>
        <pt x="132" y="512" on="1"/>
      </contour>
    </TTGlyph>
    <TTGlyph name="numbersign" xMin="102" yMin="0" xMax="823" yMax="702">
      <contour>
        <pt x="521" y="165" on="1"/>
        <pt x="326" y="165" on="1"/>
        <pt x="339" y="194" on="0"/>
        <pt x="383" y="230" on="0"/>
        <pt x="418" y="230" on="1"/>
        <pt x="541" y="230" on="1"/>
        <pt x="617" y="474" on="1"/>
        <pt x="387" y="474" on="1"/>
        <pt x="239" y="0" on="1"/>
        <pt x="163" y="0" on="1"/>
        <pt x="214" y="165" on="1"/>
        <pt x="102" y="165" on="1"/>
        <pt x="110" y="230" on="1"/>
        <pt x="234" y="230" on="1"/>
        <pt x="310" y="474" on="1"/>
        <pt x="199" y="474" on="1"/>
        <pt x="207" y="539" on="1"/>
        <pt x="331" y="539" on="1"/>
        <pt x="382" y="702" on="1"/>
        <pt x="458" y="702" on="1"/>
        <pt x="407" y="539" on="1"/>
        <pt x="638" y="539" on="1"/>
        <pt x="689" y="702" on="1"/>
        <pt x="765" y="702" on="1"/>
        <pt x="714" y="539" on="1"/>
        <pt x="823" y="539" on="1"/>
        <pt x="815" y="474" on="1"/>
        <pt x="694" y="474" on="1"/>
        <pt x="617" y="230" on="1"/>
        <pt x="726" y="230" on="1"/>
        <pt x="718" y="165" on="1"/>
        <pt x="597" y="165" on="1"/>
        <pt x="546" y="0" on="1"/>
        <pt x="470" y="0" on="1"/>
      </contour>
    </TTGlyph>
    <TTGlyph name="o" xMin="63" yMin="-10" xMax="560" yMax="527">
      <contour>
        <pt x="71" y="259" on="1"/>
        <pt x="80" y="328" on="0"/>
        <pt x="134" y="429" on="0"/>
        <pt x="211" y="495" on="0"/>
        <pt x="301" y="527" on="0"/>
        <pt x="345" y="527" on="1"/>
        <pt x="402" y="527" on="0"/>
        <pt x="487" y="485" on="0"/>
        <pt x="540" y="413" on="0"/>
        <pt x="560" y="315" on="0"/>
        <pt x="553" y="259" on="1"/>
        <pt x="545" y="194" on="0"/>
        <pt x="494" y="93" on="0"/>
        <pt x="419" y="25" on="0"/>
        <pt x="327" y="-10" on="0"/>
        <pt x="279" y="-10" on="1"/>
        <pt x="229" y="-10" on="0"/>
        <pt x="145" y="25" on="0"/>
        <pt x="88" y="93" on="0"/>
        <pt x="63" y="194" on="0"/>
      </contour>
      <contour>
        <pt x="170" y="259" on="1"/>
        <pt x="165" y="215" on="0"/>
        <pt x="175" y="143" on="0"/>
        <pt x="205" y="91" on="0"/>
        <pt x="254" y="62" on="0"/>
        <pt x="288" y="62" on="1"/>
        <pt x="324" y="62" on="0"/>
        <pt x="382" y="93" on="0"/>
        <pt x="423" y="147" on="0"/>
        <pt x="449" y="219" on="0"/>
        <pt x="454" y="259" on="1"/>
        <pt x="460" y="309" on="0"/>
        <pt x="446" y="383" on="0"/>
        <pt x="413" y="431" on="0"/>
        <pt x="364" y="455" on="0"/>
        <pt x="336" y="455" on="1"/>
        <pt x="307" y="455" on="0"/>
        <pt x="253" y="431" on="0"/>
        <pt x="208" y="383" on="0"/>
        <pt x="176" y="309" on="0"/>
      </contour>
    </TTGlyph>
    <TTGlyph name="oacute" xMin="63" yMin="-10" xMax="561" yMax="740">
      <contour>
        <pt x="553" y="259" on="1"/>
        <pt x="545" y="194" on="0"/>
        <pt x="494" y="93" on="0"/>
        <pt x="419" y="25" on="0"/>
        <pt x="327" y="-10" on="0"/>
        <pt x="279" y="-10" on="1"/>
        <pt x="229" y="-10" on="0"/>
        <pt x="145" y="25" on="0"/>
        <pt x="88" y="93" on="0"/>
        <pt x="63" y="194" on="0"/>
        <pt x="71" y="259" on="1"/>
        <pt x="79" y="324" on="0"/>
        <pt x="131" y="424" on="0"/>
        <pt x="205" y="492" on="0"/>
        <pt x="297" y="527" on="0"/>
        <pt x="345" y="527" on="1"/>
        <pt x="395" y="527" on="0"/>
        <pt x="479" y="492" on="0"/>
        <pt x="536" y="424" on="0"/>
        <pt x="561" y="324" on="0"/>
      </contour>
      <contour>
        <pt x="454" y="259" on="1"/>
        <pt x="460" y="309" on="0"/>
        <pt x="446" y="383" on="0"/>
        <pt x="413" y="431" on="0"/>
        <pt x="364" y="455" on="0"/>
        <pt x="336" y="455" on="1"/>
        <pt x="307" y="455" on="0"/>
        <pt x="253" y="431" on="0"/>
        <pt x="208" y="383" on="0"/>
        <pt x="176" y="309" on="0"/>
        <pt x="170" y="259" on="1"/>
        <pt x="164" y="208" on="0"/>
        <pt x="178" y="134" on="0"/>
        <pt x="211" y="86" on="0"/>
        <pt x="259" y="62" on="0"/>
        <pt x="288" y="62" on="1"/>
        <pt x="316" y="62" on="0"/>
        <pt x="371" y="86" on="0"/>
        <pt x="416" y="134" on="0"/>
        <pt x="448" y="208" on="0"/>
      </contour>
      <contour>
        <pt x="410" y="631" on="1"/>
        <pt x="387" y="607" on="0"/>
        <pt x="333" y="595" on="0"/>
        <pt x="308" y="602" on="1"/>
        <pt x="414" y="740" on="1"/>
        <pt x="511" y="740" on="1"/>
      </contour>
    </TTGlyph>
    <TTGlyph name="ocircumflex" xMin="63" yMin="-10" xMax="561" yMax="743">
      <contour>
        <pt x="553" y="259" on="1"/>
        <pt x="545" y="194" on="0"/>
        <pt x="494" y="93" on="0"/>
        <pt x="419" y="25" on="0"/>
        <pt x="327" y="-10" on="0"/>
        <pt x="279" y="-10" on="1"/>
        <pt x="229" y="-10" on="0"/>
        <pt x="145" y="25" on="0"/>
        <pt x="88" y="93" on="0"/>
        <pt x="63" y="194" on="0"/>
        <pt x="71" y="259" on="1"/>
        <pt x="79" y="324" on="0"/>
        <pt x="131" y="424" on="0"/>
        <pt x="205" y="492" on="0"/>
        <pt x="297" y="527" on="0"/>
        <pt x="345" y="527" on="1"/>
        <pt x="395" y="527" on="0"/>
        <pt x="479" y="492" on="0"/>
        <pt x="536" y="424" on="0"/>
        <pt x="561" y="324" on="0"/>
      </contour>
      <contour>
        <pt x="454" y="259" on="1"/>
        <pt x="460" y="309" on="0"/>
        <pt x="446" y="383" on="0"/>
        <pt x="413" y="431" on="0"/>
        <pt x="364" y="455" on="0"/>
        <pt x="336" y="455" on="1"/>
        <pt x="307" y="455" on="0"/>
        <pt x="253" y="431" on="0"/>
        <pt x="208" y="383" on="0"/>
        <pt x="176" y="309" on="0"/>
        <pt x="170" y="259" on="1"/>
        <pt x="164" y="208" on="0"/>
        <pt x="178" y="134" on="0"/>
        <pt x="211" y="86" on="0"/>
        <pt x="259" y="62" on="0"/>
        <pt x="288" y="62" on="1"/>
        <pt x="316" y="62" on="0"/>
        <pt x="371" y="86" on="0"/>
        <pt x="416" y="134" on="0"/>
        <pt x="448" y="208" on="0"/>
      </contour>
      <contour>
        <pt x="401" y="743" on="1"/>
        <pt x="494" y="598" on="1"/>
        <pt x="441" y="590" on="1"/>
        <pt x="363" y="674" on="1"/>
        <pt x="265" y="589" on="1"/>
        <pt x="217" y="598" on="1"/>
        <pt x="344" y="743" on="1"/>
      </contour>
    </TTGlyph>
    <TTGlyph name="odieresis" xMin="63" yMin="-10" xMax="561" yMax="722">
      <contour>
        <pt x="553" y="259" on="1"/>
        <pt x="545" y="194" on="0"/>
        <pt x="494" y="93" on="0"/>
        <pt x="419" y="25" on="0"/>
        <pt x="327" y="-10" on="0"/>
        <pt x="279" y="-10" on="1"/>
        <pt x="229" y="-10" on="0"/>
        <pt x="145" y="25" on="0"/>
        <pt x="88" y="93" on="0"/>
        <pt x="63" y="194" on="0"/>
        <pt x="71" y="259" on="1"/>
        <pt x="79" y="324" on="0"/>
        <pt x="131" y="424" on="0"/>
        <pt x="205" y="492" on="0"/>
        <pt x="297" y="527" on="0"/>
        <pt x="345" y="527" on="1"/>
        <pt x="395" y="527" on="0"/>
        <pt x="479" y="492" on="0"/>
        <pt x="536" y="424" on="0"/>
        <pt x="561" y="324" on="0"/>
      </contour>
      <contour>
        <pt x="454" y="259" on="1"/>
        <pt x="460" y="309" on="0"/>
        <pt x="446" y="383" on="0"/>
        <pt x="413" y="431" on="0"/>
        <pt x="364" y="455" on="0"/>
        <pt x="336" y="455" on="1"/>
        <pt x="307" y="455" on="0"/>
        <pt x="253" y="431" on="0"/>
        <pt x="208" y="383" on="0"/>
        <pt x="176" y="309" on="0"/>
        <pt x="170" y="259" on="1"/>
        <pt x="164" y="208" on="0"/>
        <pt x="178" y="134" on="0"/>
        <pt x="211" y="86" on="0"/>
        <pt x="259" y="62" on="0"/>
        <pt x="288" y="62" on="1"/>
        <pt x="316" y="62" on="0"/>
        <pt x="371" y="86" on="0"/>
        <pt x="416" y="134" on="0"/>
        <pt x="448" y="208" on="0"/>
      </contour>
      <contour>
        <pt x="213" y="670" on="1"/>
        <pt x="215" y="692" on="0"/>
        <pt x="250" y="722" on="0"/>
        <pt x="271" y="722" on="1"/>
        <pt x="293" y="722" on="0"/>
        <pt x="320" y="692" on="0"/>
        <pt x="318" y="670" on="1"/>
        <pt x="315" y="648" on="0"/>
        <pt x="280" y="618" on="0"/>
        <pt x="258" y="618" on="1"/>
        <pt x="237" y="618" on="0"/>
        <pt x="210" y="648" on="0"/>
      </contour>
      <contour>
        <pt x="407" y="670" on="1"/>
        <pt x="409" y="692" on="0"/>
        <pt x="444" y="722" on="0"/>
        <pt x="466" y="722" on="1"/>
        <pt x="487" y="722" on="0"/>
        <pt x="514" y="692" on="0"/>
        <pt x="512" y="670" on="1"/>
        <pt x="509" y="648" on="0"/>
        <pt x="474" y="618" on="0"/>
        <pt x="453" y="618" on="1"/>
        <pt x="431" y="618" on="0"/>
        <pt x="404" y="648" on="0"/>
      </contour>
    </TTGlyph>
    <TTGlyph name="oe" xMin="63" yMin="-10" xMax="896" yMax="527">
      <contour>
        <pt x="547" y="259" on="1"/>
        <pt x="542" y="215" on="0"/>
        <pt x="558" y="142" on="0"/>
        <pt x="594" y="90" on="0"/>
        <pt x="648" y="62" on="0"/>
        <pt x="682" y="62" on="1"/>
        <pt x="717" y="62" on="0"/>
        <pt x="780" y="76" on="0"/>
        <pt x="826" y="98" on="1"/>
        <pt x="842" y="32" on="1"/>
        <pt x="791" y="7" on="0"/>
        <pt x="699" y="-10" on="0"/>
        <pt x="663" y="-10" on="1"/>
        <pt x="599" y="-10" on="0"/>
        <pt x="510" y="62" on="0"/>
        <pt x="485" y="120" on="1"/>
        <pt x="448" y="58" on="0"/>
        <pt x="338" y="-10" on="0"/>
        <pt x="279" y="-10" on="1"/>
        <pt x="229" y="-10" on="0"/>
        <pt x="145" y="25" on="0"/>
        <pt x="88" y="93" on="0"/>
        <pt x="63" y="194" on="0"/>
        <pt x="71" y="259" on="1"/>
        <pt x="79" y="324" on="0"/>
        <pt x="131" y="424" on="0"/>
        <pt x="205" y="492" on="0"/>
        <pt x="297" y="527" on="0"/>
        <pt x="345" y="527" on="1"/>
        <pt x="405" y="527" on="0"/>
        <pt x="494" y="468" on="0"/>
        <pt x="518" y="402" on="1"/>
        <pt x="553" y="462" on="0"/>
        <pt x="666" y="527" on="0"/>
        <pt x="732" y="527" on="1"/>
        <pt x="783" y="527" on="0"/>
        <pt x="857" y="481" on="0"/>
        <pt x="896" y="404" on="0"/>
        <pt x="895" y="304" on="0"/>
        <pt x="872" y="250" on="1"/>
        <pt x="582" y="250" on="1"/>
        <pt x="596" y="279" on="0"/>
        <pt x="639" y="317" on="0"/>
        <pt x="675" y="317" on="1"/>
        <pt x="802" y="317" on="1"/>
        <pt x="809" y="346" on="0"/>
        <pt x="801" y="396" on="0"/>
        <pt x="777" y="434" on="0"/>
        <pt x="737" y="455" on="0"/>
        <pt x="713" y="455" on="1"/>
        <pt x="651" y="455" on="0"/>
        <pt x="561" y="356" on="0"/>
      </contour>
      <contour>
        <pt x="454" y="259" on="1"/>
        <pt x="459" y="310" on="0"/>
        <pt x="444" y="384" on="0"/>
        <pt x="411" y="432" on="0"/>
        <pt x="364" y="455" on="0"/>
        <pt x="336" y="455" on="1"/>
        <pt x="307" y="455" on="0"/>
        <pt x="253" y="431" on="0"/>
        <pt x="208" y="383" on="0"/>
        <pt x="176" y="309" on="0"/>
        <pt x="170" y="259" on="1"/>
        <pt x="164" y="208" on="0"/>
        <pt x="178" y="134" on="0"/>
        <pt x="211" y="86" on="0"/>
        <pt x="259" y="62" on="0"/>
        <pt x="288" y="62" on="1"/>
        <pt x="316" y="62" on="0"/>
        <pt x="369" y="85" on="0"/>
        <pt x="414" y="133" on="0"/>
        <pt x="446" y="207" on="0"/>
      </contour>
    </TTGlyph>
    <TTGlyph name="ograve" xMin="63" yMin="-10" xMax="561" yMax="740">
      <contour>
        <pt x="553" y="259" on="1"/>
        <pt x="545" y="194" on="0"/>
        <pt x="494" y="93" on="0"/>
        <pt x="419" y="25" on="0"/>
        <pt x="327" y="-10" on="0"/>
        <pt x="279" y="-10" on="1"/>
        <pt x="229" y="-10" on="0"/>
        <pt x="145" y="25" on="0"/>
        <pt x="88" y="93" on="0"/>
        <pt x="63" y="194" on="0"/>
        <pt x="71" y="259" on="1"/>
        <pt x="79" y="324" on="0"/>
        <pt x="131" y="424" on="0"/>
        <pt x="205" y="492" on="0"/>
        <pt x="297" y="527" on="0"/>
        <pt x="345" y="527" on="1"/>
        <pt x="395" y="527" on="0"/>
        <pt x="479" y="492" on="0"/>
        <pt x="536" y="424" on="0"/>
        <pt x="561" y="324" on="0"/>
      </contour>
      <contour>
        <pt x="454" y="259" on="1"/>
        <pt x="460" y="309" on="0"/>
        <pt x="446" y="383" on="0"/>
        <pt x="413" y="431" on="0"/>
        <pt x="364" y="455" on="0"/>
        <pt x="336" y="455" on="1"/>
        <pt x="307" y="455" on="0"/>
        <pt x="253" y="431" on="0"/>
        <pt x="208" y="383" on="0"/>
        <pt x="176" y="309" on="0"/>
        <pt x="170" y="259" on="1"/>
        <pt x="164" y="208" on="0"/>
        <pt x="178" y="134" on="0"/>
        <pt x="211" y="86" on="0"/>
        <pt x="259" y="62" on="0"/>
        <pt x="288" y="62" on="1"/>
        <pt x="316" y="62" on="0"/>
        <pt x="371" y="86" on="0"/>
        <pt x="416" y="134" on="0"/>
        <pt x="448" y="208" on="0"/>
      </contour>
      <contour>
        <pt x="246" y="740" on="1"/>
        <pt x="341" y="740" on="1"/>
        <pt x="397" y="602" on="1"/>
        <pt x="371" y="596" on="0"/>
        <pt x="321" y="607" on="0"/>
        <pt x="305" y="631" on="1"/>
      </contour>
    </TTGlyph>
    <TTGlyph name="one" xMin="67" yMin="0" xMax="326" yMax="701">
      <contour>
        <pt x="144" y="0" on="1"/>
        <pt x="216" y="587" on="1"/>
        <pt x="94" y="526" on="1"/>
        <pt x="67" y="589" on="1"/>
        <pt x="289" y="701" on="1"/>
        <pt x="326" y="701" on="1"/>
        <pt x="240" y="0" on="1"/>
      </contour>
    </TTGlyph>
    <TTGlyph name="onehalf" xMin="89" yMin="0" xMax="722" yMax="727">
      <contour>
        <pt x="89" y="0" on="1"/>
        <pt x="614" y="727" on="1"/>
        <pt x="676" y="727" on="1"/>
        <pt x="151" y="0" on="1"/>
      </contour>
      <contour>
        <pt x="159" y="309" on="1"/>
        <pt x="201" y="645" on="1"/>
        <pt x="135" y="613" on="1"/>
        <pt x="114" y="660" on="1"/>
        <pt x="247" y="727" on="1"/>
        <pt x="280" y="727" on="1"/>
        <pt x="228" y="309" on="1"/>
      </contour>
      <contour>
        <pt x="719" y="318" on="1"/>
        <pt x="714" y="282" on="0"/>
        <pt x="669" y="216" on="0"/>
        <pt x="609" y="155" on="0"/>
        <pt x="546" y="96" on="0"/>
        <pt x="525" y="67" on="1"/>
        <pt x="514" y="57" on="1"/>
        <pt x="528" y="59" on="1"/>
        <pt x="694" y="59" on="1"/>
        <pt x="687" y="0" on="1"/>
        <pt x="426" y="0" on="1"/>
        <pt x="430" y="36" on="1"/>
        <pt x="466" y="84" on="0"/>
        <pt x="540" y="160" on="0"/>
        <pt x="603" y="224" on="0"/>
        <pt x="645" y="281" on="0"/>
        <pt x="649" y="311" on="1"/>
        <pt x="653" y="345" on="0"/>
        <pt x="615" y="372" on="0"/>
        <pt x="583" y="372" on="1"/>
        <pt x="551" y="372" on="0"/>
        <pt x="508" y="355" on="1"/>
        <pt x="492" y="401" on="1"/>
        <pt x="521" y="416" on="0"/>
        <pt x="572" y="426" on="0"/>
        <pt x="596" y="426" on="1"/>
        <pt x="623" y="426" on="0"/>
        <pt x="670" y="412" on="0"/>
        <pt x="705" y="384" on="0"/>
        <pt x="722" y="344" on="0"/>
      </contour>
    </TTGlyph>
</ttFont>
